<svg width="90" height="90" viewBox="0 0 90 90" fill="none" xmlns="http://www.w3.org/2000/svg">
<path d="M16.5654 69.1594L26.3811 7.28442C26.3945 7.04112 26.458 6.80321 26.5676 6.58556C26.6771 6.36791 26.8304 6.1752 27.0178 6.01946C27.2052 5.86373 27.4227 5.74832 27.6567 5.68046C27.8908 5.61259 28.1363 5.59373 28.3779 5.62504C28.6475 5.66791 28.903 5.77447 29.1231 5.9359C29.3432 6.09732 29.5216 6.30894 29.6436 6.55317L39.7404 25.3125L43.7342 17.7188C43.8336 17.5045 43.9748 17.3123 44.1496 17.1534C44.3243 16.9945 44.5291 16.8721 44.7518 16.7935C44.9746 16.7149 45.2108 16.6816 45.4466 16.6956C45.6823 16.7096 45.9129 16.7706 46.1248 16.875C46.4551 17.037 46.7222 17.3041 46.8842 17.6344L73.9404 69.1313L16.5654 69.1594Z" fill="#F9A01B"/>
<path opacity="0.12" d="M49.7811 6.0751L2.3623 2.05322V87.9751L16.5654 69.1595L49.7811 6.0751Z" fill="url(#paint0_linear_354_416)"/>
<path d="M50.1467 45L39.6561 25.3125L16.5654 69.1594L50.1467 45Z" fill="#F47D20"/>
<path opacity="0.2" d="M2.3623 2.05322H88.2561V87.9751H2.3623V2.05322Z" fill="url(#paint1_linear_354_416)"/>
<path d="M73.9404 69.1594L66.4311 23.2313C66.3419 22.765 66.0749 22.3517 65.6865 22.0787C65.2981 21.8058 64.8187 21.6946 64.3498 21.7688C63.982 21.8216 63.644 22.0006 63.3936 22.275L16.5654 69.1594L42.4686 83.6719C43.2599 84.1424 44.1635 84.3907 45.0842 84.3907C46.0048 84.3907 46.9084 84.1424 47.6998 83.6719L73.9404 69.1594Z" fill="#FFCB2A"/>
<path d="M66.4311 23.2312C66.3419 22.7649 66.0749 22.3516 65.6865 22.0786C65.2981 21.8057 64.8187 21.6946 64.3498 21.7687C63.982 21.8216 63.644 22.0005 63.3936 22.275L54.0842 31.5844L46.7998 17.6906C46.7007 17.4797 46.5603 17.2909 46.387 17.1352C46.2137 16.9795 46.011 16.8601 45.7907 16.7841C45.5705 16.708 45.3373 16.6769 45.1048 16.6925C44.8724 16.7081 44.6454 16.7702 44.4373 16.875C44.1016 17.0293 43.8322 17.2987 43.6779 17.6344L39.7404 25.3125L29.6717 6.58123C29.4454 6.16609 29.0648 5.85667 28.6122 5.71984C28.1596 5.58301 27.6713 5.62976 27.2529 5.84998C27.0172 5.98639 26.8144 6.17301 26.6588 6.3966C26.5033 6.62018 26.3988 6.87526 26.3529 7.14373L16.5654 69.1594L16.8186 69.3L54.1686 32.0344L63.4779 22.725C63.6453 22.5558 63.8446 22.4214 64.0643 22.3297C64.2839 22.238 64.5196 22.1908 64.7576 22.1908C64.9956 22.1908 65.2313 22.238 65.451 22.3297C65.6706 22.4214 65.8699 22.5558 66.0373 22.725C66.2945 22.9847 66.462 23.3197 66.5154 23.6812L73.9686 69.1875L66.4311 23.2312ZM16.5654 69.1031L26.3811 7.59373C26.4085 7.36489 26.4818 7.14393 26.5965 6.94403C26.7113 6.74414 26.8651 6.56942 27.0488 6.43029C27.2326 6.29116 27.4425 6.19049 27.666 6.13427C27.8895 6.07806 28.1221 6.06746 28.3498 6.1031C28.6244 6.14173 28.8856 6.24635 29.1109 6.40799C29.3362 6.56963 29.519 6.78348 29.6436 7.03123L39.6842 25.7062L43.6779 18.1406C43.7824 17.9312 43.9273 17.7445 44.1043 17.5914C44.2813 17.4383 44.4868 17.3218 44.7091 17.2486C44.9314 17.1754 45.166 17.1469 45.3993 17.1649C45.6326 17.1828 45.8601 17.2468 46.0686 17.3531C46.4123 17.5099 46.6838 17.7913 46.8279 18.1406L53.9998 31.725L16.5654 69.1031Z" fill="white" fill-opacity="0.2"/>
<path opacity="0.2" d="M47.8125 83.2781C47.0058 83.7019 46.1081 83.9232 45.1969 83.9232C44.2856 83.9232 43.388 83.7019 42.5813 83.2781L16.875 68.7656V69.1594L42.7781 83.6719C43.5748 84.1419 44.4828 84.3898 45.4078 84.3898C46.3328 84.3898 47.2409 84.1419 48.0375 83.6719L74.2781 69.1594V68.7656L47.8125 83.2781Z" fill="#A52A22"/>
<path d="M66.4311 23.2312C66.3419 22.7649 66.0749 22.3516 65.6865 22.0786C65.2981 21.8057 64.8187 21.6946 64.3498 21.7687C63.982 21.8216 63.644 22.0005 63.3936 22.275L54.0842 31.5844L46.7998 17.6906C46.7007 17.4798 46.5603 17.2909 46.387 17.1352C46.2137 16.9795 46.011 16.8601 45.7907 16.7841C45.5705 16.708 45.3373 16.6769 45.1048 16.6925C44.8724 16.7081 44.6454 16.7702 44.4373 16.875C44.1016 17.0293 43.8322 17.2987 43.6779 17.6344L39.7404 25.3125L29.6717 6.58123C29.4454 6.16609 29.0648 5.85667 28.6122 5.71984C28.1596 5.58301 27.6713 5.62976 27.2529 5.84998C27.0172 5.98639 26.8144 6.17301 26.6588 6.3966C26.5033 6.62018 26.3988 6.87526 26.3529 7.14373L16.5654 69.1594L42.4686 83.6719C43.2599 84.1423 44.1635 84.3906 45.0842 84.3906C46.0048 84.3906 46.9084 84.1423 47.6998 83.6719L73.9686 69.1594L66.4311 23.2312Z" fill="url(#paint2_linear_354_416)"/>
<path d="M66.7967 84.3751C76.6757 84.3751 84.6842 76.3666 84.6842 66.4876C84.6842 56.6086 76.6757 48.6001 66.7967 48.6001C56.9177 48.6001 48.9092 56.6086 48.9092 66.4876C48.9092 76.3666 56.9177 84.3751 66.7967 84.3751Z" fill="white"/>
<path fill-rule="evenodd" clip-rule="evenodd" d="M66.7973 57.5437C65.0284 57.5437 63.2992 58.0682 61.8284 59.051C60.3576 60.0337 59.2113 61.4306 58.5343 63.0648C57.8574 64.6991 57.6803 66.4974 58.0254 68.2323C58.3705 69.9672 59.2223 71.5608 60.4731 72.8116C61.7239 74.0624 63.3175 74.9143 65.0524 75.2594C66.7873 75.6045 68.5856 75.4273 70.2199 74.7504C71.8542 74.0735 73.251 72.9271 74.2337 71.4563C75.2165 69.9855 75.741 68.2564 75.741 66.4875C75.7447 65.3166 75.5178 64.1566 75.0731 63.0734C74.6285 61.9903 73.9749 61.0054 73.1496 60.1749C72.3243 59.3444 71.3435 58.6846 70.2632 58.2331C69.183 57.7817 68.0243 57.5474 66.8535 57.5437H66.7973ZM65.8973 73.575C64.1647 73.3681 62.5685 72.5318 61.4122 71.2251C60.2559 69.9184 59.62 68.2323 59.6254 66.4875C59.6214 65.9375 59.6876 65.3894 59.8223 64.8562L64.0973 69.1593V70.0593C64.0973 70.5367 64.2869 70.9946 64.6245 71.3321C64.962 71.6697 65.4199 71.8593 65.8973 71.8593V73.575ZM72.0566 71.2406C71.9432 70.8819 71.7185 70.5686 71.4151 70.3461C71.1117 70.1236 70.7454 70.0035 70.3691 70.0031H69.4691V67.5C69.4691 67.2613 69.3743 67.0323 69.2055 66.8636C69.0368 66.6948 68.8078 66.6 68.5691 66.6H63.1973V64.6875H64.9691C65.0897 64.6912 65.2097 64.6707 65.3222 64.6272C65.4347 64.5837 65.5372 64.518 65.6238 64.434C65.7104 64.35 65.7792 64.2496 65.8262 64.1385C65.8732 64.0274 65.8973 63.908 65.8973 63.7875V62.0156H67.6973C68.1652 61.9945 68.6079 61.7972 68.9365 61.4634C69.2652 61.1296 69.4554 60.6838 69.4691 60.2156V59.85C71.2284 60.5674 72.6311 61.9536 73.3694 63.7042C74.1076 65.4549 74.121 67.4269 73.4066 69.1875C73.0983 69.9653 72.6503 70.6802 72.0848 71.2968L72.0566 71.2406Z" fill="#010101" fill-opacity="0.54"/>
<defs>
<linearGradient id="paint0_linear_354_416" x1="27.8154" y1="47.9251" x2="24.2436" y2="46.0407" gradientUnits="userSpaceOnUse">
<stop stop-color="#A52A22"/>
<stop offset="0.4" stop-color="#A52A22" stop-opacity="0.5"/>
<stop offset="0.8" stop-color="#A52A22" stop-opacity="0"/>
</linearGradient>
<linearGradient id="paint1_linear_354_416" x1="43.0029" y1="42.7501" x2="41.3717" y2="41.147" gradientUnits="userSpaceOnUse">
<stop stop-color="#A52A22" stop-opacity="0.8"/>
<stop offset="0.5" stop-color="#A52A22" stop-opacity="0.21"/>
<stop offset="1" stop-color="#A52A22" stop-opacity="0"/>
</linearGradient>
<linearGradient id="paint2_linear_354_416" x1="15.0467" y1="19.5469" x2="74.8686" y2="79.3687" gradientUnits="userSpaceOnUse">
<stop stop-color="white" stop-opacity="0.1"/>
<stop offset="1" stop-color="white" stop-opacity="0"/>
</linearGradient>
</defs>
</svg>
