<svg width="94" height="95" viewBox="0 0 94 95" fill="none" xmlns="http://www.w3.org/2000/svg">
<path fill-rule="evenodd" clip-rule="evenodd" d="M47 47.1646L69.5 24.6646C69.5 12.2378 59.4267 2.16455 47 2.16455C34.5733 2.16455 24.5 12.2378 24.5 24.6646L47 47.1646Z" stroke="#CB4E5D" stroke-width="4" stroke-linecap="round" stroke-linejoin="round"/>
<path d="M47 47.1646L24.5 69.6646C12.0733 69.6646 2 59.5913 2 47.1646C2 34.7378 12.0733 24.6646 24.5 24.6646L47 47.1646ZM47 47.1646L69.5 24.6646C81.9267 24.6646 92 34.7378 92 47.1646C92 59.5913 81.9267 69.6646 69.5 69.6646L47 47.1646Z" stroke="#4ECB71" stroke-width="4" stroke-linecap="round" stroke-linejoin="round"/>
<path fill-rule="evenodd" clip-rule="evenodd" d="M47 92.1646C59.4267 92.1646 69.5 82.0913 69.5 69.6646L47 47.1646L24.5 69.6646C24.5 82.0913 34.5733 92.1646 47 92.1646Z" stroke="#FFE712" stroke-width="4" stroke-linecap="round" stroke-linejoin="round"/>
</svg>
