<svg width="90" height="91" viewBox="0 0 90 91" fill="none" xmlns="http://www.w3.org/2000/svg">
<path d="M44.2621 76.8573C61.374 76.8573 75.2459 62.5154 75.2459 44.8238C75.2459 27.1322 61.374 12.7903 44.2621 12.7903C27.1502 12.7903 13.2783 27.1322 13.2783 44.8238C13.2783 62.5154 27.1502 76.8573 44.2621 76.8573Z" stroke="#B1123A" stroke-width="2"/>
<path d="M14.7539 1.10962C6.93119 1.10962 0.589844 7.66599 0.589844 15.7539C0.589844 23.8418 6.93119 30.3982 14.7539 30.3982C22.5765 30.3982 28.9179 23.8418 28.9179 15.7539C28.9179 7.66599 22.5765 1.10962 14.7539 1.10962ZM18.109 11.2294H15.9799C15.7276 11.2294 15.4473 11.5727 15.4473 12.0288V13.6183H18.1104L17.7076 15.8851H15.4473V22.6901H12.9347V15.8851H10.6551V13.6183H12.9347V12.285C12.9347 10.3721 14.2183 8.8177 15.9799 8.8177H18.109V11.2294Z" fill="#2392E2"/>
<g clip-path="url(#clip0_354_412)">
<path d="M73.7705 1.10962C65.9478 1.10962 59.6064 7.66599 59.6064 15.7539C59.6064 23.8418 65.9478 30.3982 73.7705 30.3982C81.5931 30.3982 87.9345 23.8418 87.9345 15.7539C87.9345 7.66599 81.5931 1.10962 73.7705 1.10962ZM79.532 13.1057C79.5379 13.2308 79.5393 13.3559 79.5393 13.4779C79.5393 17.2916 76.7346 21.6864 71.6031 21.6864C70.0868 21.689 68.602 21.2387 67.3273 20.3897C67.5442 20.4172 67.767 20.4279 67.9927 20.4279C69.2999 20.4279 70.5024 19.9687 71.457 19.1938C70.8753 19.182 70.3116 18.9828 69.8445 18.6241C69.3775 18.2653 69.0303 17.7648 68.8514 17.1924C69.2692 17.2745 69.6996 17.2573 70.1099 17.1421C69.4785 17.0101 68.9107 16.6563 68.5028 16.1409C68.0948 15.6254 67.8719 14.9799 67.8717 14.3139V14.2788C68.248 14.4939 68.6788 14.6251 69.1362 14.6403C68.5442 14.2329 68.1252 13.6071 67.9648 12.8909C67.8043 12.1746 67.9146 11.422 68.273 10.7871C68.9738 11.6779 69.8477 12.4067 70.8382 12.9262C71.8286 13.4457 72.9136 13.7444 74.0228 13.8029C73.8817 13.184 73.9424 12.5343 74.1954 11.9548C74.4484 11.3753 74.8794 10.8984 75.4216 10.5983C75.9637 10.2982 76.5865 10.1917 77.1933 10.2954C77.8 10.399 78.3566 10.707 78.7765 11.1715C79.4009 11.0438 79.9996 10.807 80.547 10.4713C80.339 11.1396 79.9033 11.7072 79.321 12.0684C79.874 11.9996 80.4141 11.8458 80.9233 11.6123C80.5492 12.1918 80.0781 12.6976 79.532 13.1057Z" fill="#28D1E8"/>
</g>
<path d="M75.2451 59.0735C67.4224 59.0735 61.0811 65.6299 61.0811 73.7178C61.0811 81.8057 67.4224 88.3621 75.2451 88.3621C83.0677 88.3621 89.4091 81.8057 89.4091 73.7178C89.4091 65.6299 83.0677 59.0735 75.2451 59.0735ZM71.7778 79.7875H68.9096V70.2443H71.7778V79.7875ZM70.326 69.0728C69.4201 69.0728 68.8344 68.4092 68.8344 67.5885C68.8344 66.7511 69.4378 66.1073 70.3629 66.1073C71.288 66.1073 71.8546 66.7511 71.8723 67.5885C71.8723 68.4092 71.288 69.0728 70.326 69.0728ZM82.2533 79.7875H79.3851V74.4988C79.3851 73.2678 78.969 72.4318 77.9318 72.4318C77.1395 72.4318 76.6688 72.9978 76.4608 73.5424C76.3841 73.7361 76.3649 74.0107 76.3649 74.2837V79.786H73.4952V73.2876C73.4952 72.0962 73.4583 71.1001 73.42 70.2428H75.912L76.0433 71.5684H76.1008C76.4785 70.946 77.4036 70.0277 78.9513 70.0277C80.8384 70.0277 82.2533 71.335 82.2533 74.1449V79.7875Z" fill="#2392E2"/>
<g clip-path="url(#clip1_354_412)">
<path d="M19.1801 75.2446C19.1801 76.4584 18.7138 77.6224 17.8837 78.4806C17.0536 79.3388 15.9278 79.821 14.7539 79.821C13.5799 79.821 12.4541 79.3388 11.624 78.4806C10.7939 77.6224 10.3276 76.4584 10.3276 75.2446C10.3276 74.9838 10.3542 74.729 10.3999 74.4819H8.85218V80.5791C8.85218 81.0032 9.18415 81.3464 9.59432 81.3464H19.9149C20.1114 81.346 20.2998 81.265 20.4387 81.1211C20.5775 80.9773 20.6555 80.7824 20.6555 80.5791V74.4819H19.1078C19.1535 74.729 19.1801 74.9838 19.1801 75.2446ZM14.7539 78.2955C15.1415 78.2954 15.5253 78.2164 15.8833 78.0629C16.2414 77.9095 16.5667 77.6846 16.8407 77.4012C17.1147 77.1177 17.3321 76.7813 17.4803 76.411C17.6285 76.0407 17.7048 75.6439 17.7047 75.2431C17.7046 74.8424 17.6282 74.4456 17.4797 74.0753C17.3313 73.7051 17.1138 73.3688 16.8397 73.0855C16.5655 72.8022 16.2401 72.5775 15.882 72.4242C15.5238 72.2709 15.14 72.1921 14.7524 72.1922C13.9696 72.1924 13.2189 72.5141 12.6655 73.0866C12.1121 73.659 11.8013 74.4353 11.8015 75.2446C11.8017 76.054 12.1129 76.8301 12.6666 77.4023C13.2202 77.9744 13.971 78.2957 14.7539 78.2955ZM18.2949 72.0412H20.0639C20.1814 72.0412 20.2941 71.993 20.3774 71.9073C20.4606 71.8215 20.5076 71.7051 20.508 71.5836V69.7546C20.508 69.6328 20.4612 69.516 20.3779 69.4299C20.2946 69.3438 20.1817 69.2954 20.0639 69.2954H18.2949C18.1771 69.2954 18.0641 69.3438 17.9808 69.4299C17.8975 69.516 17.8508 69.6328 17.8508 69.7546V71.5836C17.8522 71.8353 18.0514 72.0412 18.2949 72.0412ZM14.7539 60.6003C10.9973 60.6003 7.39465 62.1432 4.73839 64.8896C2.08212 67.6359 0.589844 71.3607 0.589844 75.2446C0.589844 79.1285 2.08212 82.8534 4.73839 85.5997C7.39465 88.3461 10.9973 89.8889 14.7539 89.8889C16.6139 89.8889 18.4557 89.5101 20.1742 88.7742C21.8926 88.0383 23.4541 86.9596 24.7693 85.5997C26.0846 84.2399 27.1279 82.6255 27.8397 80.8488C28.5515 79.072 28.9179 77.1678 28.9179 75.2446C28.9179 73.3215 28.5515 71.4172 27.8397 69.6405C27.1279 67.8638 26.0846 66.2494 24.7693 64.8896C23.4541 63.5297 21.8926 62.451 20.1742 61.7151C18.4557 60.9791 16.6139 60.6003 14.7539 60.6003ZM22.1309 81.1771C22.1309 82.1091 21.3932 82.8719 20.4918 82.8719H9.01595C8.11447 82.8719 7.37676 82.1091 7.37676 81.1771V69.3122C7.37676 68.3801 8.11447 67.6174 9.01595 67.6174H20.4918C21.3932 67.6174 22.1309 68.3801 22.1309 69.3122V81.1771Z" fill="#BD3FC8"/>
</g>
<g clip-path="url(#clip2_354_412)">
<path d="M56.9422 32.4488C56.5934 32.2155 56.1946 32.0744 55.7807 32.0378C55.3668 32.0013 54.9506 32.0704 54.5686 32.2391L42.0515 37.3358C41.7552 37.4605 41.4383 37.5246 41.1183 37.5246H33.105C32.4324 37.5246 31.7874 37.8008 31.3118 38.2925C30.8362 38.7842 30.5691 39.4511 30.5691 40.1464V40.3561H28.0332V46.6485H30.5691V46.9211C30.585 47.6055 30.8591 48.2563 31.333 48.7345C31.8069 49.2126 32.4428 49.4802 33.105 49.48L36.148 56.1498C36.3541 56.599 36.6785 56.9789 37.084 57.2461C37.4895 57.5132 37.9596 57.6567 38.4404 57.66H39.7185C40.3875 57.6545 41.0274 57.3758 41.4985 56.8847C41.9697 56.3936 42.2341 55.7299 42.2341 55.0382V49.7317L54.5686 54.8285C54.872 54.9533 55.1956 55.0173 55.5221 55.0172C56.0287 55.0088 56.522 54.8485 56.9422 54.5558C57.2758 54.3229 57.5511 54.0111 57.7451 53.6464C57.9391 53.2817 58.0464 52.8744 58.058 52.4584V34.6092C58.0561 34.1824 57.9535 33.7625 57.759 33.386C57.5646 33.0095 57.2842 32.6878 56.9422 32.4488ZM39.6982 40.1464V46.9211H33.105V40.1464H39.6982ZM39.6982 55.0382H38.4201L35.9248 49.48H39.6982V55.0382ZM42.9847 47.2357C42.7438 47.1085 42.4927 47.0032 42.2341 46.9211V39.9996C42.4902 39.945 42.7413 39.8678 42.9847 39.7689L55.5221 34.6092V52.3954L42.9847 47.2357ZM58.1188 40.8805V46.1241C58.7914 46.1241 59.4364 45.8479 59.9119 45.3562C60.3875 44.8645 60.6547 44.1976 60.6547 43.5023C60.6547 42.807 60.3875 42.1401 59.9119 41.6484C59.4364 41.1567 58.7914 40.8805 58.1188 40.8805Z" fill="#00D983"/>
</g>
<defs>
<clipPath id="clip0_354_412">
<rect width="29.5084" height="30.5094" fill="white" transform="translate(59.0166 0.58667)"/>
</clipPath>
<clipPath id="clip1_354_412">
<rect width="29.5084" height="30.5094" fill="white" transform="translate(0 60.0774)"/>
</clipPath>
<clipPath id="clip2_354_412">
<rect width="32.4592" height="33.5597" fill="white" transform="translate(28.0332 28.0439)"/>
</clipPath>
</defs>
</svg>
