<svg width="90" height="90" viewBox="0 0 90 90" fill="none" xmlns="http://www.w3.org/2000/svg">
<path d="M80.3493 25.6069C84.9481 34.0004 86.4074 43.7574 84.4656 53.1292C82.5237 62.5009 77.3078 70.8748 69.7525 76.7501C62.1972 82.6253 52.7965 85.6179 43.2352 85.1913C33.6739 84.7648 24.577 80.9471 17.5749 74.4224C10.5728 67.8978 6.1232 59.0927 5.0236 49.5852C3.924 40.0778 6.24627 30.4895 11.5742 22.5388C16.9022 14.588 24.8875 8.79467 34.099 6.19693C43.3105 3.59919 53.1461 4.3669 61.843 8.36248" stroke="#4ECB71" stroke-linecap="round" stroke-linejoin="round"/>
<path d="M67.2298 52.1738C67.2298 52.1738 72.9298 36.4875 62.3154 28.2863C56.9042 24.105 55.601 17.5481 58.3254 12.8288C60.0067 9.91671 62.776 7.79182 66.024 6.92154C69.272 6.05125 72.7327 6.50686 75.6448 8.18814C81.7085 11.6888 82.4679 19.3369 80.2854 25.5075C71.5798 43.8431 58.8373 74.0775 46.7192 72.0919C39.6129 70.9294 45.6073 45.5456 45.6073 45.5456C36.7985 71.5725 22.3535 78.3506 18.2079 75.1219C14.0623 71.8931 15.1985 61.9388 20.3435 52.2094C23.593 45.5215 25.5148 38.267 26.0023 30.8475" stroke="#B1123A" stroke-linecap="round" stroke-linejoin="round"/>
</svg>
