<svg width="20" height="10" viewBox="0 0 20 10" fill="none" xmlns="http://www.w3.org/2000/svg">
    <path d="M15 6a1 1 0 1 0 0-2v2zM1 4a1 1 0 1 0 0 2V4zm14 0H1v2h14V4z" fill="#00D983"/>
    <mask id="godvkzfiia" fill="#fff">
        <path d="m19.715 5.203-5.45 3.893A.8.8 0 0 1 13 8.446V1.554a.8.8 0 0 1 1.265-.651l5.45 3.893c.14.1.14.307 0 .406z"/>
    </mask>
    <path d="m19.715 5.203-5.45 3.893A.8.8 0 0 1 13 8.446V1.554a.8.8 0 0 1 1.265-.651l5.45 3.893c.14.1.14.307 0 .406z" fill="#00D983"/>
    <path d="m14.265 9.096 1.162 1.628-1.162-1.628zm5.45-3.893 1.163 1.628-1.163-1.628zm0-.406 1.163-1.628-1.163 1.628zM14.265.904l1.162-1.628L14.265.904zm1.162 9.82 5.45-3.893-2.324-3.255-5.45 3.893 2.325 3.255zm5.45-7.555-5.45-3.893-2.325 3.255 5.45 3.893 2.326-3.255zM15 8.445v-6.89h-4v6.89h4zm.428-9.169C13.573-2.048 11-.723 11 1.555h4a1.2 1.2 0 0 1-1.898.976l2.325-3.255zm5.45 7.555a2.25 2.25 0 0 0 0-3.662l-2.325 3.255a1.75 1.75 0 0 1 0-2.848l2.325 3.255zm-7.776.638A1.2 1.2 0 0 1 15 8.445h-4c0 2.278 2.574 3.603 4.428 2.279l-2.326-3.255z" fill="#00D983" mask="url(#godvkzfiia)"/>
</svg>
