<svg width="676" height="495" viewBox="0 0 676 495" fill="none" xmlns="http://www.w3.org/2000/svg">
    <g clip-path="url(#hfi9h5u5oa)">
        <path d="M551.898 149.228c0-6.224 3.268-9.941 7.798-9.941s7.814 3.717 7.814 9.941-3.302 9.941-7.814 9.941c-4.513 0-7.798-3.752-7.798-9.941zm13.538 0c0-5.187-2.334-8.091-5.74-8.091s-5.757 2.904-5.757 8.091c0 5.186 2.351 8.056 5.809 8.056 3.457 0 5.688-2.87 5.688-8.056zM570.381 149.228c0-6.224 3.267-9.941 7.797-9.941 4.53 0 7.815 3.717 7.815 9.941s-3.285 9.941-7.815 9.941-7.797-3.752-7.797-9.941zm13.571 0c0-5.187-2.351-8.091-5.757-8.091-3.406 0-5.774 2.904-5.774 8.091 0 5.186 2.351 8.108 5.757 8.108 3.406 0 5.774-2.922 5.774-8.108zM594.222 139.408v19.554h-2.005v-17.774h-4.616v-1.728l6.621-.052zM598.891 149.228c0-6.224 3.267-9.941 7.797-9.941 4.53 0 7.815 3.717 7.815 9.941s-3.285 9.941-7.815 9.941-7.797-3.752-7.797-9.941zm13.554 0c0-5.187-2.351-8.091-5.757-8.091-3.406 0-5.757 2.904-5.757 8.091 0 5.186 2.351 8.108 5.757 8.108 3.406 0 5.757-2.922 5.757-8.108zM622.749 139.408v19.554h-2.023v-17.774h-4.599v-1.728l6.622-.052zM532.639 176.89c0-6.241 3.285-9.941 7.797-9.941s7.832 3.7 7.832 9.941c0 6.241-3.302 9.941-7.832 9.941-4.53 0-7.797-3.682-7.797-9.941zm13.554 0c0-5.187-2.334-8.108-5.757-8.108-3.423 0-5.757 2.921-5.757 8.108 0 5.187 2.351 8.091 5.757 8.091 3.406 0 5.757-2.904 5.757-8.091zM551.104 176.89c0-6.241 3.267-9.941 7.797-9.941 4.53 0 7.814 3.7 7.814 9.941 0 6.241-3.302 9.941-7.814 9.941-4.513 0-7.797-3.682-7.797-9.941zm13.554 0c0-5.187-2.351-8.108-5.757-8.108-3.406 0-5.723 2.921-5.723 8.108 0 5.187 2.334 8.091 5.757 8.091 3.424 0 5.758-2.904 5.758-8.091h-.035zM574.98 167.139v19.554h-2.006v-17.756h-4.581v-1.729l6.587-.069zM579.647 176.89c0-6.241 3.268-9.941 7.798-9.941 4.529 0 7.814 3.7 7.814 9.941 0 6.241-3.285 9.941-7.814 9.941-4.53 0-7.798-3.682-7.798-9.941zm13.555 0c0-5.187-2.351-8.108-5.757-8.108-3.406 0-5.757 2.921-5.757 8.108 0 5.187 2.351 8.091 5.757 8.091 3.406 0 5.757-2.904 5.757-8.091zM603.489 167.139v19.554h-2.006v-17.756h-4.616v-1.729l6.622-.069zM613.585 167.139v19.554h-1.97v-17.756h-4.599v-1.729l6.569-.069zM618.236 176.89c0-6.241 3.268-9.941 7.798-9.941 4.529 0 7.814 3.7 7.814 9.941 0 6.241-3.285 9.941-7.814 9.941-4.53 0-7.798-3.682-7.798-9.941zm13.555 0c0-5.187-2.351-8.108-5.757-8.108-3.406 0-5.775 2.921-5.775 8.108 0 5.187 2.351 8.091 5.757 8.091 3.406 0 5.775-2.904 5.775-8.091zM642.095 167.139v19.554h-2.022v-17.756h-4.599v-1.729l6.621-.069zM551.898 203.74c0-6.224 3.268-9.941 7.798-9.941s7.814 3.717 7.814 9.941-3.284 9.958-7.814 9.958-7.798-3.717-7.798-9.958zm13.555 0c0-5.187-2.351-8.091-5.757-8.091-3.406 0-5.757 2.87-5.757 8.091 0 5.221 2.351 8.109 5.757 8.109 3.406 0 5.757-2.87 5.757-8.109zM575.741 193.971v19.554h-2.006v-17.773h-4.616v-1.729l6.622-.052zM585.837 193.971v19.554h-2.023v-17.773h-4.599v-1.729l6.622-.052zM595.917 193.971v19.554h-2.023v-17.773h-4.599v-1.729l6.622-.052zM600.567 203.74c0-6.224 3.268-9.941 7.798-9.941 4.529 0 7.814 3.717 7.814 9.941s-3.285 9.958-7.814 9.958c-4.53 0-7.798-3.717-7.798-9.958zm13.555 0c0-5.187-2.351-8.091-5.757-8.091-3.406 0-5.757 2.87-5.757 8.091 0 5.221 2.351 8.109 5.757 8.109 3.406 0 5.757-2.87 5.757-8.109zM624.425 193.971v19.554h-2.022v-17.773h-4.599v-1.729l6.621-.052z" fill="#455A64"/>
        <path d="M111.202 356.212c0 .155-22.268.276-49.74.276-27.473 0-49.776-.121-49.776-.276 0-.156 22.269-.294 49.741-.294s49.775.138 49.775.294zM111.202 365.029c0 .155-22.268.276-49.74.276-27.473 0-49.776-.121-49.776-.276 0-.156 22.269-.294 49.741-.294s49.775.138 49.775.294zM75.76 373.846a3.137 3.137 0 0 1-.658 0h-1.85l-6.915.087-22.649.086-22.597-.034-6.915-.087h-1.85a3.278 3.278 0 0 1-.657 0h9.422l22.65-.086 22.648.086h8.765l.605-.052zM120.435 396.823c0-.224.708-.415 1.59-.415.882 0 1.591.191 1.591.415 0 .225-.709.415-1.591.415s-1.59-.173-1.59-.415zM114.037 396.823c0-.224.709-.415 1.591-.415.881 0 1.608.191 1.608.415 0 .225-.727.415-1.608.415-.882 0-1.591-.173-1.591-.415zM107.641 396.823c0-.224.726-.415 1.607-.415.882 0 1.591.191 1.591.415 0 .225-.709.415-1.591.415-.881 0-1.607-.173-1.607-.415zM101.261 396.823c0-.224.709-.415 1.59-.415.882 0 1.608.191 1.608.415 0 .225-.726.415-1.608.415-.881 0-1.59-.173-1.59-.415zM94.864 396.823c0-.224.726-.415 1.608-.415.882 0 1.59.191 1.59.415 0 .225-.708.415-1.59.415-.882 0-1.608-.173-1.608-.415zM88.484 396.823c0-.224.71-.415 1.591-.415.882 0 1.59.191 1.59.415 0 .225-.708.415-1.59.415-.882 0-1.59-.173-1.59-.415zM82.088 396.823c0-.224.709-.415 1.59-.415.882 0 1.608.191 1.608.415 0 .225-.709.415-1.608.415-.899 0-1.59-.173-1.59-.415zM75.656 396.823c0-.224.726-.415 1.608-.415.882 0 1.59.191 1.59.415 0 .225-.708.415-1.59.415-.882 0-1.608-.173-1.608-.415zM69.31 396.823c0-.224.71-.415 1.591-.415.882 0 1.608.191 1.608.415 0 .225-.726.415-1.608.415-.882 0-1.59-.173-1.59-.415zM62.914 396.823c0-.224.726-.415 1.608-.415.882 0 1.59.191 1.59.415 0 .225-.708.415-1.59.415-.882 0-1.608-.173-1.608-.415zM56.534 396.823c0-.224.709-.415 1.59-.415.883 0 1.609.191 1.609.415 0 .225-.726.415-1.608.415-.882 0-1.59-.173-1.59-.415zM50.138 396.823c0-.224.726-.415 1.608-.415.881 0 1.59.191 1.59.415 0 .225-.709.415-1.59.415-.882 0-1.608-.173-1.608-.415zM43.758 396.823c0-.224.709-.415 1.59-.415.882 0 1.591.191 1.591.415 0 .225-.709.415-1.59.415-.882 0-1.591-.173-1.591-.415zM37.36 396.823c0-.224.71-.415 1.59-.415.883 0 1.609.191 1.609.415 0 .225-.726.415-1.608.415-.882 0-1.59-.173-1.59-.415zM30.964 396.823c0-.224.726-.415 1.608-.415.881 0 1.59.191 1.59.415 0 .225-.709.415-1.59.415-.882 0-1.608-.173-1.608-.415zM24.584 396.823c0-.224.709-.415 1.59-.415.882 0 1.608.191 1.608.415 0 .225-.726.415-1.607.415-.882 0-1.591-.173-1.591-.415zM18.188 396.823c0-.224.726-.415 1.607-.415.882 0 1.591.191 1.591.415 0 .225-.709.415-1.59.415-.882 0-1.608-.173-1.608-.415zM11.808 396.823c0-.224.709-.415 1.59-.415.882 0 1.59.191 1.59.415 0 .225-.708.415-1.59.415-.881 0-1.59-.173-1.59-.415zM5.411 396.823c0-.224.709-.415 1.59-.415.882 0 1.609.191 1.609.415 0 .225-.727.415-1.608.415-.882 0-1.59-.173-1.59-.415zM-.986 396.823c0-.224.726-.415 1.608-.415.881 0 1.59.191 1.59.415 0 .225-.709.415-1.59.415-.882 0-1.608-.173-1.608-.415zM3.319 325.022c0 .225-.709.415-1.59.415-.882 0-1.591-.19-1.591-.415 0-.224.709-.415 1.59-.415.882 0 1.59.191 1.59.415zM9.715 325.022c0 .225-.709.415-1.59.415-.882 0-1.608-.19-1.608-.415 0-.224.726-.415 1.607-.415.882 0 1.591.191 1.591.415zM16.113 325.022c0 .225-.727.415-1.608.415-.882 0-1.59-.19-1.59-.415 0-.224.708-.415 1.59-.415.881 0 1.607.191 1.607.415zM22.492 325.022c0 .225-.708.415-1.59.415-.882 0-1.608-.19-1.608-.415 0-.224.726-.415 1.608-.415.882 0 1.59.191 1.59.415zM28.976 325.022c0 .225-.726.415-1.608.415-.882 0-1.59-.19-1.59-.415 0-.224.708-.415 1.59-.415.882 0 1.608.191 1.608.415zM35.269 325.022c0 .225-.71.415-1.59.415-.883 0-1.609-.19-1.609-.415 0-.224.727-.415 1.608-.415.882 0 1.59.191 1.59.415zM41.665 325.022c0 .225-.726.415-1.608.415-.881 0-1.59-.19-1.59-.415 0-.224.709-.415 1.59-.415.882 0 1.608.191 1.608.415zM47.994 325.022c0 .225-.71.415-1.59.415-.883 0-1.592-.19-1.592-.415 0-.224.71-.415 1.591-.415.882 0 1.59.191 1.59.415zM54.443 325.022c0 .225-.71.415-1.591.415-.882 0-1.608-.19-1.608-.415 0-.224.726-.415 1.608-.415.882 0 1.59.191 1.59.415zM60.84 325.022c0 .225-.727.415-1.609.415s-1.59-.19-1.59-.415c0-.224.709-.415 1.59-.415.882 0 1.608.191 1.608.415zM67.219 325.022c0 .225-.709.415-1.59.415-.882 0-1.609-.19-1.609-.415 0-.224.727-.415 1.608-.415.882 0 1.591.191 1.591.415zM73.616 325.022c0 .225-.726.415-1.607.415-.882 0-1.591-.19-1.591-.415 0-.224.709-.415 1.59-.415.882 0 1.608.191 1.608.415zM79.996 325.022c0 .225-.71.415-1.591.415-.882 0-1.59-.19-1.59-.415 0-.224.708-.415 1.59-.415.882 0 1.59.191 1.59.415zM86.392 325.022c0 .225-.709.415-1.59.415-.883 0-1.609-.19-1.609-.415 0-.224.727-.415 1.608-.415.882 0 1.59.191 1.59.415zM92.79 325.022c0 .225-.727.415-1.609.415-.881 0-1.59-.19-1.59-.415 0-.224.709-.415 1.59-.415.882 0 1.608.191 1.608.415zM99.17 325.022c0 .225-.71.415-1.591.415-.882 0-1.608-.19-1.608-.415 0-.224.726-.415 1.608-.415.881 0 1.59.191 1.59.415zM105.566 325.022c0 .225-.726.415-1.608.415-.882 0-1.591-.19-1.591-.415 0-.224.709-.415 1.591-.415s1.608.191 1.608.415zM111.962 325.022c0 .225-.708.415-1.59.415-.882 0-1.591-.19-1.591-.415 0-.224.709-.415 1.591-.415s1.59.191 1.59.415zM118.343 325.022c0 .225-.709.415-1.608.415-.899 0-1.59-.19-1.59-.415 0-.224.708-.415 1.59-.415.882 0 1.608.191 1.608.415zM123.616 326.129c-.173 0-.329-.467-.398-1.107l.398.398h-.484c-.882 0-1.591-.19-1.591-.415 0-.225.709-.415 1.591-.415H124.048v.363c-.087.709-.242 1.176-.432 1.176zM123.615 332.491c-.225 0-.415-.726-.415-1.608 0-.882.19-1.591.415-1.591.225 0 .415.709.415 1.591s-.173 1.608-.415 1.608zM123.615 338.905c-.225 0-.415-.709-.415-1.59 0-.882.19-1.608.415-1.608.225 0 .415.726.415 1.608 0 .881-.173 1.59-.415 1.59zM123.615 345.302c-.225 0-.415-.726-.415-1.608 0-.881.19-1.59.415-1.59.225 0 .415.709.415 1.59 0 .882-.173 1.608-.415 1.608zM123.615 351.682c-.225 0-.415-.709-.415-1.591 0-.881.19-1.59.415-1.59.225 0 .415.709.415 1.59 0 .882-.173 1.591-.415 1.591zM123.615 358.079c-.225 0-.415-.709-.415-1.608 0-.899.19-1.591.415-1.591.225 0 .415.709.415 1.591 0 .881-.173 1.608-.415 1.608zM123.615 364.458c-.225 0-.415-.709-.415-1.59 0-.882.19-1.591.415-1.591.225 0 .415.709.415 1.591 0 .881-.173 1.59-.415 1.59zM123.615 370.855c-.225 0-.415-.709-.415-1.59 0-.882.19-1.608.415-1.608.225 0 .415.726.415 1.608 0 .881-.173 1.59-.415 1.59zM123.615 377.252c-.225 0-.415-.726-.415-1.608 0-.881.19-1.59.415-1.59.225 0 .415.709.415 1.59 0 .882-.173 1.608-.415 1.608zM123.615 383.632c-.225 0-.415-.709-.415-1.591 0-.881.19-1.607.415-1.607.225 0 .415.726.415 1.607 0 .882-.173 1.591-.415 1.591zM123.615 390.029c-.225 0-.415-.726-.415-1.608 0-.882.19-1.591.415-1.591.225 0 .415.709.415 1.591s-.173 1.608-.415 1.608zM123.615 396.46c-.225 0-.415-.709-.415-1.59 0-.882.19-1.591.415-1.591.225 0 .415.709.415 1.591 0 .881-.173 1.59-.415 1.59zM3.664 384.203c0-.225.709-.415 1.59-.415l-.414.415v-.605a3.328 3.328 0 0 1 0-.502c0-.294.173-.484.294-.484.12 0 .224.19.294.484a3.33 3.33 0 0 1 0 .502v.605l-.415.415c-.64 0-1.349-.26-1.349-.415zM-2.317 384.203c0-.225.674-.415 1.504-.415s1.487.19 1.487.415c0 .224-.675.414-1.487.414-.813 0-1.504-.259-1.504-.414zM.674 339.199c0 .225-.675.415-1.487.415-.813 0-1.504-.19-1.504-.415 0-.225.674-.415 1.504-.415s1.487.19 1.487.415zM5.255 340.807c-.225 0-.415-.726-.415-1.608.83.83.224.242.415.415H4.13c-.294 0-.467-.173-.467-.294s.173-.207.467-.294l.501-.086h.623l.415.415c0 .726-.19 1.452-.415 1.452zM5.255 347.238c-.225 0-.415-.726-.415-1.607 0-.882.19-1.608.415-1.608.225 0 .415.709.415 1.608 0 .899-.19 1.607-.415 1.607zM5.255 353.67c-.225 0-.415-.726-.415-1.608 0-.882.19-1.608.415-1.608.225 0 .415.709.415 1.608 0 .899-.19 1.608-.415 1.608zM5.255 360.153c-.225 0-.415-.726-.415-1.608 0-.881.19-1.607.415-1.607.225 0 .415.708.415 1.607s-.19 1.608-.415 1.608zM5.255 366.533c-.225 0-.415-.726-.415-1.608 0-.881.19-1.607.415-1.607.225 0 .415.708.415 1.607 0 .9-.19 1.608-.415 1.608zM5.255 372.947c-.225 0-.415-.708-.415-1.607s.19-1.608.415-1.608c.225 0 .415.726.415 1.608 0 .881-.19 1.607-.415 1.607zM5.255 379.379c-.225 0-.415-.709-.415-1.608 0-.899.19-1.608.415-1.608.225 0 .415.726.415 1.608 0 .882-.19 1.608-.415 1.608z" fill="#E0E0E0"/>
        <path d="M6.396 338.058H4.114v2.282h2.282v-2.282zM6.396 381.92H4.114v2.282h2.282v-2.282zM5.255 360.551H2.973v2.282h2.282v-2.282z" fill="#E0E0E0"/>
        <path d="M281.646 187.9V163.609c0-15.387-.104-37.344-.173-63.831l.311.311H173.763l.38-.38v88.035l-.346-.345 78.026.173H281.318 252.03l-78.233.172h-.328V99H282.182v.311c0 26.573-.121 48.6-.156 63.97 0 7.659 0 13.658-.086 17.79v4.651c0 1.072-.294 2.178-.294 2.178z" fill="#455A64"/>
        <path d="M282.475 112.918c0 .225-24.377.38-54.46.38-30.083 0-54.46-.155-54.46-.38s24.377-.363 54.46-.363c30.083 0 54.46.155 54.46.363zM182.407 106.503a1.453 1.453 0 0 1-2.479 1.027 1.453 1.453 0 0 1 2.054-2.054c.272.273.425.642.425 1.027zM187.715 106.503a1.46 1.46 0 0 1-.908 1.33 1.455 1.455 0 0 1-1.97-1.07 1.455 1.455 0 0 1 1.426-1.729 1.469 1.469 0 0 1 1.452 1.469zM193.023 106.503a1.467 1.467 0 0 1-1.756 1.442 1.473 1.473 0 0 1-1.155-1.155 1.477 1.477 0 0 1 .625-1.509 1.474 1.474 0 0 1 1.856.183c.275.276.43.65.43 1.039z" fill="#455A64"/>
        <path d="M167.942 361H58.052v88.174h109.89V361z" fill="#3FD298"/>
        <path d="M168.909 374.088c0 .294-14.091.536-48.53.536-34.44 0-62.379-.242-62.379-.536 0-.294 27.922-.554 62.379-.554 34.457 0 48.53.242 48.53.554z" fill="#FAFAFA"/>
        <path d="M68.15 367.725a1.727 1.727 0 0 1-1.88 1.98 1.727 1.727 0 0 1-1.456-2.308 1.73 1.73 0 0 1 1.606-1.142 1.58 1.58 0 0 1 1.178.367 1.577 1.577 0 0 1 .551 1.103zM74.235 367.725a1.588 1.588 0 0 1-1.73 1.452 1.48 1.48 0 0 1-1.14-.367 1.465 1.465 0 0 1-.36-1.693 1.475 1.475 0 0 1 .891-.8 1.48 1.48 0 0 1 .61-.062 1.587 1.587 0 0 1 1.729 1.47zM80.303 367.725a1.727 1.727 0 0 1-1.878 1.98 1.727 1.727 0 0 1-1.457-2.308 1.73 1.73 0 0 1 1.607-1.142 1.58 1.58 0 0 1 1.177.367 1.574 1.574 0 0 1 .552 1.103z" fill="#fff"/>
        <path d="M357.915 100h.567l1.658.056h1.223l1.457.211 1.701.245 1.902.478c1.49.381 2.95.868 4.371 1.457l2.391 1.112c.823.4 1.613.945 2.458 1.435a32.57 32.57 0 0 1 14.992 24.467c.128 1.479.161 2.965.1 4.448 0 .757 0 1.524-.134 2.225-.133.7-.233 1.523-.345 2.302a32.262 32.262 0 0 1-3.058 9.075 32.518 32.518 0 0 1-14.38 14.358c-.812.378-1.602.811-2.447 1.112l-2.558.945c-.878.245-1.768.456-2.647.69-.898.209-1.808.369-2.724.478-.456.067-.912.167-1.379.189l-1.391.067c-.932.076-1.867.102-2.802.077a32.09 32.09 0 0 1-5.628-.667 32.688 32.688 0 0 1-9.097-3.336h.267l-10.955 5.216-.5.233.1-.545 2.291-12.089.067.234a32.742 32.742 0 0 1-7.785-28.304 32.091 32.091 0 0 1 4.893-11.822 32.933 32.933 0 0 1 7.563-7.963 35.537 35.537 0 0 1 3.97-2.603c.656-.356 1.323-.634 1.957-.945.599-.32 1.224-.588 1.869-.801a25.706 25.706 0 0 1 3.459-1.112 20.705 20.705 0 0 1 3.002-.456c.901-.122 1.702-.267 2.391-.334l1.747-.066h1.468a1.924 1.924 0 0 1-.356 0l-1.112.078-1.747.111c-.689.078-1.479.233-2.368.367-.993.155-1.974.378-2.936.667-1.165.296-2.31.667-3.426 1.112-.63.226-1.244.497-1.835.812-.623.311-1.29.601-1.935.968a34.62 34.62 0 0 0-3.915 2.602 32.87 32.87 0 0 0-7.429 7.907 32.038 32.038 0 0 0-4.771 11.689 32.344 32.344 0 0 0 7.696 27.804l.089.1v.133c-.741 3.9-1.483 7.93-2.224 12.089l-.401-.3 10.955-5.227.133-.067.123.078a32.406 32.406 0 0 0 8.897 3.27c1.831.38 3.691.6 5.561.656.923 0 1.846 0 2.758-.067l1.368-.078c.456 0 .901-.122 1.357-.178.897-.11 1.787-.266 2.669-.467.878-.233 1.746-.445 2.613-.689l2.514-.912c.823-.323 1.601-.756 2.402-1.112a33.976 33.976 0 0 0 8.352-6.073 33.296 33.296 0 0 0 5.806-8.029 31.962 31.962 0 0 0 3.036-8.898c.111-.767.233-1.512.344-2.224.112-.712.089-1.512.145-2.224a33.899 33.899 0 0 0-.089-4.393 32.416 32.416 0 0 0-14.68-24.211c-.846-.49-1.624-1.035-2.436-1.435l-2.346-1.112a36.529 36.529 0 0 0-4.327-1.491l-1.89-.489-1.746-.367-1.457-.233c-.445 0-.846-.056-1.213-.089l-1.646-.112a5.39 5.39 0 0 1-.567-.033z" fill="#455A64"/>
        <path d="M366.478 141.216a.27.27 0 0 1-.189-.1c-.211-.222-.078-.367.578-1.034l1.668-1.68a445.448 445.448 0 0 1 5.305-5.138 429.559 429.559 0 0 1-5.282-4.982l-1.68-1.646c-.667-.667-.8-.801-.589-1.023.211-.223.367-.089 1.112.511l1.757 1.546a430.207 430.207 0 0 1 5.728 5.25l.155.133a.277.277 0 0 1 .089.2c0 .08-.032.156-.089.212l-.144.144a589.678 589.678 0 0 1-5.739 5.394l-1.757 1.579c-.545.445-.712.634-.923.634zM349.363 141.216c-.167 0-.378-.189-.879-.612l-1.813-1.557c-1.557-1.39-3.581-3.258-5.727-5.238l-.145-.144a.269.269 0 0 1-.067-.09.265.265 0 0 1-.022-.111.266.266 0 0 1 .078-.2l.156-.144c2.224-2.091 4.215-3.993 5.738-5.394l1.758-1.591c.7-.622.856-.745 1.112-.522.256.222.066.356-.579 1.034l-1.668 1.679a436.093 436.093 0 0 1-5.305 5.127 437.505 437.505 0 0 1 5.283 4.983l1.679 1.646c.656.667.801.812.59 1.034a.269.269 0 0 1-.189.1zM353.789 144.786a.303.303 0 0 1-.134 0c-.322-.111-.445-.167 3.848-11.644 4.171-11.121 4.449-11.277 4.527-11.322a.285.285 0 0 1 .211 0c.322.123.445.167-3.848 11.656-1.112 3.002-2.224 5.816-3.025 7.929-1.168 2.914-1.357 3.381-1.579 3.381z" fill="#138457"/>
        <path d="M515.212 371.627a2.225 2.225 0 0 1-.553 0H462.118c-.184.023-.37.023-.554 0h53.648zM184.721 266.126a5.706 5.706 0 0 1 0-.692v-9.094c0-6.189-.104-14.972-.173-25.536l.329.346h-44.07c-.086 0 .761-.761.398-.398v35.287l-.363-.363 31.742.173 9.042.104H184.911h-3.129l-8.973.086-31.967.173h-.363V230.579c-.363.346.484-.501.397-.415h44.398v.329c0 10.65-.121 19.502-.172 25.761v8.955c-.09.32-.217.628-.381.917z" fill="#00D983"/>
        <path d="M179.085 253.245a24.334 24.334 0 0 1-2.749-2.403c-1.729-1.556-4.08-3.821-6.915-6.518h.518l-6.915 8.005-.277.311-.259.294-.294-.242-4.322-3.579h.501c-3.804 3.458-7.14 6.328-9.526 8.385l-2.818 2.386a4.786 4.786 0 0 1-1.09.795c.256-.366.559-.697.899-.985l2.68-2.559c2.3-2.161 5.55-5.187 9.336-8.645l.242-.224.26.207 4.339 3.562h-.553l.294-.329 7.054-7.935.242-.277.277.259a537.645 537.645 0 0 1 6.69 6.743c.87.849 1.668 1.768 2.386 2.749zM155.987 241.108s-.242-.259-.692-.657a3.887 3.887 0 0 0-2.23-.985 3.7 3.7 0 0 0-3.164 1.314 3.542 3.542 0 0 0-.342 4.033 3.541 3.541 0 0 0 3.662 1.724 3.66 3.66 0 0 0 2.731-2.075 3.909 3.909 0 0 0 .26-2.42 6.228 6.228 0 0 1-.225-.934s.294.242.519.848c.332.874.332 1.84 0 2.714a4.115 4.115 0 0 1-3.112 2.593 4.255 4.255 0 0 1-4.445-2.042 4.251 4.251 0 0 1 .416-4.873 4.173 4.173 0 0 1 3.804-1.401 3.893 3.893 0 0 1 2.386 1.314c.38.484.466.83.432.847zM135.534 256.496s-.26-.26-.692-.657a3.942 3.942 0 0 0-2.23-.986 3.7 3.7 0 0 0-3.164 1.314 3.548 3.548 0 0 0-.362 4.049 3.545 3.545 0 0 0 3.682 1.726 3.672 3.672 0 0 0 2.714-2.092 3.93 3.93 0 0 0 .277-2.421c-.121-.588-.294-.899-.225-.933.069-.035.294.242.518.847a3.88 3.88 0 0 1 0 2.731 4.123 4.123 0 0 1-3.112 2.576 4.252 4.252 0 0 1-4.011-6.915 4.173 4.173 0 0 1 3.804-1.401c.931.14 1.779.613 2.386 1.332.346.467.449.812.415.83z" fill="#00D983"/>
        <path d="M162.695 267.681c.023.247.023.496 0 .743v2.179c0 2.005 0 4.772.121 8.212v.242h-.242c-9.111 0-23.444.139-39.523.139h-2.42v-.398c0-12.535 0-23.894.104-32.452v-.294h.293l11.826.122 3.216.086a4.316 4.316 0 0 1 1.124 0c-.374.03-.75.03-1.124 0l-3.216.086-11.826.121.294-.276c0 8.644 0 19.917.104 32.451l-.398-.397h2.023c16.079 0 30.412 0 39.523.155l-.259.242c0-3.458.086-6.206.121-8.212v-2.178c.059-.202.146-.394.259-.571z" fill="#00D983"/>
        <path d="M138.3 263.947a63.54 63.54 0 0 1-6.379 6.051 62.877 62.877 0 0 1-6.674 5.706 39.49 39.49 0 0 1 6.138-6.311 39.843 39.843 0 0 1 6.915-5.446zM147.187 272.817c-.138.156-1.331-.605-2.472-1.902s-1.729-2.576-1.591-2.68c.139-.103 1.072.917 2.179 2.161 1.106 1.245 2.04 2.248 1.884 2.421z" fill="#00D983"/>
        <path d="M198.933 298.266v-24.343c0-15.56-.104-38.036-.173-65.456l.311.311H48.519l.397-.398v89.799l-.363-.363 108.281.173 31.12.104h11.186H188.127l-31.206.294-108.523.19H48V208h151.279v.484c0 27.559-.121 50.034-.173 65.698V296.779c0 1.072-.173 1.487-.173 1.487z" fill="#00D983"/>
        <path d="M106.437 229.491H60.569v3.354h45.868v-3.354zM104.57 246.071c0 .207-9.993.397-22.337.397-12.345 0-22.355-.19-22.355-.397 0-.208 10.01-.398 22.355-.398 12.344 0 22.337.173 22.337.398zM104.57 253.435c0 .225-9.993.398-22.337.398-12.345 0-22.355-.173-22.355-.398 0-.224 10.01-.397 22.355-.397 12.344 0 22.337.242 22.337.397zM104.57 260.922c0 .224-9.993.397-22.337.397-12.345 0-22.355-.173-22.355-.397 0-.225 10.01-.398 22.355-.398 12.344 0 22.337.173 22.337.398zM104.57 268.357c0 .224-9.993.397-22.337.397-12.345 0-22.355-.173-22.355-.397 0-.225 10.01-.398 22.355-.398 12.344 0 22.337.173 22.337.398zM80.002 275.634c-3.338.4-6.703.533-10.062.398-3.36.135-6.724.002-10.062-.398a63.35 63.35 0 0 1 10.062-.397 63.35 63.35 0 0 1 10.062.397z" fill="#00D983"/>
        <path d="M439.521 433.764c0 .139-19.554.242-43.673.242-24.118 0-43.689-.103-43.689-.242 0-.138 19.554-.259 43.689-.259 24.136 0 43.673.121 43.673.259zM439.521 441.51c0 .138-19.554.242-43.673.242-24.118 0-43.689-.104-43.689-.242 0-.139 19.554-.26 43.689-.26 24.136 0 43.673.104 43.673.26zM408.401 449.238h-2.213l-6.034.086h-39.747l-6.034-.086h-2.3a2.1 2.1 0 0 1 .571 0h1.729l6.034-.087h39.747l6.034.087h1.642a2.1 2.1 0 0 1 .571 0zM447.612 469.431c0-.207.64-.363 1.401-.363.76 0 1.417.156 1.417.363 0 .208-.639.364-1.417.364s-1.401-.173-1.401-.364zM442.011 469.431c0-.207.622-.363 1.4-.363.778 0 1.401.156 1.401.363 0 .208-.623.364-1.401.364s-1.4-.173-1.4-.364zM436.392 469.431c0-.207.639-.363 1.4-.363.761 0 1.4.156 1.4.363 0 .208-.622.364-1.4.364-.778 0-1.4-.173-1.4-.364zM430.79 469.431c0-.207.622-.363 1.4-.363.778 0 1.401.156 1.401.363 0 .208-.623.364-1.401.364s-1.4-.173-1.4-.364zM425.171 469.431c0-.207.622-.363 1.4-.363.778 0 1.401.156 1.401.363 0 .208-.623.364-1.401.364s-1.4-.173-1.4-.364zM419.569 469.431c0-.207.623-.363 1.401-.363s1.4.156 1.4.363c0 .208-.622.364-1.4.364-.778 0-1.401-.173-1.401-.364zM413.95 469.431c0-.207.623-.363 1.401-.363s1.4.156 1.4.363c0 .208-.622.364-1.4.364-.778 0-1.401-.173-1.401-.364zM408.349 469.431c0-.207.622-.363 1.4-.363.778 0 1.4.156 1.4.363 0 .208-.622.364-1.4.364-.778 0-1.4-.173-1.4-.364zM402.729 469.431c0-.207.623-.363 1.401-.363s1.4.156 1.4.363c0 .208-.622.364-1.4.364-.778 0-1.401-.173-1.401-.364zM397.129 469.431c0-.207.622-.363 1.4-.363.778 0 1.401.156 1.401.363 0 .208-.64.364-1.401.364-.76 0-1.4-.173-1.4-.364zM391.51 469.431c0-.207.622-.363 1.4-.363.778 0 1.401.156 1.401.363 0 .208-.623.364-1.401.364s-1.4-.173-1.4-.364zM385.891 469.431c0-.207.639-.363 1.417-.363s1.401.156 1.401.363c0 .208-.64.364-1.401.364-.76 0-1.417-.173-1.417-.364zM380.358 469.431c0-.207.623-.363 1.401-.363s1.4.156 1.4.363c0 .208-.622.364-1.4.364-.778 0-1.401-.173-1.401-.364zM374.67 469.431c0-.207.64-.363 1.418-.363.778 0 1.4.156 1.4.363 0 .208-.64.364-1.4.364-.761 0-1.418-.173-1.418-.364zM369.068 469.431c0-.207.623-.363 1.401-.363s1.4.156 1.4.363c0 .208-.622.364-1.4.364-.778 0-1.401-.173-1.401-.364zM363.449 469.431c0-.207.64-.363 1.418-.363.778 0 1.4.156 1.4.363 0 .208-.639.364-1.4.364-.761 0-1.418-.173-1.418-.364zM357.883 469.431c0-.207.622-.363 1.4-.363.778 0 1.401.156 1.401.363 0 .208-.623.364-1.401.364s-1.4-.173-1.4-.364zM352.229 469.431c0-.207.639-.363 1.4-.363.761 0 1.418.156 1.418.363 0 .208-.64.364-1.418.364-.778 0-1.4-.173-1.4-.364zM346.627 469.431c0-.207.622-.363 1.4-.363.778 0 1.401.156 1.401.363 0 .208-.623.364-1.401.364s-1.4-.173-1.4-.364zM341.009 469.431c0-.207.639-.363 1.4-.363.761 0 1.418.156 1.418.363 0 .208-.64.364-1.418.364-.778 0-1.4-.173-1.4-.364zM335.406 469.431c0-.207.623-.363 1.401-.363s1.4.156 1.4.363c0 .208-.622.364-1.4.364-.778 0-1.401-.173-1.401-.364zM329.788 469.431c0-.207.64-.363 1.4-.363.761 0 1.418.156 1.418.363 0 .208-.64.364-1.418.364-.778 0-1.4-.173-1.4-.364zM324.187 469.431c0-.207.622-.363 1.4-.363.778 0 1.4.156 1.4.363 0 .208-.622.364-1.4.364-.778 0-1.4-.173-1.4-.364zM318.567 469.431c0-.207.64-.363 1.401-.363s1.4.156 1.4.363c0 .208-.622.364-1.4.364-.778 0-1.401-.173-1.401-.364zM312.931 469.431c0-.207.622-.363 1.4-.363.778 0 1.4.156 1.4.363 0 .208-.622.364-1.4.364-.778 0-1.4-.173-1.4-.364zM307.347 469.431c0-.207.622-.363 1.4-.363.778 0 1.401.156 1.401.363 0 .208-.623.364-1.401.364s-1.4-.173-1.4-.364zM301.745 469.431c0-.207.623-.363 1.401-.363s1.4.156 1.4.363c0 .208-.622.364-1.4.364-.778 0-1.401-.173-1.401-.364zM296.126 469.431c0-.207.622-.363 1.4-.363.778 0 1.401.156 1.401.363 0 .208-.623.364-1.401.364s-1.4-.173-1.4-.364zM293.066 466.873c.207 0 .38.622.38 1.4.011.393-.047.785-.173 1.158l-.207-.207c.173 0 .259.069.259.207 0 0-.086.139-.259.208h-.104l-.104-.242a3.882 3.882 0 0 1-.155-1.159c0-.743.173-1.365.363-1.365zM293.066 464.055c.201 0 .363-.627.363-1.401 0-.773-.162-1.4-.363-1.4-.2 0-.363.627-.363 1.4 0 .774.163 1.401.363 1.401zM293.066 458.453c.201 0 .363-.627.363-1.401 0-.773-.162-1.4-.363-1.4-.2 0-.363.627-.363 1.4 0 .774.163 1.401.363 1.401zM293.066 452.834c.201 0 .363-.627.363-1.4 0-.774-.162-1.401-.363-1.401-.2 0-.363.627-.363 1.401 0 .773.163 1.4.363 1.4zM293.066 447.232c.201 0 .363-.627.363-1.4 0-.773-.162-1.4-.363-1.4-.2 0-.363.627-.363 1.4 0 .773.163 1.4.363 1.4zM293.066 441.614c.201 0 .363-.627.363-1.401 0-.773-.162-1.4-.363-1.4-.2 0-.363.627-.363 1.4 0 .774.163 1.401.363 1.401zM293.066 436.012c.201 0 .363-.627.363-1.401 0-.773-.162-1.4-.363-1.4-.2 0-.363.627-.363 1.4 0 .774.163 1.401.363 1.401zM293.066 427.523c.208 0 .381.639.381 1.4 0 .761-.173 1.401-.381 1.401-.207 0-.363-.623-.363-1.401s.173-1.4.363-1.4zM293.066 424.791c.201 0 .363-.627.363-1.4 0-.774-.162-1.401-.363-1.401-.2 0-.363.627-.363 1.401 0 .773.163 1.4.363 1.4zM293.066 419.172c.201 0 .363-.627.363-1.4 0-.774-.162-1.401-.363-1.401-.2 0-.363.627-.363 1.401 0 .773.163 1.4.363 1.4zM293.066 413.571c.201 0 .363-.627.363-1.401 0-.773-.162-1.4-.363-1.4-.2 0-.363.627-.363 1.4 0 .774.163 1.401.363 1.401zM294.293 406.378c0 .191-.536.329-1.227.363l.363-.363v.173c0 .778-.173 1.401-.38 1.401-.208 0-.363-.623-.363-1.401v-.553h.345c.726.035 1.262.19 1.262.38zM299.913 406.378c0 .19-.64.363-1.401.363-.76 0-1.417-.173-1.417-.363s.639-.363 1.417-.363 1.401.156 1.401.363zM305.515 406.378c0 .19-.623.363-1.401.363s-1.4-.173-1.4-.363.622-.363 1.4-.363c.778 0 1.401.156 1.401.363zM311.202 406.378c0 .19-.64.363-1.401.363-.76 0-1.417-.173-1.417-.363s.639-.363 1.417-.363c.779 0 1.401.156 1.401.363zM316.734 406.378c0 .19-.622.363-1.4.363-.778 0-1.4-.173-1.4-.363s.622-.363 1.4-.363c.778 0 1.4.156 1.4.363zM322.354 406.378c0 .19-.639.363-1.4.363-.761 0-1.418-.173-1.418-.363s.64-.363 1.418-.363c.778 0 1.4.156 1.4.363zM327.955 406.378c0 .19-.622.363-1.4.363-.778 0-1.401-.173-1.401-.363s.623-.363 1.401-.363 1.4.156 1.4.363zM333.574 406.378c0 .19-.639.363-1.4.363-.761 0-1.401-.173-1.401-.363s.623-.363 1.401-.363 1.4.156 1.4.363zM339.176 406.378c0 .19-.623.363-1.401.363s-1.4-.173-1.4-.363.622-.363 1.4-.363c.778 0 1.401.156 1.401.363zM344.795 406.378c0 .19-.622.363-1.4.363-.778 0-1.401-.173-1.401-.363s.623-.363 1.401-.363 1.4.156 1.4.363zM350.397 406.378c0 .19-.623.363-1.401.363s-1.4-.173-1.4-.363.622-.363 1.4-.363c.778 0 1.401.156 1.401.363zM356.015 406.378c0 .19-.623.363-1.401.363s-1.4-.173-1.4-.363.622-.363 1.4-.363c.778 0 1.401.156 1.401.363zM361.617 406.378c0 .19-.622.363-1.4.363-.778 0-1.401-.173-1.401-.363s.623-.363 1.401-.363 1.4.156 1.4.363zM367.235 406.378c0 .19-.622.363-1.4.363-.778 0-1.4-.173-1.4-.363s.622-.363 1.4-.363c.778 0 1.4.156 1.4.363zM372.838 406.378c0 .19-.622.363-1.4.363-.778 0-1.401-.173-1.401-.363s.64-.363 1.401-.363c.76 0 1.4.156 1.4.363zM378.456 406.378c0 .19-.622.363-1.4.363-.778 0-1.401-.173-1.401-.363s.623-.363 1.401-.363 1.4.156 1.4.363zM384.058 406.378c0 .19-.623.363-1.401.363s-1.4-.173-1.4-.363.64-.363 1.4-.363c.761 0 1.401.156 1.401.363zM389.677 406.378c0 .19-.623.363-1.401.363s-1.4-.173-1.4-.363.622-.363 1.4-.363c.778 0 1.401.156 1.401.363zM395.296 406.378c0 .19-.64.363-1.418.363-.778 0-1.4-.173-1.4-.363s.639-.363 1.4-.363c.761 0 1.418.156 1.418.363zM400.897 406.378c0 .19-.622.363-1.4.363-.778 0-1.4-.173-1.4-.363s.622-.363 1.4-.363c.778 0 1.4.156 1.4.363zM406.516 406.378c0 .19-.639.363-1.417.363s-1.401-.173-1.401-.363.64-.363 1.401-.363c.76 0 1.417.156 1.417.363zM412.118 406.378c0 .19-.622.363-1.4.363-.778 0-1.401-.173-1.401-.363s.623-.363 1.401-.363 1.4.156 1.4.363zM417.737 406.378c0 .19-.64.363-1.4.363-.761 0-1.418-.173-1.418-.363s.64-.363 1.418-.363c.778 0 1.4.156 1.4.363zM423.339 406.378c0 .19-.623.363-1.401.363s-1.4-.173-1.4-.363.622-.363 1.4-.363c.778 0 1.401.156 1.401.363zM428.958 406.378c0 .19-.64.363-1.401.363-.76 0-1.417-.173-1.417-.363s.639-.363 1.417-.363 1.401.156 1.401.363zM434.56 406.378c0 .19-.623.363-1.401.363s-1.4-.173-1.4-.363.622-.363 1.4-.363c.778 0 1.401.156 1.401.363zM440.177 406.378c0 .19-.639.363-1.4.363-.761 0-1.418-.173-1.418-.363s.64-.363 1.418-.363c.778 0 1.4.156 1.4.363zM445.779 406.378c0 .19-.622.363-1.4.363-.778 0-1.4-.173-1.4-.363s.622-.363 1.4-.363c.778 0 1.4.156 1.4.363zM450.43 407.347c-.173 0-.311-.398-.363-.969l.346.346h-.415c-.778 0-1.4-.173-1.4-.363s.622-.363 1.4-.363H450.793v.311c-.069.64-.207 1.038-.363 1.038zM450.43 412.965c-.207 0-.38-.639-.38-1.417s.173-1.401.38-1.401c.208 0 .363.64.363 1.401 0 .76-.173 1.417-.363 1.417zM450.43 418.567c-.207 0-.38-.622-.38-1.4 0-.778.173-1.401.38-1.401.208 0 .363.623.363 1.401s-.173 1.4-.363 1.4zM450.43 424.186c-.207 0-.38-.64-.38-1.4 0-.761.173-1.418.38-1.418.208 0 .363.64.363 1.418 0 .778-.173 1.4-.363 1.4zM450.43 429.788c-.207 0-.38-.623-.38-1.401s.173-1.4.38-1.4c.208 0 .363.622.363 1.4 0 .778-.173 1.401-.363 1.401zM450.43 435.406c-.207 0-.38-.639-.38-1.4 0-.761.173-1.418.38-1.418.208 0 .363.64.363 1.418 0 .778-.173 1.4-.363 1.4zM450.43 441.008c-.207 0-.38-.623-.38-1.401s.173-1.4.38-1.4c.208 0 .363.622.363 1.4 0 .778-.173 1.401-.363 1.401zM450.43 446.627c-.207 0-.38-.64-.38-1.4 0-.761.173-1.418.38-1.418.208 0 .363.64.363 1.418 0 .778-.173 1.4-.363 1.4zM450.43 452.229c-.207 0-.38-.623-.38-1.401s.173-1.4.38-1.4c.208 0 .363.622.363 1.4 0 .778-.173 1.401-.363 1.401zM450.43 457.848c-.207 0-.38-.64-.38-1.401 0-.76.173-1.4.38-1.4.208 0 .363.622.363 1.4 0 .778-.173 1.401-.363 1.401zM450.43 463.449c-.207 0-.38-.622-.38-1.4 0-.778.173-1.401.38-1.401.208 0 .363.623.363 1.401s-.173 1.4-.363 1.4zM450.43 469.016c-.207 0-.38-.639-.38-1.4 0-.761.173-1.4.38-1.4.208 0 .363.622.363 1.4 0 .778-.173 1.4-.363 1.4zM345.089 458.332c0-.19.622-.363 1.4-.363l-.363.363v-.501a2.63 2.63 0 0 1 .087-.45c0-.259.155-.415.259-.415.104 0 .19.156.259.415.013.15.013.3 0 .45v.501c-.155.173.363-.363-.363.38-.588-.069-1.279-.173-1.279-.38zM339.851 458.332c0-.191.587-.363 1.296-.363.709 0 1.314.172 1.314.363 0 .19-.588.38-1.314.38-.726 0-1.296-.173-1.296-.38zM334.611 458.332c0-.191.588-.363 1.297-.363s1.314.172 1.314.363c0 .19-.588.38-1.314.38-.726 0-1.297-.173-1.297-.38zM329.373 458.332c0-.191.588-.363 1.297-.363s1.314.172 1.314.363c0 .19-.588.38-1.314.38-.726 0-1.297-.173-1.297-.38zM324.135 458.332c0-.191.588-.363 1.296-.363.709 0 1.314.172 1.314.363 0 .19-.587.38-1.314.38-.726 0-1.296-.173-1.296-.38zM318.896 458.332c0-.191.57-.363 1.296-.363.726 0 1.314.172 1.314.363 0 .19-.588.38-1.314.38-.726 0-1.296-.173-1.296-.38zM313.657 458.332c0-.191.571-.363 1.297-.363s1.314.172 1.314.363c0 .19-.588.38-1.314.38-.726 0-1.297-.173-1.297-.38zM308.419 458.332c0-.191.57-.363 1.297-.363.726 0 1.314.172 1.314.363 0 .19-.588.38-1.314.38-.727 0-1.297-.173-1.297-.38zM304.39 456.914c.208 0 .363.64.363 1.4l-.363-.363h.986c.259 0 .415.173.415.259 0 .087-.156.208-.415.26h-.986c-.172-.173.363.363-.363-.381 0-.518.156-1.175.363-1.175zM304.39 451.295c.208 0 .363.623.363 1.401s-.155 1.418-.363 1.418c-.207 0-.363-.64-.363-1.418 0-.778.156-1.401.363-1.401zM304.39 445.642c.208 0 .363.639.363 1.418 0 .778-.155 1.4-.363 1.4-.207 0-.363-.622-.363-1.4 0-.779.156-1.418.363-1.418zM304.39 439.988c.208 0 .363.639.363 1.417s-.155 1.418-.363 1.418c-.207 0-.363-.64-.363-1.418 0-.778.156-1.417.363-1.417zM304.39 434.438c.208 0 .363.623.363 1.401s-.155 1.418-.363 1.418c-.207 0-.363-.623-.363-1.418 0-.795.156-1.401.363-1.401zM304.39 428.698c.208 0 .363.64.363 1.418 0 .778-.155 1.401-.363 1.401-.207 0-.363-.623-.363-1.401s.156-1.418.363-1.418zM304.39 423.062c.208 0 .363.623.363 1.401s-.155 1.417-.363 1.417c-.207 0-.363-.639-.363-1.417s.156-1.401.363-1.401zM305.791 418.878c0 .207-.623.363-1.401.363.727-.726.208-.19.364-.363v.519c.011.143.011.288 0 .432 0 .259-.156.415-.26.415-.104 0-.19-.156-.259-.415a2.778 2.778 0 0 1-.087-.432v-.519l.363-.363c.657-.052 1.28.104 1.28.363zM311.03 418.878c0 .208-.588.363-1.314.363-.727 0-1.297-.155-1.297-.363 0-.207.57-.363 1.297-.363.726 0 1.314.104 1.314.363zM316.268 418.878c0 .208-.588.363-1.314.363-.726 0-1.297-.155-1.297-.363 0-.207.571-.363 1.297-.363s1.314.104 1.314.363zM321.576 418.878c0 .208-.588.363-1.314.363-.727 0-1.297-.155-1.297-.363 0-.207.57-.363 1.297-.363.726 0 1.314.104 1.314.363zM326.762 418.878c0 .208-.588.363-1.314.363-.726 0-1.297-.155-1.297-.363 0-.207.588-.363 1.297-.363s1.314.104 1.314.363zM331.949 418.878c0 .208-.588.363-1.314.363-.727 0-1.297-.155-1.297-.363 0-.207.588-.363 1.297-.363.708 0 1.314.104 1.314.363zM337.222 418.878c0 .208-.588.363-1.314.363-.726 0-1.297-.155-1.297-.363 0-.207.588-.363 1.297-.363s1.314.104 1.314.363zM342.461 418.878c0 .208-.588.363-1.314.363-.726 0-1.296-.155-1.296-.363 0-.207.587-.363 1.296-.363.709 0 1.314.104 1.314.363zM346.489 420.227c-.207 0-.363-.623-.363-1.401.726.726.19.208.363.363H345.486c-.242 0-.397-.155-.397-.259 0-.104.155-.19.397-.259H346.489l.363.363c0 .57-.155 1.193-.363 1.193zM346.489 425.88c-.207 0-.363-.639-.363-1.417s.156-1.401.363-1.401.363.623.363 1.401-.156 1.417-.363 1.417zM346.489 431.517c-.207 0-.363-.623-.363-1.401s.156-1.418.363-1.418.363.64.363 1.418c0 .778-.156 1.401-.363 1.401zM346.489 437.17c-.207 0-.363-.622-.363-1.418 0-.795.156-1.4.363-1.4s.363.622.363 1.4c0 .778-.156 1.418-.363 1.418zM346.489 442.823c-.207 0-.363-.64-.363-1.418 0-.778.156-1.417.363-1.417s.363.639.363 1.417-.156 1.418-.363 1.418zM346.489 448.46c-.207 0-.363-.622-.363-1.4 0-.779.156-1.418.363-1.418s.363.639.363 1.418c0 .778-.156 1.4-.363 1.4zM346.489 454.114c-.207 0-.363-.64-.363-1.418 0-.778.156-1.401.363-1.401s.363.623.363 1.401-.156 1.418-.363 1.418z" fill="#16714D"/>
        <path d="M305.393 457.329h-2.005v2.006h2.005v-2.006zM305.393 417.823h-2.005v2.006h2.005v-2.006zM347.492 417.823h-2.006v2.006h2.006v-2.006zM347.492 456.326h-2.006v2.006h2.006v-2.006zM325.431 457.329h-2.005v2.006h2.005v-2.006zM326.433 417.823h-2.005v2.006h2.005v-2.006zM305.393 438.588h-2.005v2.005h2.005v-2.005zM346.489 437.585h-2.006v2.005h2.006v-2.005z" fill="#16714D"/>
        <path d="M211.524 361.282h112.022a4.486 4.486 0 0 0 3.278-1.45l42.024-46.156a4.473 4.473 0 0 0 1.152-2.98v-84.265a4.431 4.431 0 0 0-4.431-4.431H258.276a4.431 4.431 0 0 0-4.431 4.431v80.629a4.41 4.41 0 0 1-1.331 3.159l-44.189 43.473a4.432 4.432 0 0 0 3.199 7.59z" fill="#203E32"/>
        <path d="M366.125 227.285H258.018v76.933h108.107v-76.933z" fill="#F5F5F5"/>
        <path d="M368.569 309.603c0 .278-25.154.517-56.189.517-31.036 0-56.21-.239-56.21-.517s25.154-.517 56.21-.517c31.055 0 56.189.219 56.189.517z" fill="#455A64"/>
        <path d="M357.801 298.536a15.883 15.883 0 0 1 3.457-.199h.517l-.199.199c-.062-.978.005-1.96.199-2.921.181.962.248 1.943.198 2.921v.218h-.715a13.914 13.914 0 0 1-3.457-.218zM349.853 298.535a9.953 9.953 0 0 1 3.973 0 9.119 9.119 0 0 1-3.973 0zM341.904 298.535a9.958 9.958 0 0 1 3.974 0 9.124 9.124 0 0 1-3.974 0zM333.958 298.535a9.958 9.958 0 0 1 3.974 0 9.124 9.124 0 0 1-3.974 0zM326.01 298.535a9.958 9.958 0 0 1 3.974 0 9.124 9.124 0 0 1-3.974 0zM318.062 298.535a9.958 9.958 0 0 1 3.974 0 9.124 9.124 0 0 1-3.974 0zM310.114 298.535a9.958 9.958 0 0 1 3.974 0 9.124 9.124 0 0 1-3.974 0zM302.168 298.535a9.958 9.958 0 0 1 3.974 0 9.124 9.124 0 0 1-3.974 0zM294.22 298.535a9.958 9.958 0 0 1 3.974 0 9.124 9.124 0 0 1-3.974 0zM286.271 298.535a9.958 9.958 0 0 1 3.974 0 9.124 9.124 0 0 1-3.974 0zM278.324 298.535a9.958 9.958 0 0 1 3.974 0 9.124 9.124 0 0 1-3.974 0zM270.376 298.535a9.958 9.958 0 0 1 3.974 0 9.124 9.124 0 0 1-3.974 0zM262.429 298.535a9.958 9.958 0 0 1 3.974 0 9.124 9.124 0 0 1-3.974 0zM262.369 290.648c.2.642.268 1.318.199 1.987a4.88 4.88 0 0 1-.199 1.987 4.669 4.669 0 0 1-.219-1.987 4.748 4.748 0 0 1 .219-1.987zM262.369 282.7c.2.642.268 1.318.199 1.987a4.88 4.88 0 0 1-.199 1.987 4.669 4.669 0 0 1-.219-1.987 4.748 4.748 0 0 1 .219-1.987zM262.369 274.752c.2.642.268 1.318.199 1.987a4.878 4.878 0 0 1-.199 1.987 4.665 4.665 0 0 1-.219-1.987 4.75 4.75 0 0 1 .219-1.987zM262.369 266.805c.2.642.268 1.318.199 1.987a4.88 4.88 0 0 1-.199 1.987 4.669 4.669 0 0 1-.219-1.987 4.748 4.748 0 0 1 .219-1.987zM262.369 258.857c.2.642.268 1.318.199 1.987a4.878 4.878 0 0 1-.199 1.987 4.667 4.667 0 0 1-.219-1.987 4.75 4.75 0 0 1 .219-1.987zM262.369 250.91c.2.642.268 1.318.199 1.987a4.88 4.88 0 0 1-.199 1.987 4.669 4.669 0 0 1-.219-1.987 4.748 4.748 0 0 1 .219-1.987zM268.846 249.439a9.124 9.124 0 0 1-3.974 0 10.032 10.032 0 0 1 3.974 0zM276.794 249.439a9.124 9.124 0 0 1-3.974 0 10.032 10.032 0 0 1 3.974 0zM284.741 249.439a9.119 9.119 0 0 1-3.973 0 10.027 10.027 0 0 1 3.973 0zM292.69 249.439a9.124 9.124 0 0 1-3.974 0 10.032 10.032 0 0 1 3.974 0zM300.638 249.439a9.124 9.124 0 0 1-3.974 0 10.032 10.032 0 0 1 3.974 0zM308.584 249.439a9.124 9.124 0 0 1-3.974 0 10.032 10.032 0 0 1 3.974 0zM316.532 249.439a9.119 9.119 0 0 1-3.973 0 10.027 10.027 0 0 1 3.973 0zM324.48 249.439a9.124 9.124 0 0 1-3.974 0 10.032 10.032 0 0 1 3.974 0zM332.428 249.439a9.124 9.124 0 0 1-3.974 0 10.032 10.032 0 0 1 3.974 0zM340.376 249.439a9.124 9.124 0 0 1-3.974 0 10.032 10.032 0 0 1 3.974 0zM348.322 249.439a9.119 9.119 0 0 1-3.973 0 10.027 10.027 0 0 1 3.973 0zM356.27 249.439a9.124 9.124 0 0 1-3.974 0 10.032 10.032 0 0 1 3.974 0zM361.773 251.903a4.748 4.748 0 0 1-.218-1.987v-.477l.199.219a3.655 3.655 0 0 1-1.53-.219 3.462 3.462 0 0 1 1.53-.198h.198v.675a4.944 4.944 0 0 1-.179 1.987zM361.774 259.851a4.75 4.75 0 0 1-.218-1.987 4.668 4.668 0 0 1 .218-1.987 4.86 4.86 0 0 1 .199 1.987 4.95 4.95 0 0 1-.199 1.987zM361.774 267.799a4.75 4.75 0 0 1-.218-1.987 4.665 4.665 0 0 1 .218-1.987 4.86 4.86 0 0 1 .199 1.987 4.95 4.95 0 0 1-.199 1.987zM361.774 275.746a4.748 4.748 0 0 1-.218-1.987 4.668 4.668 0 0 1 .218-1.987c.203.642.271 1.318.199 1.987a4.95 4.95 0 0 1-.199 1.987zM361.774 283.694a4.75 4.75 0 0 1-.218-1.987 4.665 4.665 0 0 1 .218-1.987 4.86 4.86 0 0 1 .199 1.987 4.95 4.95 0 0 1-.199 1.987zM361.774 291.641a4.748 4.748 0 0 1-.218-1.987 4.668 4.668 0 0 1 .218-1.987c.203.642.271 1.318.199 1.987a4.95 4.95 0 0 1-.199 1.987zM361.773 231.338h-99.405v14.326h99.405v-14.326z" fill="#263238"/>
        <path d="m336.64 338.552 23.446-25.591H259.091l-25.869 24.816 103.418.775z" fill="#BCEDDA"/>
        <path d="M91.835 410.789h-4.107v7.487c-.05.474-.269.912-.613 1.23-.344.318-.79.494-1.251.494-.462 0-.908-.176-1.252-.494a1.956 1.956 0 0 1-.612-1.23v-20.387c.006-.503.204-.984.55-1.337a1.822 1.822 0 0 1 1.303-.552h5.982c.94 0 1.873.191 2.742.563.87.371 1.659.916 2.324 1.603a7.41 7.41 0 0 1 1.554 2.399 7.597 7.597 0 0 1 0 5.659 7.41 7.41 0 0 1-1.554 2.399 7.141 7.141 0 0 1-2.324 1.603 6.966 6.966 0 0 1-2.742.563zm-4.107-3.847h4.107c.476.04.955-.023 1.407-.184a3.432 3.432 0 0 0 1.217-.751c.35-.334.631-.74.823-1.192a3.666 3.666 0 0 0 0-2.864 3.564 3.564 0 0 0-.823-1.192 3.446 3.446 0 0 0-1.217-.751 3.351 3.351 0 0 0-1.407-.184h-4.107v7.118zM104 418v-20.114c0-.5.194-.98.539-1.333a1.814 1.814 0 0 1 1.3-.553c.488 0 .956.199 1.301.553.345.353.539.833.539 1.333v8.182h8.62v-8.182a1.848 1.848 0 0 1 .533-1.332 1.788 1.788 0 0 1 1.307-.531c.241-.003.481.043.705.135.224.092.429.228.602.401a1.897 1.897 0 0 1 .554 1.327V418a1.921 1.921 0 0 1-.547 1.342 1.83 1.83 0 0 1-1.314.544 1.776 1.776 0 0 1-.708-.137 1.842 1.842 0 0 1-.998-1.024 1.908 1.908 0 0 1-.134-.725v-8.068h-8.62v8.182c0 .5-.194.98-.539 1.334a1.82 1.82 0 0 1-1.301.552c-.488 0-.955-.199-1.3-.552a1.912 1.912 0 0 1-.539-1.334V418zM135.835 410.674h-4.13v7.429a1.944 1.944 0 0 1-.557 1.343 1.852 1.852 0 0 1-1.318.554 1.83 1.83 0 0 1-1.295-.564 1.919 1.919 0 0 1-.535-1.333v-20.229c0-.497.193-.974.536-1.325a1.807 1.807 0 0 1 1.294-.549h6.005c.941 0 1.873.19 2.742.558.869.369 1.659.91 2.324 1.591a7.339 7.339 0 0 1 1.554 2.38 7.498 7.498 0 0 1 0 5.616 7.339 7.339 0 0 1-1.554 2.38 7.149 7.149 0 0 1-2.324 1.591 7.03 7.03 0 0 1-2.742.558zm-4.13-3.817h4.13a3.401 3.401 0 0 0 2.624-.928c.351-.331.631-.734.823-1.182a3.626 3.626 0 0 0 0-2.843 3.551 3.551 0 0 0-.823-1.182 3.435 3.435 0 0 0-1.217-.745 3.386 3.386 0 0 0-1.407-.183h-4.13v7.063zM478.59 167.5h-79.11v50.47h79.11V167.5z" fill="#fff"/>
        <path d="M479.09 218.47H399V167h80.11l-.02 51.47zm-79.11-1h78.11V168H400l-.02 49.47z" fill="#EBEBEB"/>
        <path d="M478.59 167.5h-79.11v9.54h79.11v-9.54z" fill="#00D983"/>
        <path d="M479.09 177.55H399V167h80.11l-.02 10.55zm-79.11-1h78.11V168H400l-.02 8.55z" fill="#EBEBEB"/>
        <path d="M408.43 172.34a2.4 2.4 0 1 1-4.8-.06 2.4 2.4 0 0 1 4.8.06z" fill="#A6A6A6"/>
        <path d="M418.24 172.34a2.394 2.394 0 0 1-1.481 2.217 2.403 2.403 0 0 1-2.616-.52 2.4 2.4 0 1 1 4.097-1.697z" fill="#EBEBEB"/>
        <path d="M428.05 172.34a2.402 2.402 0 0 1-2.868 2.354 2.4 2.4 0 1 1 2.868-2.354z" fill="#fff"/>
        <path d="M413.13 195.91a9.751 9.751 0 0 1 9.75-9.57 10 10 0 0 1 6.12 2.08 1.58 1.58 0 0 1 .26 2.13 1.547 1.547 0 0 1-2.12.29 6.634 6.634 0 0 0-4.29-1.46 7.001 7.001 0 0 0-4.78 1.91 6.543 6.543 0 0 0-1.91 4.62 6.453 6.453 0 0 0 1.94 4.62 6.999 6.999 0 0 0 4.78 1.92 6.698 6.698 0 0 0 4.29-1.47 1.61 1.61 0 0 1 2.12.3 1.573 1.573 0 0 1-.29 2.13 9.94 9.94 0 0 1-6.15 2.08 9.728 9.728 0 0 1-9.72-9.58zM433.86 200.91a1.392 1.392 0 0 1 1.94-.18 8.692 8.692 0 0 0 5.08 2 5.76 5.76 0 0 0 3.32-1 2.39 2.39 0 0 0 1.14-1.92c.008-.3-.072-.595-.23-.85a2.494 2.494 0 0 0-.8-.79 10.453 10.453 0 0 0-3.64-1.26h-.06a14.33 14.33 0 0 1-3.43-1 5.747 5.747 0 0 1-2.47-2.07 4.071 4.071 0 0 1-.61-2.18 4.878 4.878 0 0 1 2.13-3.88 7.82 7.82 0 0 1 4.6-1.41c2.099.108 4.117.847 5.79 2.12a1.368 1.368 0 0 1 .37 1.89 1.328 1.328 0 0 1-1.88.4 7.761 7.761 0 0 0-4.28-1.7 5.086 5.086 0 0 0-3 .9 2.124 2.124 0 0 0-1 1.68c-.018.261.049.52.19.74.187.276.429.511.71.69a8.995 8.995 0 0 0 3.33 1.17h.05a15.81 15.81 0 0 1 3.67 1.12 6.135 6.135 0 0 1 2.65 2.21 4.26 4.26 0 0 1 .64 2.25 5.146 5.146 0 0 1-2.27 4.07 8.38 8.38 0 0 1-4.92 1.51 11.484 11.484 0 0 1-6.81-2.66 1.422 1.422 0 0 1-.21-1.85zM451.33 200.91c.235-.278.571-.453.933-.487.363-.033.725.077 1.007.307a8.663 8.663 0 0 0 5.07 2 5.782 5.782 0 0 0 3.33-1 2.425 2.425 0 0 0 1.14-1.92 1.523 1.523 0 0 0-.24-.85 2.494 2.494 0 0 0-.8-.79 10.453 10.453 0 0 0-3.64-1.26h-.05a14.344 14.344 0 0 1-3.43-1 5.69 5.69 0 0 1-2.47-2.07 4.085 4.085 0 0 1-.62-2.18 4.92 4.92 0 0 1 2.13-3.88 7.82 7.82 0 0 1 4.6-1.41c2.1.108 4.118.847 5.79 2.12a1.367 1.367 0 0 1 .38 1.89 1.338 1.338 0 0 1-1.89.4 7.761 7.761 0 0 0-4.28-1.7 5.09 5.09 0 0 0-3 .9 2.133 2.133 0 0 0-1 1.68c-.013.26.054.518.19.74.189.278.434.513.72.69a9.001 9.001 0 0 0 3.32 1.17h.05c1.265.22 2.498.596 3.67 1.12a6.161 6.161 0 0 1 2.66 2.21 4.26 4.26 0 0 1 .64 2.25 5.152 5.152 0 0 1-2.28 4.07 8.35 8.35 0 0 1-4.92 1.51 11.431 11.431 0 0 1-6.8-2.66 1.405 1.405 0 0 1-.21-1.85z" fill="#455A64"/>
        <path d="M541.19 233.73H433.14v76.51h108.05v-76.51z" fill="#fff"/>
        <path d="M541.7 310.74H432.64v-77.51H541.7v77.51zm-108.06-1H540.7v-75.51H433.64v75.51z" fill="#EBEBEB"/>
        <path d="M541.19 233.73H433.14v9.54h108.05v-9.54z" fill="#00D983"/>
        <path d="M541.7 243.78H432.64v-10.55H541.7v10.55zm-108.06-1H540.7v-8.55H433.64v8.55z" fill="#EBEBEB"/>
        <path d="M442.1 238.57a2.4 2.4 0 1 1-4.8 0 2.4 2.4 0 0 1 4.8 0z" fill="#A6A6A6"/>
        <path d="M451.91 238.57a2.41 2.41 0 1 1-1.482-2.217 2.392 2.392 0 0 1 1.299 1.299c.121.291.183.603.183.918z" fill="#EBEBEB"/>
        <path d="M461.72 238.57a2.409 2.409 0 0 1-4.11 1.718 2.414 2.414 0 0 1-.527-2.628 2.41 2.41 0 0 1 2.227-1.49 2.408 2.408 0 0 1 1.704.7 2.406 2.406 0 0 1 .706 1.7z" fill="#fff"/>
        <path d="M448.48 262.26h-5.1v1.86h5.1v-1.86zM486.85 262.26H452.2v1.86h34.65v-1.86z" fill="#EBEBEB"/>
        <path d="M499.67 262.26h-9.69v1.86h9.69v-1.86z" fill="#00D983"/>
        <path d="M521.84 287.2h-9.69v1.86h9.69v-1.86z" fill="#EBEBEB"/>
        <path d="M518.53 262.26h-16.75v1.86h16.75v-1.86z" fill="#455A64"/>
        <path d="M453.58 267.25h-5.1v1.86h5.1v-1.86z" fill="#EBEBEB"/>
        <path d="M479.67 267.25h-22.49v1.86h22.49v-1.86zM509.85 287.2h-22.49v1.86h22.49v-1.86zM472.97 282.21H452.2v1.86h20.77v-1.86z" fill="#455A64"/>
        <path d="M467 272.24h-9.82v1.86H467v-1.86z" fill="#00D983"/>
        <path d="M506.29 277.23h-9.82v1.86h9.82v-1.86z" fill="#A6A6A6"/>
        <path d="M502.99 272.24h-33.14v1.86h33.14v-1.86z" fill="#455A64"/>
        <path d="M485.34 287.2H452.2v1.86h33.14v-1.86zM527.29 267.25H500.7v1.86h26.59v-1.86z" fill="#00D983"/>
        <path d="M498.6 267.25h-16.52v1.86h16.52v-1.86zM521.44 272.24h-16.52v1.86h16.52v-1.86zM453.58 272.24h-5.1v1.86h5.1v-1.86z" fill="#EBEBEB"/>
        <path d="M448.48 277.23h-5.1v1.86h5.1v-1.86z" fill="#455A64"/>
        <path d="M466.43 277.23H452.2v1.86h14.23v-1.86zM471.41 292.19h-14.23v1.86h14.23v-1.86z" fill="#EBEBEB"/>
        <path d="M512.45 297.18h-22.93v1.86h22.93v-1.86zM496.14 292.19h-22.28v1.86h22.28v-1.86z" fill="#00D983"/>
        <path d="M486.88 297.18h-18.36v1.86h18.36v-1.86z" fill="#EBEBEB"/>
        <path d="M527.29 292.19h-28.54v1.86h28.54v-1.86zM465.91 297.18h-8.73v1.86h8.73v-1.86z" fill="#455A64"/>
        <path d="M499.67 282.21h-24.63v1.86h24.63v-1.86z" fill="#EBEBEB"/>
        <path d="M522.52 282.21h-20.74v1.86h20.74v-1.86zM494.09 277.23H469.5v1.86h24.59v-1.86z" fill="#00D983"/>
        <path d="M448.48 282.21h-5.1v1.86h5.1v-1.86zM448.48 287.2h-5.1v1.86h5.1v-1.86z" fill="#EBEBEB"/>
        <path d="M453.58 292.19h-5.1v1.86h5.1v-1.86z" fill="#455A64"/>
        <path d="M453.58 297.18h-5.1v1.86h5.1v-1.86z" fill="#EBEBEB"/>
        <path d="m448.32 257.58 1.71-4.09a.4.4 0 0 1 .51-.2.391.391 0 0 1 .2.5l-1.74 4.12a.386.386 0 0 1-.35.23.33.33 0 0 1-.14 0 .37.37 0 0 1-.19-.56zM454.13 255.91l-.05.05-2 2a.431.431 0 0 1-.141.098.427.427 0 0 1-.169.032.446.446 0 0 1-.32-.13.447.447 0 0 1 0-.63l1.66-1.67-1.66-1.68a.447.447 0 0 1 0-.63.47.47 0 0 1 .63 0l2 2h.05v.31a.817.817 0 0 1 0 .07.16.16 0 0 0 0 .18z" fill="#00D983"/>
        <path d="M199 150.235A11.459 11.459 0 0 1 210.446 139a11.607 11.607 0 0 1 7.207 2.442 1.795 1.795 0 0 1-2.183 2.841 7.757 7.757 0 0 0-5.024-1.726 8.221 8.221 0 0 0-5.612 2.254 7.667 7.667 0 0 0-2.277 5.424 7.585 7.585 0 0 0 2.277 5.435 8.22 8.22 0 0 0 5.612 2.242 7.795 7.795 0 0 0 5.024-1.714 1.899 1.899 0 0 1 2.5.34 1.841 1.841 0 0 1-.317 2.501 11.667 11.667 0 0 1-7.207 2.43A11.412 11.412 0 0 1 199 150.235zM228.923 152.207h-4.438a1.718 1.718 0 0 1-1.714-1.714c.004-.455.185-.89.505-1.213a1.746 1.746 0 0 1 1.209-.513h4.438v-4.331a1.761 1.761 0 0 1 1.772-1.785 1.783 1.783 0 0 1 1.785 1.785v4.331h4.425a1.74 1.74 0 0 1 1.714 1.726 1.71 1.71 0 0 1-1.714 1.714h-4.425v4.332a1.783 1.783 0 0 1-1.785 1.784 1.76 1.76 0 0 1-1.772-1.784v-4.332zM248.268 152.207h-4.402a1.718 1.718 0 0 1-1.714-1.714 1.74 1.74 0 0 1 1.714-1.726h4.438v-4.331a1.765 1.765 0 0 1 1.772-1.785 1.794 1.794 0 0 1 1.784 1.785v4.331h4.426a1.742 1.742 0 0 1 1.714 1.726 1.714 1.714 0 0 1-1.714 1.714h-4.426v4.332a1.795 1.795 0 0 1-2.467 1.651 1.764 1.764 0 0 1-1.089-1.651l-.036-4.332z" fill="#E1E1E1"/>
        <path d="M337.89 266H284v19.95h53.89V266z" fill="#455A64"/>
        <path d="M291.779 280.12v-8.85a.83.83 0 0 1 .24-.59.83.83 0 0 1 .59-.24.84.84 0 0 1 .594.24.825.825 0 0 1 .246.59v3.6h3.88v-3.6a.83.83 0 0 1 .24-.59.83.83 0 0 1 .59-.24.84.84 0 0 1 .594.24.825.825 0 0 1 .246.59v8.85a.823.823 0 0 1-.25.584.842.842 0 0 1-.271.177.848.848 0 0 1-.319.059.804.804 0 0 1-.589-.234.801.801 0 0 1-.241-.586v-3.6h-3.88v3.6a.823.823 0 0 1-.25.584.842.842 0 0 1-.271.177.848.848 0 0 1-.319.059.804.804 0 0 1-.589-.234.801.801 0 0 1-.241-.586zM308.84 272.11h-2.39v8a.81.81 0 0 1-.82.82.83.83 0 0 1-.83-.82v-8h-2.41a.823.823 0 0 1-.584-.25.804.804 0 0 1-.177-.272.805.805 0 0 1-.059-.318.803.803 0 0 1 .502-.769.807.807 0 0 1 .318-.061h6.41a.81.81 0 0 1 .76.513.842.842 0 0 1-.72 1.157zM321.17 271.27v8.85a.839.839 0 0 1-.84.82.82.82 0 0 1-.83-.82v-6.32l-2.16 3a.797.797 0 0 1-.67.35.829.829 0 0 1-.69-.35l-2.15-3v6.32a.834.834 0 0 1-.83.83.83.83 0 0 1-.83-.83v-8.85a.83.83 0 0 1 .82-.83h.05a.796.796 0 0 1 .66.35l3 4.14 3-4.14a.797.797 0 0 1 .67-.35.863.863 0 0 1 .8.83zM324.8 280.12v-8.85a.83.83 0 0 1 .82-.83.84.84 0 0 1 .84.83v8h4.07a.83.83 0 1 1 0 1.66h-4.91a.82.82 0 0 1-.82-.81z" fill="#fff"/>
    </g>
    <defs>
        <clipPath id="hfi9h5u5oa">
            <path fill="#fff" d="M0 0h676v494.465H0z"/>
        </clipPath>
    </defs>
</svg>
