<svg xmlns="http://www.w3.org/2000/svg" width="2878.5" height="710" viewBox="0 0 2878.5 710">
  <g id="Group_5083" data-name="Group 5083" transform="translate(0 -18031)">
    <path id="footer-bg" d="M183.4,698.3c1.4-.8,3-1.4,5.2-2.4a49.707,49.707,0,0,1,.5,6.1c0,2.1,0,4.2-.1,6.3h2.5c0-2.2,0-4.5-.1-6.7,0-1.6.2-3.3.4-5.6,2.1,1,3.6,1.6,5,2.4,5.6,3.3,11.2,6.7,16.9,10h5.6c-7.2-4-14.3-8.1-21.5-12.2-1.2-.7-2.4-1.6-4.2-2.8a42.76,42.76,0,0,1,4.8-3.6c33.4-18.8,66.9-37.5,100.2-56.5,4.4-2.5,7.7-2.3,12.1.2q49.65,28.35,99.4,56.3c1.7.9,3.2,2.1,6.1,4-3.2,1.9-5.3,3.1-7.4,4.3-6.2,3.5-12.3,6.9-18.5,10.4h5.3c5.1-3,10.1-6,15.2-8.9,1.8-1.1,3.8-1.9,6.5-3.3.2,3.2.4,5.5.4,7.8,0,1.5,0,2.9-.1,4.4h2.5c0-3.7-.1-7.5-.1-11.2,1.6.3,9.9,4.7,21.4,11.2h6l-19.2-10.8c-1.9-1.1-3.6-2.3-6.1-3.9a49.677,49.677,0,0,1,5-3.6c20.2-11.4,40.5-22.8,60.7-34.2h0c13.1-7.4,26.2-14.7,39.2-22.1a12.336,12.336,0,0,1,6-1.9,12.658,12.658,0,0,1,6,1.9c32.9,18.8,65.9,37.3,98.8,56,1.8,1,3.6,2.3,6.1,3.9-2.1,1.5-3.5,2.7-5,3.6-6.6,3.7-13.3,7.4-19.9,11.2h4.9c5.4-3.2,10.8-6.4,16.3-9.6.7-.4,1.4-.8,2.2-1.2.7-.4,1.5-.7,2.7-1.3a49.671,49.671,0,0,1,.6,5.8c0,2.1,0,4.2-.1,6.3h3.3v-4.4c0-2.3.1-4.6.2-7.6,2,.9,3.6,1.5,5,2.3,5.4,3.2,10.9,6.4,16.3,9.7h6.4c-7.4-4.2-14.8-8.3-22.1-12.5-1-.5-1.8-1.3-3.7-2.6a44.058,44.058,0,0,1,3.9-2.8c.6-.4,1.3-.7,1.9-1.1q49.95-28.05,100-56.2a13.793,13.793,0,0,1,4.7-1.6,10.144,10.144,0,0,1,5.2,1.5c33.5,19.1,67.1,38,100.6,57,1.4.8,2.8,1.8,4.9,3.1-1.7,1.3-2.8,2.4-4.1,3.2-7.2,4-14.3,8.1-21.5,12.1h6.8c6.1-3.6,12.2-7.2,18.4-10.8.1,0,.1-.1.2-.1.5-.2,1.1-.4,2.2-.8.2,2.5.3,4.3.3,6.1,0,1.9,0,3.8-.1,5.7h3.2c0-3.9-.1-7.8-.1-11.7a4.872,4.872,0,0,1,1.1.4,37.611,37.611,0,0,1,3.9,1.7l16.2,9.6h6.4l-20.7-11.7c-1.4-.8-2.6-1.7-4.8-3.2,2-1.3,3.5-2.5,5-3.4.7-.4,1.4-.8,2-1.2,30.8-17.3,61.7-34.5,92.4-52,2-1.1,4-2.2,6-3.4a14.692,14.692,0,0,1,5.2-1.8,10.4,10.4,0,0,1,5.3,1.6c33.2,19,66.6,37.8,100,56.7,1.6.9,3.2,2,5.4,3.5-2.2,1.5-3.6,2.6-5.2,3.5-6.7,3.8-13.4,7.5-20,11.3h5.2l16.8-9.9c1.2-.7,2.7-1.3,4.5-2.1.2,2.3.5,4,.5,5.7,0,2.1,0,4.2-.1,6.3h3.2c0-2.2,0-4.5-.1-6.7,0-1.5.2-3.1.4-5.3,1.7.8,3.1,1.4,4.3,2,5.6,3.3,11.2,6.7,16.9,10h6.3c-7.2-4-14.3-8.1-21.5-12.2-1.2-.7-2.4-1.6-4.2-2.8a42.756,42.756,0,0,1,4.8-3.6c33.4-18.8,66.9-37.5,100.2-56.5a11.214,11.214,0,0,1,5.7-1.7,12.784,12.784,0,0,1,5.7,1.9q49.65,28.35,99.4,56.3c1.7.9,3.2,2.1,6.1,4-3.2,1.9-5.3,3.1-7.4,4.3-6.2,3.5-12.3,6.9-18.5,10.4h6c5.1-3,10.1-6,15.2-8.9,1.6-1,3.4-1.8,5.8-3a68.821,68.821,0,0,1,.3,7.5c0,1.5,0,2.9-.1,4.4h3.2c0-3.6-.1-7.3-.1-10.9,2.7,1,10.4,5.2,20.7,10.9h6.8L1342.5,698c-1.9-1.1-3.6-2.3-6.1-3.9a49.681,49.681,0,0,1,5-3.6c33.4-18.8,66.9-37.5,100.2-56.5a11.944,11.944,0,0,1,5.3-1.8,12.657,12.657,0,0,1,2.6.4,21.4,21.4,0,0,1,2.8,1.2c33.3,19,66.7,37.8,100.1,56.7,1.5.9,3,1.9,5.5,3.6-1.8,1.3-3.2,2.5-4.6,3.3-.8.5-1.6.9-2.3,1.3-6,3.3-11.9,6.7-17.9,10h5c6-3.6,12-7.1,18.1-10.7.7-.4,1.5-.7,2.6-1.2a15.281,15.281,0,0,1,.8,4.5c0,2.5-.1,4.9-.1,7.4h3.2v-4.4c0-2.3.2-4.5.3-7.6,2,.9,3.6,1.6,5,2.4,5.4,3.2,10.7,6.3,16.1,9.5h6.4c-6.5-3.7-13-7.4-19.5-11-1.9-1.1-3.6-2.3-6.2-3.9a47.683,47.683,0,0,1,4.3-3.1q51-28.65,102.1-57.4a11.326,11.326,0,0,1,3.3-1.3,9.42,9.42,0,0,1,2.9.1,13.365,13.365,0,0,1,1.8.7c34.6,19.7,69.2,39.2,103.8,58.8a27.923,27.923,0,0,1,2.8,2.1,35.127,35.127,0,0,1-3.8,2.9c-.2.1-.3.2-.5.3-4,2.2-7.9,4.5-11.9,6.7-3.1,1.7-6.1,3.4-9.2,5.1h6.7c6.1-3.6,12.2-7.2,18.2-10.8a15.7,15.7,0,0,1,2.3-.9c.1,2.5.3,4.3.3,6.1s0,3.7-.1,5.5h3.2c0-3.8-.1-7.7-.1-11.5a23.853,23.853,0,0,1,4.4,1.7c5.5,3.3,11.1,6.6,16.6,9.8h6.3c-7-4-14-7.9-21-11.9-1.2-.7-2.3-1.6-4.2-2.9,2.2-1.5,3.8-2.8,5.6-3.8q50.1-28.2,100.2-56.3a14.16,14.16,0,0,1,4.7-1.7h.1a8.917,8.917,0,0,1,2.2.3,9.461,9.461,0,0,1,2.4,1c19,10.9,38.1,21.7,57.1,32.4v-.2c14.6,8.3,29.2,16.5,43.8,24.8,1.6.9,3.2,2,5.4,3.5-2.2,1.5-3.6,2.6-5.2,3.5-6.7,3.8-13.3,7.5-20,11.3h4.4l16.8-9.9c1.4-.8,3-1.4,5.2-2.4a49.722,49.722,0,0,1,.5,6.1c0,2.1,0,4.2-.1,6.3h2.5c0-2.2,0-4.5-.1-6.7,0-1.6.2-3.3.4-5.6,2.1,1,3.6,1.6,5,2.4,5.6,3.3,11.2,6.7,16.9,10h5.6c-7.2-4-14.3-8.1-21.5-12.2-1.2-.7-2.4-1.6-4.2-2.8a54.315,54.315,0,0,1,4.8-3.6c33.4-18.8,66.9-37.5,100.2-56.5,4.4-2.5,7.7-2.3,12.1.2q49.65,28.35,99.4,56.3c1.7.9,3.2,2.1,6.1,4-3.2,1.9-5.3,3.1-7.4,4.3-6.2,3.5-12.3,6.9-18.5,10.4h5.3c5.1-3,10.1-6,15.2-8.9,1.8-1.1,3.8-1.9,6.5-3.3.2,3.2.4,5.5.4,7.8,0,1.5,0,2.9-.1,4.4h2.5c0-3.7-.1-7.5-.1-11.2,1.6.3,9.9,4.7,21.4,11.2h6L2255.3,698c-1.9-1.1-3.6-2.3-6.1-3.9a49.667,49.667,0,0,1,5-3.6c33.4-18.8,66.9-37.5,100.2-56.5,4.1-2.3,7.2-2.6,11.4-.2,33.3,19,66.7,37.8,100.1,56.7,1.6.9,3.2,2.1,6.1,4-3.3,1.9-5.3,3.1-7.4,4.3-6,3.3-11.9,6.7-17.9,10h4.2c6-3.6,12-7.1,18.1-10.7a35.083,35.083,0,0,1,3.2-1.5,23.524,23.524,0,0,1,.9,4.8c0,2.5-.1,4.9-.1,7.4h2.5v-4.4c0-2.3.2-4.7.3-7.9a43.4,43.4,0,0,1,5.7,2.8c5.4,3.2,10.7,6.3,16.1,9.5h5.7c-6.5-3.7-13-7.4-19.5-11-1.9-1.1-3.6-2.3-6.2-3.9a47.683,47.683,0,0,1,4.3-3.1q51-28.65,102.1-57.4c3-1.7,5.5-2.3,8.8-.5,34.6,19.7,69.2,39.2,103.8,58.8.8.5,1.5,1.1,3.3,2.5-3,1.7-5.1,3-7.2,4.1-6.2,3.5-12.4,7-18.6,10.4h6c6.1-3.6,12.2-7.2,18.2-10.8a22.2,22.2,0,0,1,3.1-1.2,51,51,0,0,1,.3,6.4c0,1.8,0,3.7-.1,5.5h2.5c0-3.9-.1-7.8-.1-11.7,2.2.8,3.8,1.1,5.1,1.9,5.5,3.3,11.1,6.6,16.6,9.8h5.6c-7-4-14-7.9-21-11.9-1.2-.7-2.3-1.6-4.2-2.9,2.2-1.5,3.8-2.8,5.6-3.8q50.1-28.2,100.2-56.3c3.5-1.9,6.2-2.6,10.1-.4,19,10.9,38.1,21.7,57.1,32.4v-3.9q-27.3-16.2-54.6-32.3c-3.6-2.1-5-4.5-5-8.7-.2-38.5-.6-77.1-1-115.7,0-1.9.2-3.7.4-6.4,2.8,1.4,4.9,2.4,6.9,3.6,17.7,10.5,35.5,21,53.2,31.5v-4.2c-17.5-9.9-34.9-19.7-52.4-29.6-1.9-1.1-3.6-2.3-6.2-3.9a47.7,47.7,0,0,1,4.3-3.1c18.1-10.2,36.1-20.3,54.2-30.5V459c-17.5,10.4-35.1,20.7-52.6,31.1-2.1,1.2-4.1,2.4-7,4-.3-2.8-.8-4.6-.7-6.4.4-38.6.9-77.2,1.3-115.7,0-3.9.8-6.8,4.6-9q27.3-15.9,54.4-32v-3.8l-56.1,31.5c-3.5,2-6.3,2.4-10.1.3-33.9-19.4-68-38.5-102-57.8-1.2-.7-2.4-1.6-4.5-3,2.6-1.7,4.1-2.8,5.8-3.7,32.6-18.3,65.2-36.5,97.6-55.1,5.5-3.2,9.6-3.5,15.3-.2q26.85,15.45,53.8,30.7v-4c-19.5-11.6-38.9-23.1-58.5-34.7q-.6-63.15-1.2-126.5c3.5.7,31.8,16.5,59.7,32.8V134q-26.7-15.15-53.4-30.2c-1.2-.7-2.3-1.6-4.1-2.8,1.6-1.2,2.7-2.1,3.8-2.8,17.9-10.1,35.8-20.1,53.7-30.2V63.8c-17.5,10.2-34.9,20.5-52.4,30.7-1.9,1.1-3.8,2.2-6.3,3.6a34.432,34.432,0,0,1-.9-5.3c.3-30.9.7-61.8,1-92.7h-4.2c.3,32.4.6,65.1.9,98.7C2779.2,76.5,2743,55,2706.4,33.4q-.15-16.65-.3-33.3H2702q-.15,13.65-.3,27.3c0,4.3-1.1,7.1-5.1,9.4-33.3,19.5-66.5,39.2-99.7,58.8-1.4.9-3,1.5-5,2.5a19.418,19.418,0,0,1-1-4.2c.3-31.3.7-62.6,1-93.9h-4.2c.3,32.4.6,65.2.9,98.9-37.8-22.4-73.9-43.8-110.7-65.6-.1-11.1-.2-22.2-.3-33.4h-4.1q-.15,13.95-.3,27.9c0,3.4-.6,5.9-3.9,7.9-34.6,20.2-69.1,40.6-103.6,60.9a12.061,12.061,0,0,1-3.1,1c-.1-3-.3-5.1-.3-7.2.3-30.2.7-60.3,1-90.5h-4.2c.3,32.5.6,65,.9,98.2-3.3-1.7-5.4-2.7-7.4-3.9q-48.6-28.8-97.1-57.4c-4.3-2.5-6-5.3-6-10.3,0-8.8-.1-17.7-.2-26.5h-4.1q-.15,13.65-.3,27.3c0,4-.9,6.7-4.7,8.9q-50.85,29.7-101.6,59.8c-1,.6-2.2,1-4.1,1.9-.2-2.5-.5-4.6-.5-6.6.3-30.4.7-60.9,1-91.4h-4.2q.3,46.05.8,92.1c0,1.6-.2,3.3-.4,6.1-3-1.6-5-2.6-6.8-3.7q-48.75-28.95-97.7-57.8c-3.9-2.3-5.9-4.7-5.9-9.7,0-9-.1-18.1-.2-27.1h-4.1c-.1,9-.2,18.1-.3,27.1,0,4-.9,6.7-4.7,8.9q-49.35,28.8-98.6,58l-.6.3c-.9.5-1.8,1-2.7,1.6-.8.4-1.7.8-3,1.4a23.428,23.428,0,0,1-.8-4.6c.3-30.9.7-61.8,1-92.7h-4.9c.3,32.2.6,64.8.9,98.3-37.3-22.1-73.3-43.5-109.6-65q-.15-16.65-.3-33.3H1788q-.15,13.65-.3,27.3c0,4.3-1.1,7.1-5.1,9.4-33.3,19.5-66.4,39.1-99.6,58.7-1.3.7-2.7,1.3-4.6,2.2a15.854,15.854,0,0,1-.9-3.8c.3-31.3.7-62.6,1-93.9h-4.9c.3,32.3.6,64.9.9,98.5C1637,76,1601.1,54.7,1564.6,33.1c-.1-11.1-.2-22.2-.3-33.4h-4.9q-.15,13.95-.3,27.9a9.767,9.767,0,0,1-1.2,5.2,12.136,12.136,0,0,1-1,1.4c-.2.2-.4.3-.6.5a9.735,9.735,0,0,1-1.5,1.1c-34,19.9-68,40-102,60a26.771,26.771,0,0,1-2.4,1.2c-.3.1-.7.2-1.2.4-.1-2.8-.3-4.9-.3-7,.3-30.2.7-60.3,1-90.5H1445c.3,32,.6,64,.9,96.7v1c-2.8-1.5-4.8-2.4-6.6-3.5q-48.6-28.8-97.1-57.4c-4.3-2.5-6-5.3-6-10.3,0-8.8-.1-17.7-.2-26.5h-4.8q-.15,13.65-.3,27.3c0,4-.9,6.7-4.7,8.9q-50.85,29.7-101.6,59.8a28.17,28.17,0,0,1-3.4,1.6c-.2-2.4-.5-4.4-.5-6.3.3-30.4.7-60.9,1-91.4h-4.9q.3,46.05.8,92.1c0,1.6-.2,3.1-.4,5.7-2.6-1.4-4.4-2.3-6.1-3.3q-48.75-28.95-97.7-57.8c-3.9-2.3-5.9-4.7-5.9-9.7,0-9-.1-18.1-.2-27.1h-4.8c-.1,9-.2,18.1-.3,27.1,0,4-.9,6.7-4.7,8.9-33.9,19.8-67.8,39.8-101.6,59.7-.9.5-1.8.9-3.3,1.6l-.3-1.5c-.1-1.9-.2-3.4-.2-4.9.3-30.3.7-60.7,1-91h-4.9c.3,32.3.6,64.7.9,98.2-37.4-22.2-73.3-43.4-109.6-65-.1-11-.2-22.1-.3-33.2h-4.9c-.1,9-.2,17.9-.3,26.9-.1,4.7-1.3,7.5-5.5,10-33.1,19.3-66.1,38.9-99.1,58.4-1.4.8-2.9,1.5-4.9,2.4-.2-.6-.3-1.1-.5-1.6-.1-2-.2-3.5-.2-5q.6-45.6,1-91.1h-4.9c.3,32.4.6,64.9.9,98.4-37.7-22.3-73.7-43.7-109.9-65.2-.1-11.1-.2-22.1-.3-33.2h-4.9c-.1,9.1-.2,18.3-.3,27.4,0,4.1-1.2,6.7-4.9,8.8C607,55.4,573.6,75.2,540.2,94.9a38.083,38.083,0,0,1-4.5,2.2c-.2-2.6-.5-4.6-.5-6.6.3-30.3.7-60.6,1-90.9h-4.8c.2,29.7.5,59.4.7,89.2,0,2.5-.1,5-.2,8.6-.3-.1-.5-.3-.8-.4q-22.2-13.05-43.9-25.9v.2C467.5,59.6,447.9,48,428.1,36.4c-4.3-2.5-6-5.3-6-10.3,0-8.8-.1-17.7-.2-26.5h-4.1q-.15,13.65-.3,27.3c0,4-.9,6.7-4.7,8.9-33.2,20.3-67,40.3-100.8,60.3-1,.6-2.2,1-4.1,1.9-.2-2.5-.5-4.6-.5-6.6.3-30.4.7-60.9,1-91.4h-4.2q.3,46.05.8,92.1c0,1.6-.2,3.3-.4,6.1-3-1.6-5-2.6-6.8-3.7q-48.75-28.95-97.7-57.8c-3.9-2.3-5.9-4.7-5.9-9.7,0-9-.1-18.1-.2-27.1h-4c-.1,9-.2,18.1-.3,27.1,0,4-.9,6.7-4.7,8.9C151.1,55.7,117.2,75.7,83.4,95.6c-1.1.6-2.2,1-4.3,2-.1-3-.3-4.9-.3-6.8.3-30.3.7-60.7,1-91H75.6c.3,32.4.6,65,.9,98.6C50.8,83.4,25.7,68.5.8,53.7v4.6C23.5,71.3,46.3,84.1,69.1,97c1.6.9,3.1,2.1,5.6,3.8-2.9,1.6-4.9,2.8-6.9,4-22.3,12.6-44.7,25.1-67,37.7v4.7q33.9-19.95,67.6-39.9c2.2-1.3,4.5-2.6,7.6-4.4.2,3.2.5,5.3.5,7.4-.4,37.8-1,75.6-1.2,113.4,0,5.3-1.8,8.3-6.3,11Q34.8,254.65.8,274.8v2.9q34.95-19.65,69.8-39.4c4.5-2.6,8-2.9,12.7-.2q49.65,28.35,99.4,56.3c1.7.9,3.2,2.1,6,3.9-5.7,3.3-10.3,6-15,8.6-30,16.9-60.1,33.7-90,50.7-4.5,2.5-7.9,3-12.7.3C47.7,344.5,24.2,331.3.8,318.1v3.4C29.2,337.8,65,359.1,74.6,366q.6,62.85,1.2,126.4c-3.7-.7-43.7-23.5-75-42.2v4.1q33.15,18.75,66.4,37.5c2,1.2,4,2.5,6.8,4.2-2.5,1.7-4.2,3-6,4Q34.4,518.9.8,537.7v3.8c22.2-13,44.3-26.1,66.5-39.2,2.2-1.3,4.5-2.6,7.6-4.4.2,3.1.5,5.2.5,7.3-.4,38.1-.9,76.1-1.2,114.2,0,4.3-.9,7.2-4.9,9.6C46.4,642.3,23.6,655.8.8,669.2V673l69.9-39.3c4-2.3,7.1-2.7,11.4-.2,33.2,19,66.6,37.8,100,56.7,1.6.9,3.2,2,5.4,3.5-2.2,1.5-3.6,2.6-5.2,3.5-6.7,3.8-13.4,7.5-20,11.3h4.5C172.2,704.9,177.8,701.6,183.4,698.3Zm2.7-142.1c-34.1-19.5-68.3-38.7-102.5-58.1-1-.6-1.9-1.4-4.1-2.9,2.8-1.6,4.7-2.7,6.6-3.8q49.8-27.9,99.6-55.9c3.4-1.9,6.2-2.8,10.1-.6,34.1,19.5,68.3,38.7,102.5,58.1,1,.6,1.9,1.3,3.6,2.5a41.025,41.025,0,0,1-4.8,3.5q-50.4,28.35-100.8,56.8C192.7,557.7,189.9,558.4,186.1,556.2Zm117.8-50c-.4,37.6-1,75.1-1.2,112.7,0,5.3-1.7,8.3-6.3,11-32.5,18.9-64.8,38.1-97.2,57.2-2,1.2-4.1,2.4-7,4.1-.2-3.2-.5-5.3-.4-7.4.4-38.1.9-76.1,1.2-114.2,0-4.3,1-7.1,5-9.5,33.3-19.4,66.4-39.1,99.7-58.7,1.6-.9,3.4-1.7,5.9-2.9A72.338,72.338,0,0,1,303.9,506.2ZM193.7,428.4q-.6-63.75-1.2-126.2c.7-.4.9-.5,1.1-.6a.878.878,0,0,1,.7-.1c1.3.6,2.7,1.2,3.9,1.9q52.2,30.9,104.7,62.1c.4,42.4.8,84.5,1.2,128.3C266.6,471.6,230.4,450.1,193.7,428.4ZM417.6,689.3a4.454,4.454,0,0,1-.8.5,1.854,1.854,0,0,1-.7.2c-1.3-.6-2.7-1.2-3.9-1.9-34.9-20.6-69.7-41.3-104.7-62.1-.4-42.3-.8-84.3-1.2-127.7,3.2,1.6,5.1,2.5,7,3.6,32.8,19.4,65.5,38.9,98.4,58.2,3.5,2,5.2,4.2,5.2,8.5.2,38.9.6,77.7,1,116.5C417.8,686.5,417.7,688,417.6,689.3ZM306.4,487.8c.4-39,.9-78.1,1.3-117.1,0-3.4.8-5.9,4-7.8,34.5-20.2,69-40.6,103.5-60.9a16.677,16.677,0,0,1,3-1.1,53.279,53.279,0,0,1,.3,6.5c-.4,38.3-.9,76.6-1.2,114.9,0,4.5-1.4,7.1-5.3,9.3q-50.25,29.4-100.3,59c-1.3.7-2.6,1.3-4.5,2.2C306.9,490.9,306.3,489.3,306.4,487.8Zm107.7,68.4C380.4,537,346.6,518,312.8,498.9c-1.2-.7-2.4-1.6-4.3-2.8,1.9-1.4,3.2-2.6,4.7-3.5q50.7-28.5,101.5-57.1c3.3-1.9,6-2.2,9.4-.2l63,35.7v.2l38.1,21.6c1.4.8,2.7,1.8,5.2,3.4h0c-3.1,1.8-5,2.9-6.9,4-12.1,6.8-24.3,13.6-36.4,20.5v.3c-20.8,11.7-41.6,23.3-62.3,35.1C421,558.1,418.1,558.4,414.1,556.2Zm116.4,63.6c0,3.9-.8,6.7-4.6,9q-19.5,11.4-38.8,22.8v.4c-20.4,12-40.7,24-61.1,36-1.4.9-3,1.5-5.1,2.6-.3-2-.9-3.5-.9-5.1.4-39.1.9-78.1,1.2-117.2,0-4.7,2.2-6.9,5.8-9q44.55-25.95,89.1-52.3c4.3-2.5,8.7-5.1,14-8.1.3-.1.6-.3.9-.4.2,2.5.5,4.5.5,6.4C531.3,543.2,530.9,581.5,530.5,619.8Zm1.2-126.9c-2.3-1.2-4-2-5.5-2.9q-19.2-11.4-38.4-22.7v.2c-19.9-11.8-39.7-23.5-59.7-35.2-4.5-2.6-6.4-5.5-6.4-10.9-.1-37.6-.5-75.2-.9-112.8,0-2.4.2-4.7.3-7.9,2.4,1.1,4.2,1.8,5.7,2.7q30.15,17.85,60.2,35.7v.2c12.9,7.6,25.8,15.3,38.7,22.9,3.4,2,5.2,4.2,5.3,8.5.2,38.8.6,77.6.9,116.4A29.9,29.9,0,0,1,531.7,492.9Zm110,195.7q-50.7-30-101.5-60.1c-2.7-1.6-4.3-3.3-4.3-6.8-.2-40.1-.6-80.1-.9-120.2a24.516,24.516,0,0,1,.4-3.4c36.9,21.9,72.9,43.2,109.4,64.8.4,42.2.8,84.3,1.2,127.2A16.407,16.407,0,0,1,641.7,688.6ZM535.2,486.4c.4-38.3.9-76.6,1.2-114.9.1-4,1-6.7,4.7-8.9,33.7-19.7,67.3-39.6,100.9-59.4,1.1-.6,2.3-1.2,3.7-1.9a30.9,30.9,0,0,1,.7,4.8c-.4,39-.9,78.1-1.3,117.1,0,3.5-.8,5.8-4.1,7.8-34.5,20.2-69,40.6-103.5,60.9a9.762,9.762,0,0,1-2.3.8C535.3,490.1,535.2,488.3,535.2,486.4Zm108.7,70.2q-52.2-29.7-104.4-59.3a17.883,17.883,0,0,1-2.3-1.9c1-.8,1.9-1.5,2.7-2.2a9.973,9.973,0,0,1,1.9-1.2c31.5-17.7,63.1-35.4,94.5-53.2,1.7-1,3.4-1.9,5.1-2.9a30.008,30.008,0,0,1,3.2-1.5c.1,0,.3-.1.4-.1a6.929,6.929,0,0,1,2-.3,12.688,12.688,0,0,1,6.9,1.9c32.6,18.7,65.4,37.1,98.1,55.6,1.9,1.1,3.7,2.3,6.2,3.8a45.764,45.764,0,0,1-4,3.3q-51,28.8-102.2,57.5a10.1,10.1,0,0,1-1.5.7A9.991,9.991,0,0,1,643.9,556.6Zm116.4-50.7c-.4,37.8-.9,75.7-1.2,113.5,0,4.6-1,7.6-5.3,10.1-33.1,19.3-66.1,38.9-99.1,58.4a47.41,47.41,0,0,1-5.1,2.6,32.52,32.52,0,0,1-.6-5.7c.4-38.6.9-77.2,1.3-115.7a11.8,11.8,0,0,1,.8-4.8,8.8,8.8,0,0,1,.6-1c.1-.2.3-.4.4-.6a9.949,9.949,0,0,1,1-1.1,8.622,8.622,0,0,1,1.8-1.4c33.7-19.7,67.3-39.6,101-59.4.8-.4,1.6-.9,2.6-1.3.4-.2,1-.4,1.6-.7,0,.2.1.4.1.6C760.2,502,760.3,504,760.3,505.9Zm-5.9-16.1c-35.3-20.9-69.4-41.1-103.7-61.4-.4-42-.7-83.7-1.1-127.1,1.7.7,3,1.2,4.2,1.7,35.3,20.9,69.4,41.1,103.6,61.4a6.665,6.665,0,0,1,1.9,2.8c.4,41.7.7,83,1.1,126C758.4,492,756.4,490.9,754.4,489.8Zm80.4,178q-27.3-16.2-54.4-32.2c-7.4-4.5-13.1-8.2-15.9-10.2-.4-41.2-.8-82.7-1.1-125.8,2.1.6,11.4,5.7,23.9,12.7,27.3,16.2,54.1,32,81.1,48.1,2,1.3,3.6,2.4,4.7,3.2q.6,62.85,1.2,125.9C870.1,687.7,853.8,678.7,834.8,667.8ZM763.5,487.1c.4-38.6.9-77.2,1.2-115.7,0-3.2.7-5.5,2.6-7.4.1-.1.1-.2.2-.2a9.35,9.35,0,0,1,1.9-1.4c.2-.2.4-.3.6-.5,33.5-19.6,66.8-39.3,100.3-59a28.171,28.171,0,0,1,3.4-1.6,6.9,6.9,0,0,0,.8-.3c.2,2.7.3,4.5.3,6.4-.4,38.3-.9,76.7-1.2,115,0,4.4-1.3,7.1-5.2,9.4q-49.95,29.25-99.8,58.7c-1.3.7-2.7,1.4-4.5,2.3A32.527,32.527,0,0,1,763.5,487.1Zm110.4,70.2a10.025,10.025,0,0,1-2.5-1q-50.55-28.8-101.3-57.4a40.5,40.5,0,0,1-4.5-3.2c1.8-1.3,3.1-2.4,4.5-3.2.4-.2.8-.5,1.2-.7,33-18.6,66-37,98.9-55.8a16.61,16.61,0,0,1,3.1-1.4,1.268,1.268,0,0,1,.6-.1,10.79,10.79,0,0,1,1.9-.3,12.612,12.612,0,0,1,6.3,1.9c32.6,18.7,65.4,37.1,98.1,55.6,2,1.2,4,2.5,6.8,4.2-2.5,1.7-4.2,3-6,4q-49.8,28.05-99.7,56a15.083,15.083,0,0,1-4.1,1.6A7.624,7.624,0,0,1,873.9,557.3Zm113.4,62c0,4.3-.9,7.2-4.9,9.6-33.7,19.7-67.3,39.6-101,59.4a43.2,43.2,0,0,1-4.1,1.9c-.1-3.2-.2-5.3-.2-7.4.4-37.6,1-75.1,1.2-112.7,0-5.3,1.7-8.3,6.3-11,32.3-18.8,64.4-37.9,96.5-56.9,1.1-.6,2.2-1.3,3.4-1.9,1-.5,2.1-1.1,3.6-1.8a57.6,57.6,0,0,1,.4,6.6C988.2,543.2,987.7,581.3,987.3,619.3ZM949.6,470.5c-17.7-10.5-35.5-21-53.2-31.5-7.1-4.4-12.9-8-16.2-10.3a7.193,7.193,0,0,1-1.2-2.1q-.6-61.65-1.1-124c0-.2.1-.4.1-.6,4,1.6,18.6,9.6,36,19.6q30.9,18.3,61.6,36.5c5.5,3.4,9.7,6.2,12.2,7.9q.6,62.7,1.2,126.1C984.8,490.4,968.5,481.4,949.6,470.5Zm152.6,219.9c-2.2-1.1-4-1.9-5.7-2.9-32.8-19.4-65.5-38.9-98.3-58.2-3.8-2.2-5.5-4.5-5.5-9.1-.2-38.6-.6-77.1-.9-115.7,0-1.6.1-3.3.2-5.6a18.571,18.571,0,0,1,4,1.5q50.7,30,101.4,60.1c2.8,1.6,4.3,3.4,4.3,6.8.2,40,.6,80.1.9,120.1A10.462,10.462,0,0,1,1102.2,690.4ZM992,489c.4-39.6.9-79.1,1.2-118.7a11.934,11.934,0,0,1,.4-2.9h0c.8-2.5,2.8-3.9,5.3-5.4,26.6-15.5,53.1-31.2,79.6-46.7,7.8-4.6,15.6-9,24.4-14.1.2,2.6.4,4.4.4,6.2-.4,38.3-.9,76.7-1.2,115,0,4.3-1.1,7.1-5.1,9.4-33.3,19.5-66.5,39.2-99.7,58.8a45,45,0,0,1-4.4,2.2A14.831,14.831,0,0,1,992,489Zm112.6,68.5a8.749,8.749,0,0,1-4.6-1.3c-34.1-19.5-68.3-38.7-102.5-58.1-.9-.6-1.8-1.3-3.7-2.6,1.6-1.2,2.7-2.1,4-2.9.4-.2.8-.5,1.2-.7,5.8-3.3,11.7-6.6,17.5-9.8q41.55-23.25,83.1-46.6a14.551,14.551,0,0,1,4.7-1.8,9.562,9.562,0,0,1,4.6,1.2c34.1,19.5,68.3,38.7,102.5,58.1,1,.6,1.9,1.3,3.6,2.5a41.02,41.02,0,0,1-4.8,3.5q-50.4,28.35-100.8,56.8A13.882,13.882,0,0,1,1104.6,557.5ZM1216,618.9c0,5.3-1.7,8.3-6.3,11-32.5,18.9-64.8,38.1-97.2,57.2-1.8,1.1-3.8,2.2-6.3,3.7-.2-2.9-.4-5-.4-6.9.4-38.1.9-76.1,1.2-114.2,0-4.3,1-7.1,5-9.5,33.3-19.4,66.4-39.1,99.7-58.7,1.4-.8,3.1-1.6,5.1-2.6.1,2.9.3,5.1.3,7.4C1216.7,543.8,1216.2,581.3,1216,618.9ZM1107.6,428.4q-.6-63.75-1.2-126.2c.7-.4.9-.5,1.1-.6h.1c1.3.6,2.5,1.2,3.7,1.8q52.2,30.9,104.7,62.1c.4,42.2.8,84.2,1.2,127.8C1180,471.3,1144,450,1107.6,428.4Zm223.2,260.9a4.451,4.451,0,0,1-.8.5h-.1c-1.3-.6-2.5-1.1-3.7-1.8-34.9-20.6-69.7-41.3-104.7-62.1-.4-42.2-.8-84-1.2-127.3,2.7,1.4,4.6,2.2,6.2,3.2,32.8,19.4,65.5,38.9,98.4,58.2,3.5,2,5.2,4.2,5.2,8.5.2,38.9.6,77.7,1,116.5C1331,686.5,1330.9,688,1330.8,689.3ZM1220.3,487.8c.4-39,.9-78.1,1.3-117.1,0-3.4.8-5.9,4-7.8,34.5-20.2,69-40.6,103.5-60.9a12.039,12.039,0,0,1,2.3-.9c.2,2.6.3,4.4.3,6.2-.4,38.3-.9,76.6-1.2,114.9,0,4.5-1.4,7.1-5.3,9.3q-50.25,29.4-100.3,59c-1.1.6-2.3,1.2-3.8,1.9A21.188,21.188,0,0,1,1220.3,487.8ZM1333,557.7a10.211,10.211,0,0,1-5-1.5c-33.7-19.2-67.5-38.2-101.3-57.3-1.2-.7-2.4-1.6-4.3-2.8a51.4,51.4,0,0,1,4.7-3.5q50.7-28.5,101.5-57.1a10.476,10.476,0,0,1,4.4-1.5,8.476,8.476,0,0,1,4.3,1.3c34.1,19.4,68.4,38.7,102.5,58.1,1,.6,1.9,1.4,3.9,2.7-2.4,1.6-3.9,2.7-5.6,3.6-33.4,18.8-66.8,37.5-100.2,56.4A14.053,14.053,0,0,1,1333,557.7Zm112.4-51.4c-.4,37.8-.9,75.7-1.2,113.5,0,4.4-1.3,7.1-5.2,9.4-33.3,19.4-66.5,39.1-99.8,58.7-1.3.8-2.7,1.4-4.4,2.3a33.014,33.014,0,0,1-.8-4.7c.4-39.1.9-78.1,1.2-117.2,0-4.7,2.2-6.9,5.8-9q44.55-25.95,89.1-52.3c4.6-2.7,9.2-5.3,14.9-8.6,0,.4.1.7.1,1.1A57.971,57.971,0,0,1,1445.4,506.3Zm-.1-13.2c-2.8-1.6-4.8-2.6-6.7-3.8-32.1-19-64.2-38.2-96.5-57-4.5-2.6-6.4-5.5-6.4-10.9-.1-37.6-.5-75.2-.9-112.8,0-2.3.1-4.6.3-7.6,2,.9,3.6,1.6,5,2.4q49.8,29.4,99.6,58.9c3.1,1.8,5.1,3.6,5.2,7.8.2,39.3.6,78.6,1,117.9C1445.8,489.5,1445.5,490.8,1445.3,493.1Zm110,195.6q-50.7-30-101.5-60.1c-2.7-1.6-4.3-3.3-4.3-6.8q-.3-60.15-1-120.2c0-.7.2-1.4.4-3.4,36.9,21.8,72.9,43.2,109.4,64.8.4,42.2.8,84.3,1.2,127.3A28.5,28.5,0,0,1,1555.3,688.7ZM1448.9,486.6c.4-38.3.9-76.6,1.3-114.9,0-4,.9-6.7,4.7-8.9q50.85-29.7,101.6-59.8a30.182,30.182,0,0,1,3.1-1.5,20.582,20.582,0,0,1,.7,4.7c-.4,39-.9,78.1-1.3,117.1,0,3.4-.8,5.9-4,7.8-34.5,20.2-69,40.6-103.5,60.9-.1,0-.1.1-.2.1-.5.2-1.1.4-2.1.8C1449,490.2,1448.9,488.4,1448.9,486.6Zm112.8,70.6a14.383,14.383,0,0,1-6.9-2c-32.4-18.7-64.9-36.9-97.5-55.3-2-1.1-3.9-2.4-6.4-3.9l-.3-.3a44.655,44.655,0,0,1,4.3-3.4q50.4-28.35,100.9-56.8a12.076,12.076,0,0,1,4.1-1.5,10.273,10.273,0,0,1,3.9.2,15.944,15.944,0,0,1,2.7,1.2c33.3,19,66.7,37.8,100.1,56.7,1.5.9,3,1.9,5.3,3.5a30.6,30.6,0,0,1-3.2,2.6c-2.5,1.4-4.8,2.7-7,4-7.2,4-14.4,8.1-21.6,12.1q-26.1,14.55-52,29.3c-7,3.9-14,7.9-21,11.8A12.312,12.312,0,0,1,1561.7,557.2Zm111.1,63.7a10.319,10.319,0,0,1-.9,4.5,4.349,4.349,0,0,1-.4.7,5.5,5.5,0,0,1-.7.9c-.2.2-.4.5-.6.7a9.35,9.35,0,0,1-1.9,1.4c-14.1,8.2-28.1,16.6-42.1,24.8-8,4.7-16,9.4-23.9,14.1-11.4,6.7-22.8,13.5-34.2,20.2-1.2.7-2.6,1.4-4.3,2.2a4.876,4.876,0,0,1-.7.3c-.1-3-.3-5.1-.3-7.2.4-37.8.9-75.7,1.2-113.5,0-4.9,1.2-7.9,5.8-10.6,33.2-19.3,66.1-38.8,99.2-58.3,1.3-.7,2.7-1.4,4.5-2.3a22.856,22.856,0,0,1,.8,4.8Q1673.25,562.25,1672.8,620.9Zm.9-128.1c-18.8-10.2-36.4-21.3-54.4-31.8-18.3-10.7-36.5-21.6-54.9-32.6-.4-42.2-.8-84.1-1.2-127a41.988,41.988,0,0,1,5,2.1q50.1,29.7,100.3,59.3c3.1,1.8,4.5,3.7,4.5,7.5.2,39.6.7,79.1,1,118.7A21.134,21.134,0,0,1,1673.7,492.8ZM1765.9,678c-28.1-16.7-55.7-33-83.5-49.5-1.7-1.1-3.1-2-4.1-2.8-.4-42-.8-83.9-1.2-126,4.5,1.8,23.9,12.7,45.3,25.1l45,26.7c9.4,5.7,16.6,10.3,19.4,12.4.4,41.2.7,82.7,1.1,125.7C1785.8,688.9,1777.4,684.4,1765.9,678Zm-88.8-190.8c.4-38.6,1-77.2,1.2-115.7,0-4.9,1.8-7.4,5.9-9.8q49.95-29.25,99.8-58.7c1.1-.6,2.3-1.1,4.2-2,.2,2.7.3,4.6.3,6.4-.4,38.3-.9,76.7-1.3,115a12.623,12.623,0,0,1-1.1,5.7,9.489,9.489,0,0,1-3.7,3.4c-33.7,19.6-67.2,39.5-100.8,59.3-.9.5-2,1-3.2,1.6-.2.1-.5.2-.7.3C1677.5,490.6,1677.1,488.9,1677.1,487.2Zm113.3,70.4a10.714,10.714,0,0,1-6.3-1.8c-32.8-18.8-65.8-37.3-98.8-56-1.9-1.1-3.6-2.3-6.1-3.9a49.686,49.686,0,0,1,5-3.6c33.4-18.8,66.9-37.5,100.2-56.5a11.9,11.9,0,0,1,5-1.7,10.323,10.323,0,0,1,3,.4,12.467,12.467,0,0,1,2.7,1.2c33.3,19,66.7,37.8,100.1,56.7,1.6.9,3.1,2,5.7,3.7-2.1,1.4-3.6,2.6-5.2,3.5-.6.4-1.3.7-1.9,1.1-32.1,18-64.2,35.9-96.2,54.1-.5.3-1,.6-1.6.9a16.616,16.616,0,0,1-3.1,1.4h-.2A9.483,9.483,0,0,1,1790.4,557.6ZM1901,619.9c0,4-.9,6.7-4.7,8.9-33.9,19.8-67.6,39.8-101.4,59.7-1,.5-2.1,1-3.7,1.7-.1-2.7-.3-4.6-.3-6.4.4-38.3.9-76.6,1.2-114.9,0-4,1-6.7,4.7-8.9q50.55-29.55,100.9-59.5c1.1-.6,2.3-1.2,3.9-1.9a39.665,39.665,0,0,1,.6,5.6C1901.9,542.8,1901.4,581.4,1901,619.9Zm-19.9-139c-27.9-16.5-55.8-33.1-83.7-49.5-.4-.3-.8-.5-1.2-.8a6.963,6.963,0,0,1-3.6-6.4q-.3-60.15-1-120.2a12.634,12.634,0,0,1,.3-2.1c2.7,1.1,10,5,19.7,10.4,29.3,17.4,58.2,34.5,87.3,51.8,1,.6,1.8,1.2,2.5,1.7.4,42,.8,83.9,1.2,126.5C1900.6,491.6,1892.4,487.2,1881.1,480.9Zm135,209.8c-2.6-1.3-4.5-2.2-6.3-3.2-14.6-8.6-29.1-17.3-43.7-25.9v-.1q-27.3-16.2-54.6-32.3c-3.6-2.1-5-4.5-5-8.7-.2-38.5-.6-77.1-1-115.7,0-1.7.2-3.4.4-5.8a9.286,9.286,0,0,0,1.3.4c1.8.9,3.4,1.7,4.9,2.6,17.7,10.5,35.5,21,53.2,31.5v-.2c15.3,9.1,30.7,18.2,46,27.2,2.8,1.6,4.3,3.4,4.3,6.8.2,40,.6,80.1.9,120.1A13.5,13.5,0,0,1,2016.1,690.7Zm-103.4-201c-.8.5-1.6.9-2.4,1.4l-4,2a52.73,52.73,0,0,1-.7-5.8c.4-38.6.9-77.2,1.3-115.7,0-3.9.8-6.8,4.6-9q27.3-15.9,54.4-32v-.3c8.6-5,17.2-10.1,25.8-15.1,8-4.7,16-9.2,25.1-14.5.2,2.9.4,4.8.4,6.6-.4,38.3-.9,76.7-1.2,115,0,4.3-1.1,7.1-5.1,9.4q-22.95,13.35-45.7,26.9v-.1C1947.8,469,1930.2,479.4,1912.7,489.7Zm100.5,66.5q-23.55-13.5-47.2-26.8v-.2c-17.5-9.9-34.9-19.7-52.4-29.6-1.9-1.1-3.6-2.3-6.2-3.9a47.7,47.7,0,0,1,4.3-3.1c18.1-10.2,36.1-20.3,54.2-30.5v-.4c15.6-8.7,31.1-17.4,46.7-26.2,3.4-1.9,6.2-2.8,10.1-.6,34.1,19.5,68.3,38.7,102.5,58.1,1,.6,1.9,1.3,3.6,2.5a41.02,41.02,0,0,1-4.8,3.5q-50.4,28.35-100.8,56.8C2019.9,557.7,2017.1,558.4,2013.2,556.2Zm117.9-50c-.4,37.6-1,75.1-1.2,112.7,0,5.3-1.7,8.3-6.3,11-32.5,18.9-64.8,38.1-97.2,57.2-2,1.2-4.1,2.4-7,4.1-.2-3.2-.5-5.3-.4-7.4.4-38.1.9-76.1,1.2-114.2,0-4.3,1-7.1,5-9.5,33.3-19.4,66.4-39.1,99.7-58.7,1.6-.9,3.4-1.7,5.9-2.9C2130.9,501.5,2131.1,503.9,2131.1,506.2Zm-110.3-77.8q-.6-63.75-1.2-126.2c.7-.4.9-.5,1.1-.6a.878.878,0,0,1,.7-.1c1.3.6,2.7,1.2,3.9,1.9q52.2,30.9,104.7,62.1c.4,42.4.8,84.5,1.2,128.3C2093.7,471.6,2057.5,450.1,2020.8,428.4Zm223.9,260.9a4.451,4.451,0,0,1-.8.5,1.854,1.854,0,0,1-.7.2c-1.3-.6-2.7-1.2-3.9-1.9-34.9-20.6-69.7-41.3-104.7-62.1-.4-42.3-.8-84.3-1.2-127.7,3.2,1.6,5.1,2.5,7,3.6,32.8,19.4,65.5,38.9,98.4,58.2,3.5,2,5.2,4.2,5.2,8.5.2,38.9.6,77.7,1,116.5C2244.9,686.5,2244.8,688,2244.7,689.3ZM2133.5,487.8c.4-39,.9-78.1,1.3-117.1,0-3.4.8-5.9,4-7.8,34.5-20.2,69-40.6,103.5-60.9a16.682,16.682,0,0,1,3-1.1,53.324,53.324,0,0,1,.3,6.5c-.4,38.3-.9,76.6-1.2,114.9,0,4.5-1.4,7.1-5.3,9.3q-50.25,29.4-100.3,59c-1.3.7-2.6,1.3-4.5,2.2A36.555,36.555,0,0,1,2133.5,487.8Zm107.7,68.4c-33.7-19.2-67.5-38.2-101.3-57.3-1.2-.7-2.4-1.6-4.3-2.8a51.4,51.4,0,0,1,4.7-3.5q50.7-28.5,101.5-57.1c3.3-1.9,6-2.2,9.4-.2,34.1,19.4,68.4,38.7,102.5,58.1,1,.6,1.9,1.4,3.9,2.7-2.4,1.6-3.9,2.7-5.6,3.6-33.4,18.8-66.8,37.5-100.2,56.4C2248.2,558.1,2245.2,558.4,2241.2,556.2Zm118.1-49.9c-.4,37.8-.9,75.7-1.2,113.5,0,4.4-1.3,7.1-5.2,9.4-33.3,19.4-66.5,39.1-99.8,58.7-1.4.9-3,1.5-5.1,2.6-.3-2-.9-3.5-.9-5.1.4-39.1.9-78.1,1.2-117.2,0-4.7,2.2-6.9,5.8-9q44.55-25.95,89.1-52.3c4.8-2.8,9.6-5.6,15.7-9.1A72.176,72.176,0,0,1,2359.3,506.3Zm-.1-12.8c-3.2-1.8-5.4-2.9-7.4-4.2-32.1-19-64.2-38.2-96.5-57-4.5-2.6-6.4-5.5-6.4-10.9-.1-37.6-.5-75.2-.9-112.8,0-2.4.2-4.7.3-7.9,2.4,1.1,4.2,1.8,5.7,2.7q49.8,29.4,99.6,58.9c3.1,1.8,5.1,3.6,5.2,7.8.2,39.3.6,78.6,1,117.9C2359.7,489.6,2359.4,491,2359.2,493.5Zm109.3,195.2q-50.7-30-101.5-60.1c-2.7-1.6-4.3-3.3-4.3-6.8q-.3-60.15-1-120.2c0-.7.2-1.4.5-3.8,37.1,22,73.4,43.5,110.1,65.2.4,42.3.8,84.5,1.2,127.5A25.594,25.594,0,0,1,2468.5,688.7ZM2362.1,486.6c.4-38.3.9-76.6,1.3-114.9,0-4,.9-6.7,4.7-8.9q50.85-29.7,101.6-59.8a35.035,35.035,0,0,1,3.8-1.8,36.555,36.555,0,0,1,.8,5c-.4,39-.9,78.1-1.3,117.1,0,3.4-.8,5.9-4,7.8-34.5,20.2-69,40.6-103.5,60.9a20.567,20.567,0,0,1-3,1.1A40.041,40.041,0,0,1,2362.1,486.6ZM2468,555.2c-32.4-18.7-64.9-36.9-97.5-55.3-2.1-1.2-4.1-2.5-6.7-4.1a44.64,44.64,0,0,1,4.3-3.4q50.4-28.35,100.9-56.8c4.1-2.3,7.2-2.5,11.4-.1,33.3,19,66.7,37.8,100.1,56.7,1.7.9,3.2,2.1,5.9,3.9-6.2,3.6-11.2,6.5-16.3,9.3-29.4,16.5-58.8,32.9-88.1,49.6C2477,557.8,2473.3,558.2,2468,555.2Zm118.7,65.7c0,3.8-1.1,6.3-4.5,8.3q-50.85,29.85-101.6,59.9c-1,.6-2.2,1-4.4,2-.1-3.2-.3-5.4-.3-7.5.4-37.8.9-75.7,1.2-113.5,0-4.9,1.2-7.9,5.8-10.6,33.2-19.3,66.1-38.8,99.2-58.3,1.4-.8,3-1.5,5.1-2.6a27.5,27.5,0,0,1,.9,5.1Q2587.2,562.2,2586.7,620.9Zm.9-127.8c-19.1-10.3-36.9-21.6-55.1-32.2-18.3-10.7-36.5-21.6-54.9-32.6-.4-42.3-.8-84.3-1.2-127.3a49.1,49.1,0,0,1,5.7,2.4q50.1,29.7,100.3,59.3c3.1,1.8,4.5,3.7,4.5,7.5.2,39.6.7,79.1,1,118.7A25.137,25.137,0,0,1,2587.6,493.1Zm3.8,133c-.4-42.2-.8-84.3-1.2-126.6,5.7,1.2,98.5,55.4,110.4,64.3.4,41.8.8,83.9,1.1,127.6C2664.2,669.2,2628,647.7,2591.4,626.1Zm-1.1-138.9c.4-38.6,1-77.2,1.2-115.7,0-4.9,1.8-7.4,5.9-9.8q49.95-29.25,99.8-58.7c1.2-.7,2.6-1.2,5-2.3a58.146,58.146,0,0,1,.3,6.7c-.4,38.3-.9,76.7-1.3,115,0,3.9-.7,6.7-4.5,9-34,19.8-67.8,39.9-101.7,59.8-1,.6-2.1,1-3.9,1.9A51.156,51.156,0,0,1,2590.3,487.2Zm107,68.6c-32.8-18.8-65.8-37.3-98.8-56-1.9-1.1-3.6-2.3-6.1-3.9a49.673,49.673,0,0,1,5-3.6c33.4-18.8,66.9-37.5,100.2-56.5,4.1-2.3,7.2-2.6,11.4-.1,33.3,19,66.7,37.8,100.1,56.7,1.7.9,3.2,2.1,6.1,4-3.3,1.9-5.3,3.1-7.4,4.3-32.6,18.3-65.2,36.5-97.7,54.9C2705.4,558.2,2702,558.5,2697.3,555.8ZM2815,619.9c0,4-.9,6.7-4.7,8.9q-50.85,29.7-101.6,59.8c-1,.6-2.2,1-4.3,2-.1-3-.3-4.9-.3-6.7.4-38.3.9-76.6,1.2-114.9,0-4,1-6.7,4.7-8.9q50.55-29.55,100.9-59.5c1.3-.7,2.6-1.3,4.6-2.3a33.67,33.67,0,0,1,.6,5.9C2815.8,542.8,2815.3,581.4,2815,619.9Zm.4-254.4c.4,42.3.8,84.5,1.2,127.4-1.9-.6-3.3-.7-4.4-1.4q-51.15-30.15-102.1-60.5c-2.8-1.6-4.2-3.4-4.2-6.9q-.3-60.15-1-120.2c0-.7.2-1.4.5-3.7C2742.5,322.3,2778.8,343.8,2815.4,365.5Zm1.8-257.8c-.4,39.5-.9,79-1.3,118.5,0,3.3-1,5.4-3.9,7.1l-104.1,61.2a25.134,25.134,0,0,1-2.5.8c-.1-2.5-.3-4.4-.3-6.2.4-38.5.9-77.1,1.2-115.6,0-3.8,1.2-6.2,4.6-8.2q50.85-29.85,101.5-59.8c1-.6,2.2-1.1,3.8-1.9C2816.7,105.2,2817.3,106.5,2817.2,107.7ZM2599.7,96.1q49.5-27.75,98.9-55.6c4.2-2.3,7.2-2.3,11.4,0,33,18.9,66.2,37.5,99.3,56.3,1.8,1,3.5,2.3,5.9,3.9-2.5,1.6-4.2,2.8-6.1,3.9-33,18.6-66,37-98.8,55.7-4.6,2.6-8.1,2.6-12.7-.1-32.8-18.8-65.8-37.3-98.7-55.9-1.8-1-3.5-2.3-6.2-4.1C2595.7,98.5,2597.7,97.3,2599.7,96.1Zm-8.4,7.6c1.6.5,3,.6,4.2,1.3,34.1,20.1,68,40.3,102.1,60.4,2.8,1.6,4.2,3.4,4.2,6.9q.3,60,1,120.1a29.359,29.359,0,0,1-.5,3.3c-2.6-1.3-4.6-2.2-6.4-3.3-32.8-19.4-65.5-38.9-98.3-58.2-3.7-2.2-5.5-4.5-5.5-9.1-.2-38.6-.6-77.1-.9-115.7A56.8,56.8,0,0,1,2591.3,103.7Zm3.2,134.1c33.9,19.4,67.9,38.5,101.9,57.7,1.2.7,2.3,1.6,4.2,2.9-2.2,1.5-3.8,2.8-5.6,3.8-33.4,18.8-66.8,37.5-100.2,56.4-3.4,1.9-6.2,2.6-10.1.4-33.9-19.4-67.9-38.5-101.9-57.7-1.2-.7-2.3-1.6-4.7-3.2,2.7-1.6,4.4-2.6,6.1-3.5q50.1-28.2,100.2-56.3C2587.9,236.3,2590.7,235.6,2594.5,237.8Zm-5.8-128c-.4,38.3-.9,76.6-1.3,114.9,0,4-.8,6.7-4.6,9-33.9,19.8-67.8,39.8-101.6,59.7-1,.6-2.2,1-3.8,1.8a36.555,36.555,0,0,1-.8-5c.4-39,.9-78.1,1.3-117.1,0-3.4.8-5.9,4.1-7.8,34.5-20.2,69-40.6,103.5-60.9a20.565,20.565,0,0,1,3-1.1C2588.5,106,2588.7,107.9,2588.7,109.8ZM2371,96.5q49.2-27.6,98.3-55.4c4.9-2.8,8.5-2.7,13.4.1,32.6,18.7,65.4,37.1,98.1,55.6,1.9,1.1,3.7,2.3,6.1,3.8a21.91,21.91,0,0,1-4.1,3.3q-51.15,28.8-102.2,57.4c-3,1.7-5.6,2.2-8.8.4-34.6-19.7-69.3-39.2-103.9-58.9-.8-.5-1.5-1.1-3.5-2.6C2367.3,98.6,2369.1,97.6,2371,96.5ZM2473.1,168c.4,42.4.8,84.5,1.2,128.3-37.5-22.2-73.7-43.7-110.4-65.4-.4-42.2-.8-84.3-1.2-128.3C2400.5,124.9,2436.7,146.4,2473.1,168Zm-108,69.1q52.2,29.7,104.4,59.2a33.859,33.859,0,0,1,2.7,2.3c-2.8,1.6-4.8,2.8-6.9,4-32.5,18.3-65.1,36.5-97.6,55-4.8,2.7-8.3,3-13.3.2-32.8-18.9-65.7-37.3-98.7-56-1.7-.9-3.2-2.1-5.5-3.5a24.663,24.663,0,0,1,3.3-2.8q51.6-29.1,103.4-58.1C2359.8,235.7,2362.2,235.4,2365.1,237.1Zm-4.7-127.6c-.4,38.6-.9,77.1-1.3,115.7,0,4-1,6.7-4.7,8.9q-50.25,29.4-100.4,59.2c-1.4.8-2.9,1.4-5.4,2.6-.2-2.9-.4-4.6-.4-6.2.4-38.6,1-77.1,1.2-115.7,0-4.5,1.5-7,5.4-9.3,33.3-19.4,66.5-39.1,99.8-58.7,1.4-.8,2.9-1.5,5.1-2.5A34.626,34.626,0,0,1,2360.4,109.5ZM2140.6,97.2q50.4-28.35,100.9-56.8c4.1-2.3,7.2-2.6,11.4-.1,33.3,19,66.7,37.8,100.1,56.7,1.6.9,3.2,2.1,5.9,3.9-6.2,3.5-11.2,6.5-16.3,9.4-29.4,16.5-58.8,32.9-88.1,49.6-5,2.8-8.7,3.2-14,.2-32.2-18.6-64.5-36.7-96.8-55-2.3-1.3-4.5-2.6-7.5-4.4A44.072,44.072,0,0,1,2140.6,97.2Zm-6.1,5.8c2.9,1.5,5,2.5,7,3.7q48.6,28.8,97.1,57.4c4.6,2.7,6.3,5.5,6.4,10.9.1,37.6.6,75.2.9,112.8,0,2.4-.2,4.7-.3,8-2.9-1.5-5-2.5-7-3.7-32.4-19.2-64.7-38.5-97.2-57.4-4.6-2.7-6.3-5.6-6.3-10.9-.1-37.6-.6-75.2-.9-112.9C2134.2,108.6,2134.4,106.2,2134.5,103Zm4.9,135.6c32.6,18.7,65.4,37.1,98.1,55.6,1.9,1.1,3.7,2.3,6.1,3.8-1.3,1.2-2.1,2.4-3.2,3-34.5,19.4-69,38.7-103.5,58.2-2.9,1.6-5.3,1.8-8.2.1q-52.2-29.7-104.5-59.2a25.453,25.453,0,0,1-2.6-2.1c2.4-1.6,4.2-2.8,6-3.9q49.2-27.6,98.3-55.4C2130.9,236,2134.5,235.8,2139.4,238.6Zm-7.6-128.8c-.4,38.3-.9,76.7-1.2,115,0,4-.8,6.7-4.6,9q-50.55,29.55-101,59.5c-1.2.7-2.6,1.3-5,2.5-.1-3.6-.2-6-.2-8.4.4-37.4,1-74.7,1.2-112.1,0-5.5,1.6-8.8,6.5-11.6,33-19.1,65.7-38.6,98.5-57.9,1.4-.8,3-1.5,5.3-2.6C2131.5,105.7,2131.8,107.8,2131.8,109.8ZM1912.4,98c17.9-10.1,35.8-20.1,53.7-30.2v-.4c16-9,31.9-17.9,47.9-26.9,3.5-2,6.3-2.6,10.1-.4q50.85,28.95,101.9,57.7c1.2.7,2.3,1.6,4.2,2.9-2,1.4-3.5,2.6-5,3.5l-100.8,56.7c-3.5,2-6.3,2.5-10.1.4q-24-13.65-48.1-27.3v-.1q-26.7-15.15-53.4-30.2c-1.2-.7-2.3-1.6-4.1-2.8A25.464,25.464,0,0,1,1912.4,98Zm25.6,23.5c26.2,15.6,52.2,31,78.3,46.4.4,42.3.8,84.5,1.2,128.3-9.9-5.9-18.1-10.7-26.3-15.6-8.4-5-16.7-9.9-25.1-14.9v-.2c-18.7-11.1-37.2-22.1-55.9-33.1a8.994,8.994,0,0,1-2.6-4.1q-.6-61.65-1.2-123.7C1910,106,1922.5,112.7,1938,121.5Zm-33.3,115.1a13.784,13.784,0,0,1,6.7,2.3q26.85,15.45,53.8,30.7v-.2c14.8,8.4,29.7,16.7,44.5,25.1,1.7.9,3.2,2.1,6,3.9-5.7,3.3-10.3,6-15,8.6-19.5,10.9-38.9,21.9-58.4,32.8-10.9,6.1-21.7,12.2-32.6,18.3-3.1,1.6-5.7,2.1-8.7,1.2-.4-.2-.8-.3-1.3-.5-33.9-19.4-68-38.5-102-57.8-1.2-.7-2.4-1.6-4.5-3,2.6-1.7,4.1-2.8,5.8-3.7,32.6-18.3,65.2-36.5,97.6-55.1C1899.8,237.5,1902.2,236.7,1904.7,236.6Zm-1.4-128.9c-.4,39.5-.9,79-1.3,118.5,0,.5-.1.9-.1,1.3a10.61,10.61,0,0,1-5.1,6.6q-51.45,30.15-102.8,60.5a5.852,5.852,0,0,1-1.7.5c-.1-2.4-.3-4.2-.3-6,.4-38.5.9-77.1,1.2-115.6,0-3.8,1.2-6.2,4.6-8.2q50.85-29.85,101.5-59.8a30.182,30.182,0,0,1,3.1-1.5A13.286,13.286,0,0,1,1903.3,107.7Zm-222.9-8.1c2.5-1.4,4.3-2.5,6.2-3.5q49.5-27.75,98.9-55.6a12.457,12.457,0,0,1,5.4-1.7,11.722,11.722,0,0,1,5.2,1.7c33,18.9,66.2,37.5,99.3,56.3,1.8,1,3.5,2.3,5.9,3.9-2.5,1.6-4.2,2.8-6.1,3.9-33,18.6-66,37-98.8,55.7a14.452,14.452,0,0,1-2.6,1.1,14.242,14.242,0,0,1-1.6.5h-.3a9.986,9.986,0,0,1-4.2-.3,13.041,13.041,0,0,1-3.2-1.5c-32.8-18.8-65.8-37.3-98.7-55.9-1.8-1-3.5-2.3-6.1-4.1C1679.9,100,1680.1,99.8,1680.4,99.6Zm-2.3,4.3a10.458,10.458,0,0,1,3.4,1.1c34.1,20.1,68,40.3,102.1,60.4,2.1,1.2,3.4,2.5,3.9,4.5v.1a8.018,8.018,0,0,1,.3,2.3q.3,60,1,120.1a19.751,19.751,0,0,1-.5,3c-2.3-1.1-4.1-2-5.7-2.9-32.8-19.4-65.5-38.9-98.3-58.2-3.7-2.2-5.5-4.5-5.5-9.1-.2-38.6-.6-77.1-.9-115.7C1677.9,107.8,1678,106.1,1678.1,103.9ZM1676,236.5a4.867,4.867,0,0,1,1.2.1c.3,0,.6.1.9.1a8.091,8.091,0,0,1,2.6,1.1c33.9,19.4,67.9,38.5,101.9,57.7,1.2.7,2.3,1.6,4.1,2.8a10.617,10.617,0,0,0-1.1.9c-1.6,1.1-3,2.2-4.4,3-33.4,18.8-66.8,37.5-100.2,56.4a13.559,13.559,0,0,1-3.9,1.5,2.92,2.92,0,0,1-.9.2,3.751,3.751,0,0,1-1-.1c-.3,0-.6-.1-1-.1a11.2,11.2,0,0,1-2.6-1.1c-33.9-19.4-67.9-38.5-101.9-57.7-1.2-.7-2.3-1.6-4.7-3.2,2.7-1.6,4.4-2.6,6.1-3.5q50.1-28.2,100.2-56.3A10.182,10.182,0,0,1,1676,236.5Zm-1.2-126.7c-.4,38.3-.9,76.6-1.3,114.9a10.594,10.594,0,0,1-1.8,6.5,5.5,5.5,0,0,1-.7.9,10.628,10.628,0,0,1-1.1.9,14.63,14.63,0,0,1-1.3.9c-33.8,19.7-67.4,39.6-101.1,59.4-.8.4-1.7.9-2.6,1.3a5.9,5.9,0,0,0-.8.4,28.166,28.166,0,0,1-.7-4.7c.4-39,.9-78.1,1.3-117.1,0-3.4.8-5.9,4.1-7.8,34.5-20.2,69-40.6,103.5-60.9a15.692,15.692,0,0,1,2.3-.9C1674.6,106.1,1674.8,108,1674.8,109.8Zm-217-13.3q49.2-27.6,98.3-55.4a11.677,11.677,0,0,1,6.5-1.9,13.493,13.493,0,0,1,6.1,2.1c32.6,18.7,65.4,37.1,98.1,55.6,1.9,1.1,3.7,2.3,6.1,3.8a21.909,21.909,0,0,1-4.1,3.3q-51.15,28.8-102.2,57.4a7.541,7.541,0,0,1-1.3.6,8.093,8.093,0,0,1-5.3.4,9.384,9.384,0,0,1-1.5-.6c-34.6-19.7-69.3-39.2-103.9-58.9-.8-.5-1.5-1.1-3.5-2.6C1454.1,98.6,1455.9,97.6,1457.8,96.5Zm-2.7,9.8c35.5,21,69.7,41.3,104,61.7.4,42.3.8,84.2,1.2,127.9-37.3-22.1-73.2-43.4-109.6-65-.4-42-.8-83.9-1.2-127.7C1451.4,104.2,1453.3,105.2,1455.1,106.3Zm-5.2,130.2c.4.2.8.3,1.3.5q52.2,29.7,104.4,59.2a17.664,17.664,0,0,1,2.2,1.9,36.085,36.085,0,0,1-3.7,2.8l-18.6,10.5q-28.35,15.9-56.7,32c-8.7,4.9-17.5,9.8-26.2,14.8a12.9,12.9,0,0,1-5,1.5,12.448,12.448,0,0,1-6.4-2c-32.8-18.9-65.7-37.3-98.7-56-1.7-.9-3.2-2.1-5.5-3.5a24.663,24.663,0,0,1,3.3-2.8q51.6-29.1,103.4-58.1a7.1,7.1,0,0,1,1.8-.8A8.216,8.216,0,0,1,1449.9,236.5Zm-3.4-127c-.4,38.6-.9,77.1-1.3,115.7a12.653,12.653,0,0,1-.6,4.1,10.127,10.127,0,0,1-3.3,4.2c-.2.2-.4.3-.6.5a1,1,0,0,0-.5.4c-33.4,19.5-66.7,39.3-100,59-1.3.7-2.7,1.3-4.7,2.3-.2-2.7-.3-4.3-.3-5.9.4-38.6,1-77.1,1.2-115.7,0-4.5,1.5-7,5.4-9.3,33.3-19.4,66.5-39.1,99.8-58.7,1.2-.7,2.6-1.3,4.4-2.2C1446.2,106,1446.5,107.7,1446.5,109.5ZM1227.4,97.2q50.4-28.35,100.9-56.8a11.944,11.944,0,0,1,5.3-1.8,9.7,9.7,0,0,1,5.3,1.7c33.3,19,66.7,37.8,100.1,56.7,1.5.8,2.9,1.9,5.2,3.4a26.2,26.2,0,0,1-2.6,2.4c-2.3,1.3-4.5,2.6-6.6,3.8-9.6,5.4-19.2,10.8-28.7,16.2-21.9,12.3-43.9,24.6-65.7,37a14.522,14.522,0,0,1-6.7,2.3,12.991,12.991,0,0,1-6.5-2.1c-32.2-18.6-64.5-36.7-96.8-55-2.3-1.3-4.5-2.6-7.5-4.4A44.627,44.627,0,0,1,1227.4,97.2Zm-6.1,6.1c2.5,1.3,4.5,2.2,6.3,3.3q48.6,28.8,97.1,57.4c4.6,2.7,6.3,5.5,6.4,10.9.1,37.6.6,75.2.9,112.8,0,2.3-.2,4.6-.3,7.6-2.5-1.3-4.5-2.2-6.3-3.3-32.4-19.2-64.7-38.5-97.2-57.4-4.6-2.7-6.3-5.6-6.3-10.9-.1-37.6-.6-75.2-.9-112.9C1221,108.7,1221.2,106.4,1221.3,103.3Zm-2.1,133.3a13.956,13.956,0,0,1,6.3,2c32.6,18.7,65.4,37.1,98.1,55.6,1.9,1.1,3.7,2.3,6.1,3.8-1.3,1.2-2.1,2.4-3.2,3-34.5,19.4-69,38.7-103.5,58.2a9.349,9.349,0,0,1-3.8,1.2,7.826,7.826,0,0,1-3.7-1.1q-52.2-29.7-104.5-59.2a25.453,25.453,0,0,1-2.6-2.1c2.4-1.6,4.2-2.8,6-3.9q49.2-27.6,98.3-55.4A15.791,15.791,0,0,1,1219.2,236.6Zm-1.3-126.8c-.4,38.3-.9,76.7-1.2,115,0,4-.8,6.7-4.6,9q-50.55,29.55-101,59.5c-1.1.6-2.3,1.2-4.3,2.1-.1-3.4-.2-5.8-.2-8,.4-37.4,1-74.7,1.2-112.1,0-5.5,1.6-8.8,6.5-11.6,33-19.1,65.7-38.6,98.5-57.9,1.3-.7,2.7-1.4,4.6-2.2C1217.6,105.9,1217.9,107.9,1217.9,109.8ZM998.3,98.1c.8-.4,1.5-.9,2.2-1.3,4.9-2.7,9.7-5.5,14.6-8.2,12.3-6.9,24.7-13.9,37-20.8h0l48.6-27.3a14.161,14.161,0,0,1,4.7-1.7,8.749,8.749,0,0,1,4.6,1.3q50.85,28.95,101.9,57.7c1.2.7,2.3,1.6,4.2,2.9-2,1.4-3.5,2.6-5,3.5l-100.8,56.7a14.161,14.161,0,0,1-4.7,1.7,8.749,8.749,0,0,1-4.6-1.3c-33.9-19.4-67.9-38.5-101.9-57.7-1.2-.7-2.2-1.5-4.2-2.9A17.125,17.125,0,0,1,998.3,98.1Zm-5.3,6.5c2.4.8,9.3,4.4,18.6,9.5,30.5,18.1,60.5,35.9,90.7,53.8.4,42.2.8,84.2,1.2,127.9-9.6-5.7-17.6-10.4-25.5-15.1-26.1-15.4-52.1-31-78.2-46.2-4.3-2.5-6.1-5.2-6.1-10.3-.1-37.6-.6-75.2-.9-112.8C992.7,109.4,992.9,107.4,993,104.6Zm1,132.5a17.405,17.405,0,0,1,2.5,1.1q49.65,28.35,99.4,56.3c1.7.9,3.2,2.1,6,3.9-5.7,3.3-10.3,6-15,8.6-30,16.9-60.1,33.7-90,50.7a13.679,13.679,0,0,1-6.8,2.1A12.557,12.557,0,0,1,985,358c-32.8-18.8-65.8-37.3-98.8-56-1.9-1.1-3.6-2.3-6.2-3.9a52.529,52.529,0,0,1,4.9-3.7c33.1-18.7,66.3-37.2,99.4-56a2.185,2.185,0,0,0,.5-.3l1.2-.6A12.262,12.262,0,0,1,994,237.1Zm-4.8-133.2c.2,2.7.4,4.6.4,6.5-.4,37.8-1,75.6-1.2,113.4,0,5.3-1.8,8.3-6.3,11-32.3,18.8-64.4,37.9-96.5,56.8-1.8,1.1-3.7,2.1-6.1,3.5a9.428,9.428,0,0,1-.9.3c-.1-3.1-.3-5.3-.3-7.5.4-37.6,1-75.1,1.2-112.7,0-5.3,1.8-8.3,6.4-10.9,32.3-18.8,64.4-37.9,96.5-56.9,1.2-.7,2.4-1.4,3.8-2.2.9-.5,1.8-.9,3.1-1.5C989.2,103.7,989.2,103.8,989.2,103.9ZM771.5,96.8c13.4-7.6,26.9-15.1,40.3-22.7,6.5-3.6,12.9-7.3,19.4-10.9l41.1-23.1a7.741,7.741,0,0,1,1.6-.7,8.884,8.884,0,0,1,5.8-.2,11.331,11.331,0,0,1,2,.9c33.5,19.1,67.1,38,100.6,57,1.6.9,3.1,2.1,5.6,3.8-2.9,1.6-4.9,2.8-6.9,4q-49.2,27.6-98.2,55.3a10.415,10.415,0,0,1-12,0c-32.8-18.8-65.8-37.3-98.7-55.9-1.8-1-3.5-2.3-5.9-3.9A56.019,56.019,0,0,1,771.5,96.8Zm-6.9,7a13.635,13.635,0,0,0,1.7.4c1.2.6,2.3,1.1,3.3,1.7,33.2,19.6,66.3,39.3,99.6,58.9,3.6,2.1,5,4.5,5,8.7.2,38.6.6,77.1,1,115.7,0,1.8-.2,3.6-.4,6-2-.9-3.6-1.6-5-2.4-33.2-19.7-66.3-39.4-99.6-58.9-3.6-2.1-5-4.5-5-8.7-.2-38.6-.6-77.1-.9-115.7A40.322,40.322,0,0,1,764.6,103.8Zm-2.2,132.7a9.259,9.259,0,0,1,5,1.5c33.5,19.1,67.1,38,100.6,57,1.4.8,2.8,1.8,4.9,3.1a42.8,42.8,0,0,1-4.1,3.2q-51,28.65-102.1,57.4a10.476,10.476,0,0,1-4.4,1.5,8.208,8.208,0,0,1-4.3-1.3q-51.15-29.1-102.5-58c-1-.6-1.9-1.4-4.2-2.9,2.8-1.6,4.7-2.7,6.6-3.8q49.8-27.9,99.6-56a19.555,19.555,0,0,1,2.6-1.2c.2-.1.5-.1.7-.2A4.145,4.145,0,0,1,762.4,236.5Zm-1.3-126.8c-.4,38.3-.9,76.6-1.2,114.9,0,4.5-1.4,7.1-5.3,9.3-33.5,19.5-66.9,39.3-100.3,59-1.1.6-2.3,1.2-3.8,1.9a21.418,21.418,0,0,1-.7-4.7c.4-39,.9-78.1,1.3-117.1,0-3.4.8-5.9,4.1-7.8,34.5-20.2,69-40.6,103.5-60.9a12.039,12.039,0,0,1,2.3-.9C760.9,106,761.1,107.8,761.1,109.7Zm-217.5-13c33-18.6,66-37,98.9-55.8a19.555,19.555,0,0,1,2.6-1.2,12.09,12.09,0,0,1,1.8-.5h.1a11.437,11.437,0,0,1,4.5.3,18.151,18.151,0,0,1,3,1.3c32.8,18.8,65.8,37.3,98.8,56,1.9,1,3.6,2.3,6.1,3.9a49.687,49.687,0,0,1-5,3.6C720.8,123.2,687.1,142,653.5,161a10.89,10.89,0,0,1-4.8,1.6,10.593,10.593,0,0,1-4.5-1.4c-33.9-19.3-68-38.5-102-57.7-1.2-.7-2.3-1.6-4.6-3.3C540.3,98.6,541.9,97.6,543.6,96.7Zm46.9,38.6c18.3,10.7,36.5,21.6,55,32.6.4,42.2.8,84.2,1.2,127.8-37.5-22.2-73.3-43.4-109.6-65-.4-42-.8-84-1.2-127.5C555,113.8,572.6,124.8,590.5,135.3ZM533.7,236.2a9.572,9.572,0,0,1,5.1,1.5c33.5,19.1,67.1,38,100.6,57,1.4.8,2.7,1.7,4.6,2.9l.3.3a36.788,36.788,0,0,1-4.1,3.1c-34,19.2-68.1,38.3-102,57.5a19.991,19.991,0,0,1-2.1,1,10.244,10.244,0,0,1-5.2-.2,8.427,8.427,0,0,1-1.4-.6q-20.7-11.85-41.6-23.5v.2c-19.7-11.2-39.5-22.3-59.2-33.5-1.7-.9-3.2-2.1-5.5-3.5a24.666,24.666,0,0,1,3.3-2.8c34.1-19.2,68.3-38.3,102.4-57.6A9.85,9.85,0,0,1,533.7,236.2Zm-1.2-132.7c.1,3,.4,5.2.3,7.5-.4,37.6-.9,75.2-1.2,112.8,0,5.2-1.5,8.3-6.2,11.1-12.8,7.5-25.5,15-38.3,22.5v.4c-20.1,11.8-40.1,23.7-60.2,35.5-1.4.8-2.9,1.4-5.4,2.6-.2-2.9-.4-4.6-.4-6.2.4-38.6,1-77.1,1.2-115.7,0-4.5,1.5-7,5.4-9.3q30.15-17.55,60.1-35.3h0c12.9-7.6,25.9-15.2,38.8-22.8A62.149,62.149,0,0,1,532.5,103.5Zm-219-6.3q50.4-28.35,100.9-56.8c4.1-2.3,7.2-2.6,11.4-.1q30.6,17.55,61.4,34.8v.1c12.4,7,24.9,14.1,37.3,21.1,1.9,1.1,3.7,2.3,6.1,3.8a21.3,21.3,0,0,1-3.3,3c-13.4,7.5-26.8,15.1-40.2,22.6v.4q-30,16.8-59.8,33.7c-5,2.8-8.7,3.2-14,.2-32.2-18.6-64.5-36.7-96.8-55-2.3-1.3-4.5-2.6-7.5-4.4C311,99.2,312.1,98,313.5,97.2Zm-6.1,5.8c2.9,1.5,5,2.5,7,3.7q48.6,28.8,97.1,57.4c4.6,2.7,6.3,5.5,6.4,10.9.1,37.6.6,75.2.9,112.8,0,2.4-.2,4.7-.3,8-2.9-1.5-5-2.5-7-3.7-32.4-19.2-64.7-38.5-97.2-57.4-4.6-2.7-6.3-5.6-6.3-10.9-.1-37.6-.6-75.2-.9-112.9C307.1,108.6,307.3,106.2,307.4,103Zm4.9,135.6c32.6,18.7,65.4,37.1,98.1,55.6,1.9,1.1,3.7,2.3,6.1,3.8-1.3,1.2-2.1,2.4-3.2,3-34.5,19.4-69,38.7-103.5,58.2-2.9,1.6-5.3,1.8-8.1.1q-52.2-29.7-104.5-59.2a25.448,25.448,0,0,1-2.6-2.1c2.4-1.6,4.2-2.8,6-3.9q49.2-27.6,98.3-55.4C303.8,236,307.3,235.8,312.3,238.6Zm-7.6-128.8c-.4,38.3-.9,76.7-1.2,115,0,4-.8,6.7-4.6,9q-50.55,29.55-101,59.5c-1.2.7-2.6,1.3-5,2.5-.1-3.6-.2-6-.2-8.4.4-37.4,1-74.7,1.2-112.1,0-5.5,1.6-8.8,6.5-11.6,33-19.1,65.7-38.6,98.5-57.9,1.4-.8,3-1.5,5.3-2.6C304.4,105.7,304.7,107.8,304.7,109.8ZM86.6,96.8q50.1-28.2,100.2-56.3c3.5-2,6.3-2.6,10.1-.4q50.85,28.95,101.9,57.7c1.2.7,2.3,1.6,4.2,2.9-2,1.4-3.5,2.6-5,3.5L197.2,160.9c-3.5,2-6.3,2.5-10.1.4-33.9-19.4-67.9-38.5-101.9-57.7-1.2-.7-2.3-1.6-4.6-3.2C83.2,98.8,84.9,97.8,86.6,96.8ZM164,280.7c-26.1-15.4-52.1-31-78.2-46.2-4.3-2.5-6.1-5.2-6.1-10.3-.1-37.6-.6-75.2-.9-112.8,0-2.4.2-4.7.4-8.6,37.2,22.1,73.5,43.6,109.9,65.2.4,42.3.8,84.5,1.2,128.3C180.4,290.3,172.2,285.5,164,280.7ZM79.3,370.3c0-4.5,2.4-6.4,5.8-8.3,26.6-15.5,53.1-31.2,79.6-46.7,8-4.7,16-9.2,25.1-14.5.2,2.9.4,4.8.4,6.6-.4,38.3-.9,76.7-1.2,115,0,4.3-1.1,7.1-5.1,9.4-33.3,19.5-66.5,39.2-99.7,58.8-1.4.9-3,1.5-5,2.6a19.412,19.412,0,0,1-1-4.2C78.5,449.4,79,409.9,79.3,370.3ZM182.6,687.5c-32.8-19.4-65.5-38.9-98.3-58.2-3.8-2.2-5.5-4.5-5.5-9.1-.2-38.6-.6-77.1-.9-115.7,0-1.7.1-3.4.2-5.8,1.9.7,3.4.9,4.7,1.7q50.7,30,101.4,60.1c2.8,1.6,4.3,3.4,4.3,6.8.2,40,.6,80.1.9,120.1a29.369,29.369,0,0,1-.5,3.3C186.4,689.4,184.4,688.6,182.6,687.5Z" transform="translate(-0.8 18031.4)" fill="#b2b9d6" opacity="0.05"/>
    <line id="Line_27" data-name="Line 27" x2="2878" transform="translate(0.5 18031.5)" fill="none" stroke="#b2b9d6" stroke-width="1" opacity="0.05"/>
    <line id="Line_28" data-name="Line 28" x2="2878" transform="translate(0.5 18740.5)" fill="none" stroke="#b2b9d6" stroke-width="1" opacity="0.05"/>
  </g>
</svg>
