<svg xmlns="http://www.w3.org/2000/svg" id="skill-design" width="52.667" height="52.667" viewBox="0 0 52.667 52.667">
    <defs>
        <style>
            .cls-1{fill:#97aecf}
        </style>
    </defs>
    <g id="Group_4934">
        <g id="Group_4933">
            <path id="Path_675" d="M51.124 0h-6.172a1.541 1.541 0 0 0-1.543 1.543v1.543H30.695a4.625 4.625 0 0 0-8.723 0H9.258V1.543A1.541 1.541 0 0 0 7.715 0H1.543A1.541 1.541 0 0 0 0 1.543v6.172a1.541 1.541 0 0 0 1.543 1.543h6.172a1.541 1.541 0 0 0 1.543-1.543V6.151h6.419a20.3 20.3 0 0 0-9.361 15.8 4.626 4.626 0 1 0 3.1.031 17.217 17.217 0 0 1 12.776-15.3 4.627 4.627 0 0 0 8.291 0 17.229 17.229 0 0 1 12.772 15.311 4.632 4.632 0 1 0 3.1-.031 20.241 20.241 0 0 0-9.365-15.78h6.419v1.543a1.541 1.541 0 0 0 1.543 1.543h6.172a1.541 1.541 0 0 0 1.543-1.543V1.543A1.541 1.541 0 0 0 51.124 0zM6.172 6.172H3.086V3.086h3.086zm1.646 21.7a1.543 1.543 0 1 1 1.543-1.543 1.541 1.541 0 0 1-1.543 1.547zm18.516-21.7a1.543 1.543 0 1 1 1.543-1.543 1.541 1.541 0 0 1-1.544 1.543zm18.515 18.619a1.543 1.543 0 1 1-1.543 1.543 1.541 1.541 0 0 1 1.543-1.543zm4.732-18.619H46.5V3.086h3.086z" class="cls-1"/>
        </g>
    </g>
    <g id="Group_4936" transform="translate(12.463 12.447)">
        <g id="Group_4935">
            <path id="Path_676" d="M148.662 140.2l-12.344-18.516c0-.01-.01-.01-.01-.021l-.062-.093a1.538 1.538 0 0 0-2.469.093c0 .01-.01.01-.01.021L121.424 140.2a1.529 1.529 0 0 0 .2 1.944 19.554 19.554 0 0 1 5.575 11.408 7.9 7.9 0 0 0-.689.627 7.755 7.755 0 0 0-2.273 5.493 1.541 1.541 0 0 0 1.543 1.543h18.516a1.541 1.541 0 0 0 1.543-1.543 7.888 7.888 0 0 0-2.932-6.12 19.494 19.494 0 0 1 5.575-11.408 1.554 1.554 0 0 0 .18-1.944zm-13.63-.689a1.543 1.543 0 1 1-1.543 1.543 1.541 1.541 0 0 1 1.544-1.539zm-7.447 18.619a4.717 4.717 0 0 1 4.361-3.189h6.172a4.706 4.706 0 0 1 4.361 3.189zm12.406-6.038a7.591 7.591 0 0 0-1.872-.237h-6.172a7.591 7.591 0 0 0-1.872.237 22.725 22.725 0 0 0-5.411-11.2l8.826-13.259v9.052a4.629 4.629 0 1 0 3.086 0v-9.052l8.836 13.249a22.816 22.816 0 0 0-5.421 11.218z" class="cls-1" transform="translate(-121.163 -120.999)"/>
        </g>
    </g>
</svg>
