<svg width="40" height="40" viewBox="0 0 40 40" fill="none" xmlns="http://www.w3.org/2000/svg">
    <path d="M14.8 7.667c-1.333-5.767-10.017-5.784-11.35 0-.783 3.383 1.367 6.25 3.233 8.033a3.578 3.578 0 0 0 4.884 0c1.866-1.783 4-4.65 3.233-8.033zm-5.617 2.666c-.916 0-1.666-.75-1.666-1.666C7.517 7.75 8.25 7 9.167 7h.016c.934 0 1.667.75 1.667 1.667 0 .916-.733 1.666-1.667 1.666zM36.517 27.667c-1.334-5.767-10.05-5.784-11.4 0-.784 3.383 1.366 6.25 3.25 8.033a3.6 3.6 0 0 0 4.9 0c1.883-1.783 4.033-4.65 3.25-8.033zm-5.634 2.666c-.916 0-1.666-.75-1.666-1.666 0-.917.733-1.667 1.65-1.667h.016c.917 0 1.667.75 1.667 1.667 0 .916-.75 1.666-1.667 1.666zM20 32.917h-4.467c-1.933 0-3.617-1.167-4.283-2.967-.684-1.8-.184-3.783 1.267-5.066l13.316-11.65c.8-.7.817-1.65.584-2.3-.25-.65-.884-1.35-1.95-1.35H20a1.26 1.26 0 0 1-1.25-1.25c0-.684.567-1.25 1.25-1.25h4.466c1.934 0 3.617 1.166 4.284 2.966.683 1.8.183 3.784-1.267 5.067l-13.317 11.65c-.8.7-.816 1.65-.583 2.3.25.65.883 1.35 1.95 1.35H20c.683 0 1.25.566 1.25 1.25 0 .683-.567 1.25-1.25 1.25z" fill="#00D983"/>
</svg>
