<svg width="40" height="40" viewBox="0 0 40 40" fill="none" xmlns="http://www.w3.org/2000/svg">
    <path d="M28.333 5.833H11.667c-5 0-8.334 2.5-8.334 8.334v11.667c0 5.833 3.334 8.333 8.334 8.333h16.666c5 0 8.334-2.5 8.334-8.334V14.168c0-5.833-3.334-8.334-8.334-8.334zm.784 10.15L23.9 20.15c-1.1.884-2.5 1.317-3.9 1.317s-2.817-.433-3.9-1.317l-5.217-4.166a1.282 1.282 0 0 1-.2-1.767c.434-.534 1.217-.633 1.75-.2l5.217 4.166c1.267 1.017 3.417 1.017 4.683 0l5.217-4.166a1.23 1.23 0 0 1 1.75.2c.433.533.35 1.333-.183 1.766z" fill="#00D983"/>
</svg>
