<?xml version="1.0" encoding="utf-8"?>
<!-- Generator: Adobe Illustrator 23.0.1, SVG Export Plug-In . SVG Version: 6.00 Build 0)  -->
<svg version="1.1" id="Layer_1" xmlns="http://www.w3.org/2000/svg" xmlns:xlink="http://www.w3.org/1999/xlink" x="0px" y="0px"
	 viewBox="0 0 157.1 34" style="enable-background:new 0 0 157.1 34;" xml:space="preserve">
<style type="text/css">
	.st0{fill:#0075AD;}
	.st1{fill:#92BA35;}
	.st2{fill:#B1123A;}
	.st3{fill:#EEB00D;}
	.st4{fill:#79C4E4;}
	.st5{fill:#FFFFFF;}
</style>
<g>
	<polygon class="st0" points="5.3,19.6 0,10 5.3,0.4 10.7,10 	"/>
	<polygon class="st1" points="18.6,19.6 13.3,10 18.6,0.4 24,10 	"/>
	<polygon class="st2" points="12.5,33.9 7.2,24.3 12.5,14.7 17.8,24.3 	"/>
	<polygon class="st3" points="25.8,33.9 20.4,24.3 25.8,14.7 31.1,24.3 	"/>
	<polygon class="st4" points="32.9,19.6 27.6,10 32.9,0.4 38.3,10 	"/>
	<path class="st5" d="M5.3,7.9H3.5l0.3,3.7l1.6,0.5L7,11.6l0.3-3.7C7.3,7.9,5.3,7.9,5.3,7.9z M6.5,9H5.3H4.7v0.6h0.6h1.1l-0.1,1.5
		l-1,0.3l-1-0.3v-0.5h0.5v0.1L5.3,11l0.5-0.2v-0.6H5.3H4.2L4.1,8.5h1.2h1.2V9z"/>
	<g>
		<g>
			<g>
				<path class="st5" d="M16.9,8.1l0.3,3.6l1.4,0.4l1.4-0.4l0.3-3.6H16.9z M19.7,9.2v0.4L19.5,11l-0.9,0.2l0,0L17.7,11l-0.1-0.7H18
					v0.4l0.5,0.1l0,0l0.5-0.1l0.1-0.6h-1.5V9.7h1.6V9.3h-1.7V8.9h1.1h1.1V9.2z"/>
			</g>
		</g>
	</g>
	<g>
		<g>
			<path class="st5" d="M13.4,22.2c0.1,0,0.2,0,0.2,0.1l0.9,1.6c0,0.1,0,0.2,0,0.2l-0.9,1.6c0,0.1-0.1,0.1-0.2,0.1h-1.9
				c-0.1,0-0.2,0-0.2-0.1l-0.9-1.6c0-0.1,0-0.2,0-0.2l0.9-1.6c0-0.1,0.1-0.1,0.2-0.1H13.4 M13.4,21.8h-1.9c-0.2,0-0.4,0.1-0.6,0.3
				L10,23.8c-0.1,0.2-0.1,0.4,0,0.7l0.9,1.6c0.1,0.2,0.3,0.3,0.6,0.3h1.9c0.2,0,0.4-0.1,0.6-0.3l0.9-1.6c0.1-0.2,0.1-0.4,0-0.7
				L14,22.1C13.9,21.9,13.7,21.8,13.4,21.8L13.4,21.8z"/>
			<g>
				<path class="st5" d="M11.7,24.9c-0.2,0-0.3,0-0.4-0.1c-0.1-0.1-0.1-0.2-0.2-0.3h0.3c0,0.1,0,0.1,0.1,0.2
					C11.5,24.7,11.6,24.8,11.7,24.9c0.1-0.1,0.1-0.1,0.2-0.2c0,0,0.1-0.1,0.1-0.2v-0.8h-0.3v-0.3h0.7v1.1c0,0.2,0,0.3-0.1,0.4
					C12,24.9,11.9,24.9,11.7,24.9z"/>
				<path class="st5" d="M13.8,24.5c0,0.2-0.1,0.3-0.2,0.4C13.5,25,13.3,25,13.1,25s-0.4,0-0.5-0.1s-0.2-0.2-0.2-0.3l0.3-0.1
					c0,0.1,0.1,0.1,0.1,0.2c0.1,0,0.2,0.1,0.3,0.1c0.2,0,0.4-0.1,0.4-0.2v-0.1l-0.1-0.1c0,0-0.1,0-0.3-0.1c-0.1,0-0.2-0.1-0.2-0.1
					s-0.1,0-0.1-0.1L12.7,24c0,0,0-0.1-0.1-0.1c0,0,0-0.1,0-0.2s0.1-0.3,0.2-0.3s0.3-0.1,0.5-0.1s0.3,0,0.4,0.1
					c0.1,0.1,0.2,0.2,0.2,0.3h-0.3c0-0.1-0.1-0.1-0.1-0.2c-0.1,0-0.1-0.1-0.2-0.1c-0.2,0-0.3,0.1-0.3,0.2v0.1c0,0,0.1,0,0.1,0.1
					c0,0,0.1,0,0.3,0.1c0.2,0,0.3,0.1,0.3,0.1c0.1,0,0.1,0.1,0.2,0.1l0.1,0.1C13.8,24.3,13.8,24.4,13.8,24.5z"/>
			</g>
		</g>
	</g>
	<g>
		<path class="st5" d="M32,10c0-0.1,0-0.3-0.3-0.3h-0.3l-0.1,0.7h0.3C31.8,10.4,31.9,10.1,32,10z"/>
		<path class="st5" d="M35.1,10.4c-0.1,0.1-0.3,0.2-0.5,0.2h-0.4L34,11.1h-0.4L34,9.4h0.8c0.1,0,0.2,0,0.2,0.1
			c-0.3-0.9-1.1-1.6-2.1-1.6c-1.2,0-2.2,1-2.2,2.2c0,0.2,0,0.4,0.1,0.6L31,9.4h0.8c0.4,0,0.5,0.3,0.5,0.6c0,0.2-0.2,0.7-0.7,0.7
			h-0.4l-0.1,0.5H31c0.4,0.7,1.1,1.1,1.9,1.1C34,12.2,34.9,11.5,35.1,10.4c0-0.1,0-0.1,0-0.2C35.1,10.3,35.1,10.4,35.1,10.4z
			 M33.2,10.7c0,0,0.1-0.7,0.2-0.8c0-0.2-0.1-0.2-0.3-0.2c-0.1,0-0.2,0-0.2,0l-0.2,1h-0.4l0.3-1.8H33l-0.1,0.5c0.1,0,0.3,0,0.5,0
			s0.4,0.1,0.4,0.3s-0.2,1-0.2,1H33.2z"/>
		<path class="st5" d="M34.3,9.6l-0.1,0.7h0.3c0.3,0,0.4-0.3,0.4-0.4s0-0.3-0.3-0.3H34.3z"/>
	</g>
	<g>
		<g>
			<g>
				<path class="st5" d="M25.8,24.5l-0.6,1.6c0.2,0,0.3,0.1,0.5,0.1s0.4,0,0.6-0.1l0,0L25.8,24.5z"/>
				<path class="st5" d="M23.9,24.3c0,0.7,0.4,1.4,1,1.7L24,23.6C24,23.8,23.9,24.1,23.9,24.3z"/>
				<path class="st5" d="M27,24.2c0-0.2-0.1-0.4-0.2-0.5c-0.1-0.2-0.2-0.3-0.2-0.4c0-0.2,0.1-0.3,0.3-0.3l0,0
					c-0.3-0.3-0.8-0.5-1.2-0.5c-0.6,0-1.2,0.3-1.5,0.8h0.1c0.2,0,0.5,0,0.5,0c0.1,0,0.1,0.1,0,0.2c0,0-0.1,0-0.2,0l0.7,2l0.4-1.2
					l-0.3-0.8c-0.1,0-0.2,0-0.2,0c-0.1,0-0.1-0.2,0-0.2c0,0,0.3,0,0.5,0s0.5,0,0.5,0c0.1,0,0.1,0.1,0,0.2c0,0-0.1,0-0.2,0l0.7,2
					l0.2-0.6C27,24.6,27,24.4,27,24.2z"/>
				<path class="st5" d="M27.4,23.5c0,0.1,0,0.1,0,0.2c0,0.2,0,0.4-0.1,0.7L26.7,26c0.5-0.3,0.9-0.9,0.9-1.6
					C27.6,24,27.5,23.7,27.4,23.5z"/>
				<path class="st5" d="M25.8,22c-1.3,0-2.3,1-2.3,2.3s1,2.3,2.3,2.3s2.3-1,2.3-2.3C28.1,23,27.1,22,25.8,22z M25.8,26.4
					c-1.1,0-2-0.9-2-2s0.9-2,2-2s2,0.9,2,2S26.9,26.4,25.8,26.4z"/>
			</g>
		</g>
	</g>
</g>
<g>
	<g>
		<path class="st5" d="M47.4,17.7c-0.1,0.1-0.4,0.2-0.6,0.3c-0.3,0.1-0.6,0.1-0.8,0.1c-0.5-1.1-0.8-2.3-1.2-3.5s-0.7-2.5-1.1-3.7
			c-0.4-1.2-0.6-2.5-0.9-3.7C42.4,6,42.2,4.8,42,3.7c0-0.1,0.3-0.2,0.6-0.3s0.6-0.1,0.8-0.1c0.2,1,0.4,2,0.6,3
			c0.3,1.1,0.6,2.2,0.8,3.3s0.6,2.3,0.9,3.4c0.4,1.1,0.7,2.2,1.1,3.3c0.4-0.8,0.6-1.8,1-2.7c0.4-1,0.6-1.9,0.9-2.9
			c0.3-1,0.6-1.9,0.8-2.9C49.8,6.9,50,6,50.1,5.2C50.6,5,51,4.8,51.6,4.8c0.5,1.9,1,4,1.6,5.9s1.3,3.9,2,5.8c0.4-1,0.6-2.1,1-3.2
			c0.3-1.1,0.6-2.2,0.8-3.4c0.3-1.1,0.5-2.3,0.6-3.4c0.2-1.1,0.4-2.2,0.5-3.2c0.3-0.1,0.6-0.2,1-0.2c0.3,0,0.4,0,0.6,0
			c-0.2,1-0.4,2-0.6,3.2s-0.6,2.4-0.9,3.7s-0.7,2.6-1.1,3.8c-0.4,1.3-0.8,2.5-1.3,3.6c-0.2,0.1-0.4,0.2-0.6,0.3
			c-0.3,0.1-0.6,0.1-0.8,0.1c-0.4-0.8-0.7-1.7-1-2.6c-0.4-0.9-0.6-1.8-1-2.9c-0.3-0.9-0.6-1.8-0.9-2.8c-0.3-0.9-0.5-1.8-0.6-2.6
			c-0.2,0.8-0.5,1.7-0.7,2.6c-0.3,0.9-0.6,1.8-0.8,2.7c-0.3,0.9-0.6,1.8-0.9,2.7C48,16.1,47.6,17,47.4,17.7z"/>
		<path class="st5" d="M63.1,12.7c0,0.7,0.2,1.4,0.4,1.9s0.6,1,0.8,1.4c0.4,0.4,0.7,0.6,1.2,0.8c0.5,0.2,0.9,0.3,1.5,0.3
			s1.2-0.1,1.8-0.3c0.5-0.2,0.9-0.5,1.3-0.8c0.2,0,0.3,0.2,0.4,0.4c-0.1,0.2-0.3,0.4-0.5,0.6s-0.5,0.5-0.8,0.6
			c-0.4,0.2-0.7,0.4-1.2,0.6s-1,0.2-1.7,0.2S65,18.3,64.5,18c-0.6-0.3-1.1-0.6-1.6-1s-0.7-1-1-1.8c-0.3-0.6-0.4-1.5-0.4-2.3
			s0.1-1.6,0.4-2.2c0.3-0.7,0.6-1.3,1.1-1.8c0.5-0.6,1-0.9,1.7-1.2c0.6-0.3,1.3-0.5,2-0.5s1.4,0.1,1.9,0.4c0.5,0.3,0.9,0.6,1.2,1
			c0.3,0.4,0.5,0.8,0.6,1.4c0.2,0.6,0.2,0.9,0.2,1.4c-0.1,0.2-0.3,0.3-0.5,0.5c-0.2,0.1-0.4,0.2-0.6,0.3L63.1,12.7z M66.2,8.1
			c-0.5,0-0.8,0.1-1.2,0.2c-0.4,0.2-0.6,0.4-0.9,0.6s-0.5,0.7-0.6,1.2c-0.2,0.5-0.3,1.1-0.3,1.8l5.7-0.6c0-0.1,0-0.1,0-0.2
			c0-0.1,0-0.1,0-0.2c0-0.5-0.1-0.8-0.2-1.2s-0.3-0.6-0.5-0.9c-0.3-0.2-0.6-0.4-0.8-0.6C67,8.1,66.6,8.1,66.2,8.1z"/>
		<path class="st5" d="M74.1,2.6c0.3-0.1,0.5-0.2,0.7-0.3c0.3-0.1,0.6-0.1,0.8-0.1v6.9c0.2-0.3,0.5-0.5,0.6-0.7
			c0.3-0.3,0.6-0.5,0.9-0.6c0.5-0.2,0.9-0.4,1.2-0.5s0.8-0.2,1.3-0.2c0.6,0,1.3,0.1,1.8,0.4c0.6,0.3,1,0.6,1.4,1
			c0.4,0.5,0.6,0.9,0.8,1.6c0.2,0.6,0.3,1.2,0.3,1.9c0,0.9-0.2,1.7-0.5,2.5c-0.2,0.7-0.6,1.4-1.1,1.9c-0.6,0.6-1.2,1-1.9,1.4
			c-0.7,0.4-1.6,0.5-2.5,0.5s-1.7-0.1-2.3-0.3c-0.6-0.2-1.1-0.5-1.6-0.7C74.1,17.2,74.1,2.6,74.1,2.6z M79,8.3
			c-0.7,0-1.4,0.2-1.9,0.6c-0.6,0.5-1,0.9-1.4,1.6v6c0.4,0.3,0.7,0.5,1.3,0.6s1.1,0.3,1.8,0.3c0.6,0,1-0.1,1.5-0.3
			c0.5-0.2,0.8-0.5,1.2-0.8c0.4-0.4,0.6-0.8,0.8-1.4c0.2-0.6,0.3-1.2,0.3-1.9c0-1.5-0.3-2.6-0.9-3.3C80.9,8.9,80,8.3,79,8.3z"/>
		<path class="st5" d="M86,8.2c0.1-0.2,0.3-0.3,0.6-0.5c0.3-0.1,0.5-0.2,0.8-0.2H88V4.7c0.2-0.2,0.5-0.3,0.7-0.4s0.6-0.1,0.8-0.1
			v3.3h4c0,0.3-0.1,0.5-0.2,0.6c0,0.2-0.2,0.3-0.4,0.3h-3.3V15c0,0.5,0.1,0.7,0.2,1s0.3,0.5,0.5,0.6c0.2,0.2,0.4,0.3,0.6,0.3
			c0.2,0.1,0.5,0.1,0.7,0.1c0.5,0,0.8-0.1,1.1-0.3c0.3-0.2,0.6-0.4,0.7-0.6c0.2,0.1,0.3,0.2,0.4,0.4c-0.1,0.1-0.2,0.3-0.4,0.5
			c-0.2,0.2-0.4,0.4-0.6,0.6c-0.3,0.2-0.6,0.3-0.8,0.5c-0.4,0.1-0.7,0.2-1.1,0.2s-0.7-0.1-1.1-0.2s-0.6-0.3-0.9-0.5
			s-0.5-0.6-0.6-0.8c-0.2-0.4-0.2-0.8-0.2-1.4v-7h-1.9V8.2H86z"/>
		<path class="st5" d="M96.7,7.7c0.4-0.1,0.9-0.3,1.6-0.3v2.9c0.1-0.4,0.3-0.8,0.6-1.2c0.2-0.4,0.5-0.7,0.8-1s0.6-0.6,1.1-0.6
			c0.4-0.2,0.8-0.3,1.3-0.3c0.4,0,0.6,0.1,0.9,0.2c0.3,0.1,0.5,0.3,0.6,0.5c0.2,0.2,0.3,0.4,0.4,0.6c0.1,0.2,0.1,0.5,0.2,0.6
			c-0.1,0.2-0.3,0.4-0.6,0.5s-0.6,0.2-0.7,0.3c-0.1-0.4-0.2-0.6-0.5-1c-0.2-0.3-0.6-0.5-1.2-0.5c-0.4,0-0.7,0.1-1.1,0.4
			s-0.6,0.6-0.9,0.9c-0.3,0.4-0.5,0.9-0.6,1.5c-0.2,0.6-0.3,1.2-0.3,1.8v4.8c-0.2,0.1-0.5,0.2-0.7,0.3c-0.3,0.1-0.6,0.1-0.8,0.1
			L96.7,7.7L96.7,7.7z"/>
		<path class="st5" d="M109,4.1c-0.1,0.2-0.3,0.5-0.6,0.6c-0.3,0.3-0.5,0.4-0.6,0.5c-0.2-0.1-0.5-0.3-0.6-0.5
			c-0.3-0.3-0.5-0.5-0.6-0.6c0.1-0.3,0.4-0.5,0.6-0.7c0.3-0.3,0.5-0.5,0.6-0.6c0.2,0.1,0.5,0.3,0.7,0.6C108.8,3.7,108.9,4,109,4.1z
			 M106.9,7.7c0.2-0.1,0.5-0.2,0.7-0.3c0.3-0.1,0.6-0.1,0.8-0.1v10.4c-0.2,0.1-0.5,0.2-0.7,0.3s-0.6,0.1-0.8,0.1V7.7z"/>
		<path class="st5" d="M121,9.6c-0.1,0.2-0.3,0.3-0.5,0.5c-0.3,0.2-0.6,0.3-0.9,0.3c0-0.2-0.1-0.5-0.3-0.7c-0.1-0.3-0.3-0.6-0.5-0.7
			s-0.5-0.4-0.8-0.6c-0.4-0.2-0.7-0.2-1.2-0.2c-0.4,0-0.7,0.1-1.1,0.2c-0.4,0.2-0.7,0.4-1,0.7c-0.3,0.4-0.6,0.7-0.7,1.3
			c-0.2,0.6-0.3,1.2-0.3,1.9c0,0.8,0.1,1.5,0.4,2.1c0.2,0.6,0.6,1.1,0.8,1.5c0.4,0.4,0.8,0.7,1.3,0.9c0.5,0.2,1,0.3,1.5,0.3
			c0.6,0,1.3-0.1,1.8-0.3c0.5-0.2,0.9-0.6,1.2-0.9c0.1,0,0.2,0.1,0.3,0.2c0.1,0.1,0.1,0.2,0.2,0.2c-0.1,0.2-0.3,0.4-0.5,0.6
			c-0.2,0.3-0.5,0.5-0.8,0.6c-0.4,0.2-0.7,0.4-1.2,0.6s-0.9,0.2-1.6,0.2s-1.3-0.1-1.9-0.4c-0.6-0.2-1.1-0.6-1.6-1
			c-0.5-0.5-0.8-1-1.1-1.7c-0.3-0.6-0.4-1.5-0.4-2.3c0-0.7,0.2-1.5,0.5-2.2c0.3-0.6,0.6-1.3,1.2-1.8c0.5-0.6,1.1-0.9,1.8-1.2
			c0.6-0.3,1.4-0.5,2.2-0.5c0.6,0,1.2,0.1,1.7,0.3c0.5,0.2,0.7,0.4,1,0.6s0.5,0.6,0.6,0.7C120.9,9.2,121,9.4,121,9.6z"/>
		<path class="st5" d="M124.5,2.6c0.3-0.1,0.5-0.2,0.7-0.3c0.3-0.1,0.6-0.1,0.8-0.1v10c0.4-0.3,0.8-0.6,1.3-0.8
			c0.5-0.4,0.8-0.7,1.3-1.1c0.5-0.4,0.8-0.8,1.3-1.3s0.8-0.9,1.2-1.5c0.1-0.1,0.3-0.2,0.6-0.2c0.2,0,0.5-0.1,0.6-0.1
			c0.3,0,0.5,0,0.6,0.1c-0.3,0.4-0.6,0.7-1,1.2c-0.4,0.4-0.8,0.8-1.2,1.2c-0.5,0.4-0.8,0.7-1.3,1.1c-0.5,0.4-0.8,0.6-1.2,0.9
			c0.4,0.1,0.6,0.3,0.9,0.6c0.3,0.3,0.6,0.6,0.8,1l1.7,2.2c0.2,0.3,0.5,0.6,0.6,0.8c0.2,0.2,0.4,0.5,0.5,0.6
			c0.2,0.2,0.3,0.3,0.4,0.5c0.1,0.1,0.3,0.3,0.4,0.4v0.1c-0.2,0.1-0.5,0.2-0.7,0.2c-0.4,0-0.6,0.1-0.8,0.1c-0.2-0.1-0.4-0.2-0.6-0.5
			c-0.2-0.3-0.6-0.6-0.9-1.1l-1.8-2.4c-0.2-0.3-0.4-0.5-0.5-0.6c-0.2-0.2-0.3-0.4-0.4-0.5c-0.1-0.1-0.3-0.2-0.4-0.3
			c-0.1-0.1-0.3-0.1-0.5-0.1s-0.3,0-0.5,0.1s-0.3,0.1-0.4,0.2v4.8c-0.2,0.1-0.5,0.2-0.7,0.3c-0.3,0.1-0.6,0.1-0.8,0.1L124.5,2.6
			L124.5,2.6z"/>
		<path class="st5" d="M136.9,12.7c0,0.7,0.2,1.4,0.4,1.9s0.6,1,0.8,1.4c0.4,0.4,0.7,0.6,1.2,0.8c0.5,0.2,0.9,0.3,1.5,0.3
			s1.2-0.1,1.8-0.3c0.5-0.2,0.9-0.5,1.3-0.8c0.2,0,0.3,0.2,0.4,0.4c-0.1,0.2-0.3,0.4-0.5,0.6s-0.5,0.5-0.8,0.6
			c-0.4,0.2-0.7,0.4-1.2,0.6s-1,0.2-1.7,0.2c-0.6,0-1.3-0.1-1.8-0.4c-0.6-0.3-1.1-0.6-1.6-1c-0.5-0.5-0.7-1-1-1.8
			c-0.3-0.6-0.4-1.5-0.4-2.3s0.1-1.6,0.4-2.2c0.3-0.7,0.6-1.3,1.1-1.8c0.5-0.6,1-0.9,1.7-1.2c0.6-0.3,1.3-0.5,2-0.5s1.4,0.1,1.9,0.4
			c0.5,0.3,0.9,0.6,1.2,1c0.3,0.5,0.5,0.8,0.6,1.4c0.1,0.5,0.2,0.9,0.2,1.4c-0.1,0.2-0.3,0.3-0.5,0.5c-0.2,0.1-0.4,0.2-0.6,0.3
			L136.9,12.7z M139.9,8.1c-0.5,0-0.8,0.1-1.2,0.2c-0.4,0.2-0.6,0.4-0.9,0.6s-0.5,0.7-0.6,1.2s-0.3,1.1-0.3,1.8l5.7-0.6
			c0-0.1,0-0.1,0-0.2c0-0.1,0-0.1,0-0.2c0-0.5-0.1-0.8-0.2-1.2c-0.1-0.4-0.3-0.6-0.5-0.9c-0.2-0.3-0.5-0.5-0.8-0.6
			C140.7,8.1,140.4,8.1,139.9,8.1z"/>
		<path class="st5" d="M147.7,7.7c0.5-0.2,0.9-0.4,1.6-0.4v2.9c0.1-0.4,0.3-0.8,0.6-1.2c0.2-0.4,0.5-0.7,0.8-1s0.6-0.6,1.1-0.6
			c0.4-0.2,0.8-0.3,1.3-0.3c0.4,0,0.6,0.1,0.9,0.2s0.5,0.3,0.6,0.5c0.2,0.2,0.3,0.4,0.4,0.6c0.1,0.2,0.1,0.5,0.2,0.6
			c-0.1,0.2-0.3,0.4-0.6,0.5s-0.6,0.2-0.7,0.3c-0.1-0.4-0.2-0.6-0.5-1c-0.2-0.3-0.6-0.5-1.2-0.5c-0.4,0-0.7,0.1-1.1,0.4
			s-0.6,0.6-0.9,0.9c-0.3,0.4-0.5,0.9-0.6,1.5s-0.3,1.2-0.3,1.8v4.8c-0.2,0.1-0.5,0.2-0.7,0.3c-0.3,0.1-0.6,0.1-0.8,0.1L147.7,7.7
			L147.7,7.7z"/>
	</g>
	<g>
		<path class="st5" d="M44.6,29.9c-0.1,0-0.1,0.1-0.3,0.1c-0.1,0-0.2,0-0.3,0c-0.2-0.4-0.3-0.9-0.5-1.4c-0.2-0.5-0.3-1-0.4-1.4
			c-0.1-0.5-0.2-1-0.4-1.4c-0.1-0.5-0.2-0.9-0.3-1.4c0.1,0,0.2-0.1,0.3-0.1s0.2,0,0.3,0c0.1,0.4,0.1,0.8,0.2,1.2
			c0.1,0.4,0.2,0.8,0.3,1.3c0.1,0.4,0.2,0.9,0.4,1.3c0.1,0.4,0.3,0.9,0.4,1.3c0.1-0.3,0.3-0.7,0.4-1.1c0.1-0.4,0.3-0.8,0.4-1.2
			c0.1-0.4,0.2-0.8,0.3-1.1c0.1-0.4,0.2-0.7,0.2-1c0.2-0.1,0.4-0.1,0.6-0.1c0.2,0.8,0.4,1.5,0.6,2.3c0.2,0.8,0.5,1.5,0.8,2.3
			c0.1-0.4,0.3-0.8,0.4-1.2s0.2-0.9,0.3-1.3c0.1-0.4,0.2-0.9,0.3-1.3c0.1-0.4,0.1-0.9,0.2-1.2c0.1-0.1,0.2-0.1,0.4-0.1
			c0.1,0,0.2,0,0.2,0c-0.1,0.4-0.1,0.8-0.3,1.3c-0.1,0.5-0.2,0.9-0.4,1.4c-0.1,0.5-0.3,1-0.4,1.5c-0.2,0.5-0.3,1-0.5,1.4
			c-0.1,0-0.1,0.1-0.2,0.1c-0.1,0-0.2,0-0.3,0c-0.1-0.3-0.3-0.7-0.4-1c-0.1-0.4-0.3-0.7-0.4-1.1c-0.1-0.4-0.2-0.7-0.3-1.1
			c-0.1-0.4-0.2-0.7-0.3-1c-0.1,0.3-0.2,0.6-0.3,1c-0.1,0.3-0.2,0.7-0.3,1.1c-0.1,0.4-0.2,0.7-0.4,1C44.9,29.3,44.8,29.6,44.6,29.9z
			"/>
		<path class="st5" d="M51.6,28c0,0.3,0.1,0.5,0.2,0.7c0.1,0.2,0.2,0.4,0.3,0.5c0.1,0.1,0.3,0.2,0.5,0.3c0.2,0.1,0.4,0.1,0.6,0.1
			c0.3,0,0.5,0,0.7-0.1c0.2-0.1,0.4-0.2,0.5-0.3c0.1,0,0.1,0.1,0.1,0.1c0,0.1-0.1,0.1-0.2,0.2c-0.1,0.1-0.2,0.2-0.3,0.2
			c-0.1,0.1-0.3,0.1-0.5,0.2c-0.2,0.1-0.4,0.1-0.7,0.1c-0.3,0-0.5,0-0.7-0.1c-0.2-0.1-0.4-0.2-0.6-0.4c-0.2-0.2-0.3-0.4-0.4-0.7
			C51,28.7,51,28.4,51,28.1c0-0.3,0.1-0.6,0.2-0.9c0.1-0.3,0.2-0.5,0.4-0.7c0.2-0.2,0.4-0.4,0.6-0.5c0.2-0.1,0.5-0.2,0.8-0.2
			c0.3,0,0.5,0.1,0.7,0.2c0.2,0.1,0.3,0.2,0.5,0.4c0.1,0.2,0.2,0.3,0.2,0.5c0,0.2,0.1,0.4,0.1,0.6c0,0.1-0.1,0.1-0.2,0.2
			c-0.1,0-0.1,0.1-0.2,0.1L51.6,28z M52.8,26.2c-0.2,0-0.3,0-0.5,0.1c-0.1,0.1-0.3,0.1-0.4,0.3c-0.1,0.1-0.2,0.3-0.3,0.5
			c-0.1,0.2-0.1,0.4-0.1,0.7l2.2-0.2c0,0,0-0.1,0-0.1c0,0,0,0,0-0.1c0-0.2,0-0.3-0.1-0.4s-0.1-0.3-0.2-0.4c-0.1-0.1-0.2-0.2-0.3-0.2
			C53.1,26.2,52.9,26.2,52.8,26.2z"/>
		<path class="st5" d="M56.7,24.1c0.1,0,0.2-0.1,0.3-0.1c0.1,0,0.2,0,0.3,0v2.7c0.1-0.1,0.2-0.2,0.3-0.3c0.1-0.1,0.2-0.2,0.4-0.3
			c0.1-0.1,0.3-0.1,0.4-0.2c0.2,0,0.3-0.1,0.5-0.1c0.3,0,0.5,0,0.7,0.1s0.4,0.2,0.5,0.4c0.1,0.2,0.3,0.4,0.3,0.6s0.1,0.5,0.1,0.7
			c0,0.3-0.1,0.7-0.2,1c-0.1,0.3-0.3,0.6-0.5,0.8c-0.2,0.2-0.5,0.4-0.7,0.5c-0.3,0.1-0.6,0.2-1,0.2c-0.4,0-0.7,0-0.9-0.1
			c-0.2-0.1-0.4-0.2-0.6-0.3V24.1z M58.6,26.3c-0.3,0-0.5,0.1-0.8,0.2c-0.2,0.2-0.4,0.4-0.5,0.6v2.3c0.1,0.1,0.3,0.2,0.5,0.2
			c0.2,0.1,0.4,0.1,0.7,0.1c0.2,0,0.4,0,0.6-0.1c0.2-0.1,0.3-0.2,0.5-0.3c0.1-0.1,0.2-0.3,0.3-0.6c0.1-0.2,0.1-0.5,0.1-0.8
			c0-0.6-0.1-1-0.4-1.3C59.3,26.4,59,26.3,58.6,26.3z"/>
		<path class="st5" d="M69.5,27.1c0.1-0.1,0.1-0.2,0.2-0.2c0.1-0.1,0.2-0.1,0.3-0.1c0.1,0.1,0.2,0.2,0.2,0.4
			c0.1,0.2,0.1,0.3,0.1,0.6c0,0.3,0,0.5-0.1,0.7c-0.1,0.2-0.2,0.4-0.3,0.5c0.2,0.2,0.4,0.3,0.7,0.5c0.2,0.2,0.4,0.3,0.7,0.4v0.1
			C71.2,29.9,71.1,30,71,30c-0.1,0-0.3,0.1-0.4,0.1c-0.2-0.1-0.3-0.2-0.5-0.3c-0.2-0.1-0.3-0.2-0.5-0.4c-0.2,0.2-0.5,0.4-0.8,0.5
			c-0.3,0.1-0.7,0.2-1.1,0.2c-0.3,0-0.6,0-0.9-0.1c-0.3-0.1-0.5-0.2-0.7-0.3c-0.2-0.2-0.3-0.3-0.4-0.5c-0.1-0.2-0.1-0.4-0.1-0.7
			c0-0.2,0-0.4,0.1-0.6c0.1-0.2,0.2-0.3,0.3-0.4c0.1-0.1,0.3-0.2,0.4-0.4c0.2-0.1,0.4-0.2,0.6-0.3c-0.1-0.2-0.3-0.4-0.4-0.6
			c-0.1-0.2-0.1-0.4-0.1-0.6c0-0.2,0-0.4,0.1-0.6c0.1-0.2,0.2-0.3,0.4-0.5c0.2-0.1,0.3-0.2,0.5-0.3c0.2-0.1,0.4-0.1,0.6-0.1
			c0.2,0,0.4,0,0.5,0.1c0.1,0.1,0.3,0.1,0.4,0.2c0.1,0.1,0.2,0.2,0.2,0.3c0,0.1,0.1,0.2,0.1,0.4c0,0.2,0,0.4-0.1,0.5
			c-0.1,0.2-0.2,0.3-0.4,0.4c-0.1,0.1-0.3,0.2-0.5,0.3c-0.2,0.1-0.4,0.2-0.5,0.3c0.1,0.1,0.2,0.2,0.3,0.4c0.1,0.1,0.3,0.3,0.5,0.5
			c0.2,0.2,0.4,0.3,0.6,0.5c0.2,0.2,0.4,0.4,0.7,0.5c0-0.1,0.1-0.2,0.1-0.3c0-0.1,0.1-0.3,0.1-0.4c0-0.2,0-0.4-0.1-0.6
			C69.7,27.3,69.6,27.2,69.5,27.1z M68,29.7c0.3,0,0.6,0,0.8-0.1c0.2-0.1,0.4-0.2,0.5-0.3c-0.2-0.2-0.5-0.4-0.7-0.6
			c-0.2-0.2-0.4-0.4-0.6-0.6c-0.2-0.2-0.4-0.4-0.5-0.5c-0.2-0.2-0.3-0.3-0.4-0.4c-0.3,0.1-0.5,0.3-0.7,0.5c-0.2,0.2-0.2,0.4-0.2,0.7
			c0,0.2,0,0.4,0.1,0.6s0.2,0.3,0.4,0.5c0.2,0.1,0.3,0.2,0.6,0.3C67.5,29.7,67.7,29.7,68,29.7z M67,25.5c0,0.2,0,0.4,0.1,0.6
			c0.1,0.2,0.2,0.4,0.4,0.6c0.2-0.1,0.3-0.2,0.4-0.2c0.1-0.1,0.2-0.2,0.3-0.3c0.1-0.1,0.2-0.2,0.2-0.3c0-0.1,0.1-0.2,0.1-0.4
			c0-0.1,0-0.2,0-0.3c0-0.1-0.1-0.2-0.1-0.3s-0.1-0.1-0.2-0.2c-0.1,0-0.2-0.1-0.3-0.1c-0.1,0-0.2,0-0.3,0.1s-0.2,0.1-0.3,0.2
			c-0.1,0.1-0.1,0.2-0.2,0.3C67.1,25.2,67,25.3,67,25.5z"/>
		<path class="st5" d="M76.4,24.6c0.3-0.1,0.5-0.2,0.8-0.2c0.3-0.1,0.7-0.1,1-0.1c0.5,0,0.9,0.1,1.2,0.2c0.4,0.1,0.6,0.3,0.9,0.6
			c0.2,0.2,0.4,0.5,0.5,0.9c0.1,0.3,0.2,0.7,0.2,1c0,0.5-0.1,1-0.2,1.4c-0.2,0.4-0.4,0.7-0.7,1c-0.3,0.3-0.6,0.5-1.1,0.6
			c-0.4,0.1-0.9,0.2-1.4,0.2c-0.2,0-0.4,0-0.7,0c-0.2,0-0.5-0.1-0.7-0.1V24.6z M78,24.6c-0.2,0-0.4,0-0.5,0c-0.2,0-0.3,0-0.4,0.1
			v4.9c0.1,0,0.3,0.1,0.5,0.1c0.2,0,0.4,0,0.6,0c0.3,0,0.6,0,0.9-0.2c0.3-0.1,0.5-0.3,0.7-0.5c0.2-0.2,0.4-0.5,0.5-0.8
			c0.1-0.3,0.2-0.7,0.2-1.2c0-0.4,0-0.7-0.1-1c-0.1-0.3-0.2-0.6-0.4-0.8c-0.2-0.2-0.4-0.4-0.7-0.6C78.8,24.7,78.4,24.6,78,24.6z"/>
		<path class="st5" d="M83.7,28c0,0.3,0.1,0.5,0.2,0.7c0.1,0.2,0.2,0.4,0.3,0.5c0.1,0.1,0.3,0.2,0.5,0.3c0.2,0.1,0.4,0.1,0.6,0.1
			c0.3,0,0.5,0,0.7-0.1c0.2-0.1,0.4-0.2,0.5-0.3c0.1,0,0.1,0.1,0.1,0.1c0,0.1-0.1,0.1-0.2,0.2c-0.1,0.1-0.2,0.2-0.3,0.2
			c-0.1,0.1-0.3,0.1-0.5,0.2c-0.2,0.1-0.4,0.1-0.7,0.1c-0.3,0-0.5,0-0.7-0.1c-0.2-0.1-0.4-0.2-0.6-0.4c-0.2-0.2-0.3-0.4-0.4-0.7
			c-0.1-0.3-0.1-0.6-0.1-0.9c0-0.3,0.1-0.6,0.2-0.9c0.1-0.3,0.2-0.5,0.4-0.7c0.2-0.2,0.4-0.4,0.6-0.5c0.2-0.1,0.5-0.2,0.8-0.2
			c0.3,0,0.5,0.1,0.7,0.2s0.3,0.2,0.5,0.4c0.1,0.2,0.2,0.3,0.2,0.5c0,0.2,0.1,0.4,0.1,0.6c0,0.1-0.1,0.1-0.2,0.2
			c-0.1,0-0.1,0.1-0.2,0.1L83.7,28z M84.8,26.2c-0.2,0-0.3,0-0.5,0.1c-0.1,0.1-0.3,0.1-0.4,0.3s-0.2,0.3-0.3,0.5
			c-0.1,0.2-0.1,0.4-0.1,0.7l2.2-0.2c0,0,0-0.1,0-0.1c0,0,0,0,0-0.1c0-0.2,0-0.3-0.1-0.4c0-0.1-0.1-0.3-0.2-0.4
			c-0.1-0.1-0.2-0.2-0.3-0.2C85.2,26.2,85,26.2,84.8,26.2z"/>
		<path class="st5" d="M88.4,29.2c0-0.1,0.1-0.1,0.2-0.2c0.1-0.1,0.2-0.1,0.3-0.1c0,0.3,0.2,0.5,0.4,0.7c0.2,0.2,0.5,0.3,0.9,0.3
			c0.3,0,0.6-0.1,0.7-0.2c0.2-0.1,0.2-0.3,0.2-0.5s-0.1-0.4-0.2-0.5c-0.2-0.1-0.4-0.2-0.8-0.3l-0.5-0.1c-0.2,0-0.3-0.1-0.5-0.1
			c-0.1-0.1-0.2-0.1-0.3-0.2c-0.1-0.1-0.2-0.2-0.2-0.3s-0.1-0.2-0.1-0.4c0-0.2,0-0.3,0.1-0.5s0.2-0.3,0.4-0.4
			c0.1-0.1,0.3-0.2,0.5-0.3c0.2-0.1,0.4-0.1,0.6-0.1c0.2,0,0.4,0,0.6,0.1c0.2,0.1,0.3,0.1,0.4,0.2c0.1,0.1,0.2,0.2,0.2,0.3
			c0,0.1,0.1,0.2,0.1,0.3c0,0.1-0.1,0.1-0.2,0.2c-0.1,0.1-0.2,0.1-0.3,0.1c0-0.2-0.1-0.4-0.3-0.5c-0.2-0.1-0.4-0.2-0.8-0.2
			c-0.1,0-0.2,0-0.3,0c-0.1,0-0.2,0.1-0.3,0.1c-0.1,0.1-0.2,0.1-0.2,0.2c-0.1,0.1-0.1,0.2-0.1,0.3c0,0.2,0.1,0.3,0.2,0.4
			c0.1,0.1,0.3,0.2,0.7,0.3l0.5,0.1c0.5,0.1,0.8,0.3,1,0.4c0.2,0.2,0.3,0.4,0.3,0.7c0,0.2,0,0.3-0.1,0.5c-0.1,0.2-0.2,0.3-0.3,0.4
			c-0.2,0.1-0.3,0.2-0.6,0.3c-0.2,0.1-0.5,0.1-0.8,0.1c-0.2,0-0.5,0-0.6-0.1c-0.2-0.1-0.3-0.1-0.5-0.2c-0.1-0.1-0.2-0.2-0.3-0.3
			C88.4,29.4,88.4,29.3,88.4,29.2z"/>
		<path class="st5" d="M94.7,24.7c0,0.1-0.1,0.2-0.2,0.3c-0.1,0.1-0.2,0.2-0.3,0.2c-0.1,0-0.2-0.1-0.3-0.2c-0.1-0.1-0.2-0.2-0.2-0.3
			c0.1-0.1,0.1-0.2,0.2-0.3c0.1-0.1,0.2-0.2,0.3-0.2c0.1,0,0.2,0.1,0.3,0.2C94.6,24.5,94.6,24.6,94.7,24.7z M93.9,26.1
			c0.1,0,0.2-0.1,0.3-0.1c0.1,0,0.2,0,0.3,0V30c-0.1,0-0.2,0.1-0.3,0.1s-0.2,0-0.3,0V26.1z"/>
		<path class="st5" d="M98.3,28.7c-0.1,0-0.2,0-0.2,0c-0.1,0-0.1,0-0.2,0c-0.1,0.1-0.2,0.1-0.3,0.2c-0.1,0.1-0.1,0.2-0.1,0.3
			c0,0.2,0.1,0.3,0.2,0.3c0.2,0.1,0.4,0.1,0.7,0.1l0.8,0c0.2,0,0.5,0,0.6,0.1s0.3,0.2,0.4,0.3c0.1,0.1,0.2,0.2,0.2,0.3
			c0,0.1,0.1,0.3,0.1,0.4c0,0.2-0.1,0.4-0.2,0.6c-0.1,0.2-0.3,0.3-0.5,0.5c-0.2,0.1-0.4,0.2-0.7,0.3c-0.3,0.1-0.6,0.1-0.9,0.1
			c-0.2,0-0.5,0-0.7-0.1S97.2,32,97,31.9c-0.1-0.1-0.3-0.2-0.4-0.3c-0.1-0.1-0.1-0.3-0.1-0.4c0-0.1,0-0.2,0.1-0.3
			c0-0.1,0.1-0.2,0.2-0.3c0.1-0.1,0.2-0.1,0.3-0.2s0.2-0.1,0.3-0.1c0,0,0,0,0.1,0.1c0,0,0,0.1,0,0.1c-0.1,0.1-0.2,0.1-0.2,0.2
			c-0.1,0.1-0.1,0.2-0.1,0.4c0,0.1,0,0.3,0.1,0.4c0.1,0.1,0.2,0.2,0.3,0.3s0.3,0.1,0.5,0.2c0.2,0,0.4,0,0.6,0c0.4,0,0.8-0.1,1-0.2
			c0.2-0.2,0.3-0.4,0.3-0.6c0-0.2-0.1-0.4-0.3-0.6c-0.2-0.1-0.5-0.2-0.9-0.3l-0.8,0c-0.4,0-0.7-0.1-0.9-0.2
			c-0.2-0.1-0.3-0.3-0.3-0.5c0-0.1,0-0.2,0.1-0.3s0.1-0.2,0.2-0.2c0.1-0.1,0.1-0.1,0.2-0.2c0.1-0.1,0.2-0.1,0.2-0.1
			c-0.2-0.1-0.4-0.2-0.5-0.4c-0.1-0.2-0.2-0.4-0.2-0.7c0-0.2,0-0.4,0.1-0.6c0.1-0.2,0.2-0.4,0.4-0.5c0.2-0.1,0.4-0.2,0.6-0.3
			c0.2-0.1,0.5-0.1,0.7-0.1c0.1,0,0.2,0,0.3,0c0.1,0,0.2,0,0.2,0c0,0,0.1,0,0.1,0c0,0,0.1,0,0.1,0c0.2,0,0.4,0,0.5-0.1
			c0.1-0.1,0.1-0.2,0.1-0.3c0-0.1,0-0.1,0-0.2c0,0-0.1-0.1-0.1-0.1c0.2-0.2,0.4-0.2,0.6-0.2c0,0,0.1,0.1,0.1,0.2c0,0.1,0,0.2,0,0.2
			c0,0.2-0.1,0.4-0.3,0.5c-0.2,0.1-0.4,0.2-0.7,0.2c0.2,0.1,0.3,0.3,0.4,0.5c0.1,0.2,0.1,0.4,0.1,0.6c0,0.2,0,0.4-0.1,0.6
			c-0.1,0.2-0.2,0.3-0.4,0.5c-0.2,0.1-0.3,0.2-0.6,0.3C98.8,28.7,98.5,28.7,98.3,28.7z M98.4,26.2c-0.1,0-0.3,0-0.4,0.1
			c-0.1,0-0.2,0.1-0.3,0.2c-0.1,0.1-0.2,0.2-0.2,0.3c-0.1,0.1-0.1,0.3-0.1,0.4c0,0.2,0,0.4,0.1,0.5c0.1,0.2,0.1,0.3,0.2,0.4
			c0.1,0.1,0.2,0.2,0.3,0.2c0.1,0.1,0.3,0.1,0.4,0.1c0.1,0,0.3,0,0.4-0.1c0.1,0,0.2-0.1,0.3-0.2c0.1-0.1,0.2-0.2,0.2-0.3
			c0.1-0.1,0.1-0.3,0.1-0.5c0-0.2,0-0.3-0.1-0.5c0-0.1-0.1-0.3-0.2-0.4c-0.1-0.1-0.2-0.2-0.3-0.3C98.7,26.2,98.5,26.2,98.4,26.2z"/>
		<path class="st5" d="M105.4,27.6c0-0.4-0.1-0.8-0.3-1c-0.2-0.2-0.4-0.3-0.8-0.3c-0.1,0-0.2,0-0.4,0.1s-0.2,0.1-0.3,0.2
			c-0.1,0.1-0.2,0.2-0.3,0.3c-0.1,0.1-0.2,0.2-0.3,0.3V30c-0.1,0-0.2,0.1-0.3,0.1s-0.2,0-0.3,0v-4c0.2-0.1,0.4-0.1,0.6-0.1v0.8
			c0.1-0.1,0.2-0.2,0.3-0.3c0.1-0.1,0.2-0.2,0.4-0.3c0.1-0.1,0.3-0.2,0.4-0.2c0.2-0.1,0.3-0.1,0.5-0.1c0.4,0,0.8,0.1,1,0.4
			c0.2,0.3,0.4,0.6,0.4,1.1V30c-0.1,0-0.2,0.1-0.3,0.1c-0.1,0-0.2,0-0.3,0V27.6z"/>
		<path class="st5" d="M111.3,28.8c0.1-0.1,0.1-0.2,0.3-0.2c0.1-0.1,0.2-0.1,0.4-0.1c0,0.1,0.1,0.3,0.1,0.4c0.1,0.1,0.2,0.3,0.3,0.4
			c0.1,0.1,0.3,0.2,0.5,0.3c0.2,0.1,0.4,0.1,0.7,0.1c0.4,0,0.7-0.1,0.9-0.3c0.2-0.2,0.3-0.5,0.3-0.8c0-0.3-0.1-0.6-0.2-0.8
			c-0.2-0.2-0.4-0.4-0.9-0.5l-0.7-0.2c-0.2,0-0.4-0.1-0.5-0.2c-0.2-0.1-0.3-0.1-0.4-0.2c-0.1-0.1-0.2-0.2-0.3-0.4
			c-0.1-0.1-0.1-0.3-0.1-0.5c0-0.2,0.1-0.4,0.2-0.6c0.1-0.2,0.3-0.4,0.4-0.5c0.2-0.2,0.4-0.3,0.7-0.4c0.2-0.1,0.5-0.1,0.8-0.1
			c0.3,0,0.5,0,0.7,0.1s0.4,0.2,0.5,0.3c0.1,0.1,0.2,0.2,0.3,0.3c0.1,0.1,0.1,0.2,0.1,0.3c0,0.1-0.1,0.1-0.2,0.2
			c-0.1,0.1-0.2,0.1-0.3,0.1c0-0.1-0.1-0.2-0.1-0.3c-0.1-0.1-0.1-0.2-0.2-0.3c-0.1-0.1-0.2-0.2-0.4-0.2c-0.2-0.1-0.3-0.1-0.6-0.1
			c-0.4,0-0.6,0.1-0.9,0.3c-0.2,0.2-0.3,0.4-0.3,0.7c0,0.2,0,0.3,0.1,0.4s0.1,0.2,0.2,0.3s0.2,0.1,0.3,0.2c0.1,0,0.3,0.1,0.4,0.1
			l0.7,0.2c0.3,0.1,0.5,0.2,0.7,0.3c0.2,0.1,0.3,0.2,0.5,0.3c0.1,0.1,0.2,0.3,0.2,0.4c0,0.1,0.1,0.3,0.1,0.5c0,0.2,0,0.5-0.2,0.7
			c-0.1,0.2-0.2,0.4-0.4,0.6c-0.2,0.2-0.4,0.3-0.7,0.4c-0.3,0.1-0.6,0.1-0.9,0.1c-0.3,0-0.6,0-0.8-0.1c-0.2-0.1-0.4-0.2-0.6-0.3
			c-0.2-0.1-0.3-0.3-0.4-0.4C111.4,29.1,111.3,29,111.3,28.8z"/>
		<path class="st5" d="M117.4,28.1c0-0.3,0.1-0.6,0.2-0.9c0.1-0.3,0.3-0.5,0.5-0.7c0.2-0.2,0.4-0.4,0.7-0.5c0.3-0.1,0.5-0.2,0.8-0.2
			c0.3,0,0.6,0.1,0.8,0.2s0.4,0.3,0.6,0.4c0.2,0.2,0.3,0.4,0.3,0.6c0.1,0.2,0.1,0.5,0.1,0.8c0,0.3-0.1,0.6-0.2,0.9
			c-0.1,0.3-0.2,0.5-0.4,0.7c-0.2,0.2-0.4,0.4-0.7,0.5c-0.3,0.1-0.6,0.2-0.9,0.2c-0.3,0-0.5,0-0.7-0.1c-0.2-0.1-0.4-0.2-0.6-0.4
			c-0.2-0.2-0.3-0.4-0.4-0.7C117.4,28.7,117.4,28.4,117.4,28.1z M118,27.8c0,0.3,0,0.6,0.1,0.9c0.1,0.2,0.2,0.5,0.3,0.6
			c0.1,0.2,0.3,0.3,0.5,0.4c0.2,0.1,0.4,0.1,0.6,0.1c0.4,0,0.7-0.1,1-0.4s0.3-0.7,0.3-1.3c0-0.3,0-0.5-0.1-0.8
			c-0.1-0.2-0.2-0.4-0.3-0.6c-0.1-0.2-0.3-0.3-0.5-0.4s-0.4-0.1-0.6-0.1c-0.2,0-0.3,0-0.5,0.1c-0.2,0.1-0.3,0.2-0.4,0.3
			c-0.1,0.1-0.2,0.3-0.3,0.5C118.1,27.3,118,27.5,118,27.8z"/>
		<path class="st5" d="M123.6,24.1c0.1,0,0.2-0.1,0.3-0.1c0.1,0,0.2,0,0.3,0v6c-0.1,0-0.2,0.1-0.3,0.1s-0.2,0-0.3,0V24.1z"/>
		<path class="st5" d="M128.5,29.7c0.3,0,0.5-0.1,0.7-0.2c0.2-0.1,0.4-0.3,0.5-0.6v-2.9c0.1,0,0.2-0.1,0.3-0.1c0.1,0,0.2,0,0.3,0V30
			c-0.1,0-0.2,0.1-0.3,0.1s-0.2,0-0.3,0v-0.7c-0.1,0.1-0.1,0.2-0.2,0.3c-0.1,0.1-0.2,0.2-0.3,0.3c-0.1,0.1-0.3,0.1-0.4,0.2
			c-0.2,0.1-0.3,0.1-0.5,0.1c-0.2,0-0.4,0-0.5-0.1c-0.2-0.1-0.3-0.1-0.4-0.3c-0.1-0.1-0.2-0.3-0.3-0.5c-0.1-0.2-0.1-0.4-0.1-0.7
			v-2.6c0.1,0,0.2-0.1,0.3-0.1c0.1,0,0.2,0,0.3,0v2.5c0,0.2,0,0.4,0.1,0.6c0.1,0.2,0.1,0.3,0.2,0.4c0.1,0.1,0.2,0.2,0.4,0.2
			C128.2,29.7,128.3,29.7,128.5,29.7z"/>
		<path class="st5" d="M132.2,26.2c0-0.1,0.1-0.1,0.2-0.2c0.1,0,0.2-0.1,0.3-0.1h0.3v-1.1c0.1-0.1,0.2-0.1,0.3-0.2s0.2-0.1,0.3-0.1
			V26h1.5c0,0.1,0,0.2-0.1,0.2c0,0.1-0.1,0.1-0.2,0.1h-1.3v2.6c0,0.2,0,0.3,0.1,0.4c0,0.1,0.1,0.2,0.2,0.2c0.1,0.1,0.1,0.1,0.2,0.1
			c0.1,0,0.2,0,0.3,0c0.2,0,0.3,0,0.4-0.1c0.1-0.1,0.2-0.1,0.3-0.2c0.1,0,0.1,0.1,0.1,0.1c0,0-0.1,0.1-0.1,0.2
			c-0.1,0.1-0.1,0.1-0.2,0.2c-0.1,0.1-0.2,0.1-0.3,0.2c-0.1,0-0.3,0.1-0.4,0.1c-0.1,0-0.3,0-0.4-0.1c-0.1,0-0.2-0.1-0.3-0.2
			c-0.1-0.1-0.2-0.2-0.2-0.3c-0.1-0.1-0.1-0.3-0.1-0.5v-2.7L132.2,26.2L132.2,26.2z"/>
		<path class="st5" d="M137.9,24.7c0,0.1-0.1,0.2-0.2,0.3c-0.1,0.1-0.2,0.2-0.3,0.2c-0.1,0-0.2-0.1-0.3-0.2
			c-0.1-0.1-0.2-0.2-0.2-0.3c0.1-0.1,0.1-0.2,0.2-0.3c0.1-0.1,0.2-0.2,0.3-0.2c0.1,0,0.2,0.1,0.3,0.2
			C137.8,24.5,137.9,24.6,137.9,24.7z M137.1,26.1c0.1,0,0.2-0.1,0.3-0.1c0.1,0,0.2,0,0.3,0V30c-0.1,0-0.2,0.1-0.3,0.1s-0.2,0-0.3,0
			V26.1z"/>
		<path class="st5" d="M140,28.1c0-0.3,0.1-0.6,0.2-0.9c0.1-0.3,0.3-0.5,0.5-0.7c0.2-0.2,0.4-0.4,0.7-0.5c0.3-0.1,0.5-0.2,0.8-0.2
			c0.3,0,0.6,0.1,0.8,0.2s0.4,0.3,0.6,0.4c0.2,0.2,0.3,0.4,0.3,0.6c0.1,0.2,0.1,0.5,0.1,0.8c0,0.3-0.1,0.6-0.2,0.9
			c-0.1,0.3-0.2,0.5-0.4,0.7c-0.2,0.2-0.4,0.4-0.7,0.5c-0.3,0.1-0.6,0.2-0.9,0.2c-0.3,0-0.5,0-0.7-0.1s-0.4-0.2-0.6-0.4
			c-0.2-0.2-0.3-0.4-0.4-0.7C140,28.7,140,28.4,140,28.1z M140.6,27.8c0,0.3,0,0.6,0.1,0.9c0.1,0.2,0.2,0.5,0.3,0.6
			c0.1,0.2,0.3,0.3,0.5,0.4c0.2,0.1,0.4,0.1,0.6,0.1c0.4,0,0.7-0.1,1-0.4c0.2-0.3,0.3-0.7,0.3-1.3c0-0.3,0-0.5-0.1-0.8
			c-0.1-0.2-0.2-0.4-0.3-0.6c-0.1-0.2-0.3-0.3-0.5-0.4c-0.2-0.1-0.4-0.1-0.6-0.1c-0.2,0-0.3,0-0.5,0.1c-0.2,0.1-0.3,0.2-0.4,0.3
			c-0.1,0.1-0.2,0.3-0.3,0.5C140.7,27.3,140.6,27.5,140.6,27.8z"/>
		<path class="st5" d="M149.1,27.6c0-0.4-0.1-0.8-0.3-1c-0.2-0.2-0.4-0.3-0.8-0.3c-0.1,0-0.2,0-0.4,0.1s-0.2,0.1-0.3,0.2
			c-0.1,0.1-0.2,0.2-0.3,0.3c-0.1,0.1-0.2,0.2-0.3,0.3V30c-0.1,0-0.2,0.1-0.3,0.1s-0.2,0-0.3,0v-4c0.2-0.1,0.4-0.1,0.6-0.1v0.8
			c0.1-0.1,0.2-0.2,0.3-0.3c0.1-0.1,0.2-0.2,0.4-0.3c0.1-0.1,0.3-0.2,0.4-0.2c0.2-0.1,0.3-0.1,0.5-0.1c0.4,0,0.8,0.1,1,0.4
			c0.2,0.3,0.4,0.6,0.4,1.1V30c-0.1,0-0.2,0.1-0.3,0.1s-0.2,0-0.3,0V27.6z"/>
		<path class="st5" d="M151.9,29.2c0-0.1,0.1-0.1,0.2-0.2c0.1-0.1,0.2-0.1,0.3-0.1c0,0.3,0.2,0.5,0.4,0.7c0.2,0.2,0.5,0.3,0.9,0.3
			c0.3,0,0.6-0.1,0.7-0.2c0.2-0.1,0.2-0.3,0.2-0.5s-0.1-0.4-0.2-0.5c-0.2-0.1-0.4-0.2-0.8-0.3l-0.5-0.1c-0.2,0-0.3-0.1-0.5-0.1
			c-0.1-0.1-0.2-0.1-0.3-0.2c-0.1-0.1-0.2-0.2-0.2-0.3c-0.1-0.1-0.1-0.2-0.1-0.4c0-0.2,0-0.3,0.1-0.5s0.2-0.3,0.4-0.4
			c0.1-0.1,0.3-0.2,0.5-0.3c0.2-0.1,0.4-0.1,0.6-0.1c0.2,0,0.4,0,0.6,0.1c0.2,0.1,0.3,0.1,0.4,0.2c0.1,0.1,0.2,0.2,0.2,0.3
			c0,0.1,0.1,0.2,0.1,0.3c0,0.1-0.1,0.1-0.2,0.2c-0.1,0.1-0.2,0.1-0.3,0.1c0-0.2-0.1-0.4-0.3-0.5c-0.2-0.1-0.4-0.2-0.8-0.2
			c-0.1,0-0.2,0-0.3,0c-0.1,0-0.2,0.1-0.3,0.1c-0.1,0.1-0.2,0.1-0.2,0.2c-0.1,0.1-0.1,0.2-0.1,0.3c0,0.2,0.1,0.3,0.2,0.4
			c0.1,0.1,0.3,0.2,0.7,0.3l0.5,0.1c0.5,0.1,0.8,0.3,1,0.4c0.2,0.2,0.3,0.4,0.3,0.7c0,0.2,0,0.3-0.1,0.5c-0.1,0.2-0.2,0.3-0.3,0.4
			c-0.2,0.1-0.3,0.2-0.6,0.3c-0.2,0.1-0.5,0.1-0.8,0.1c-0.2,0-0.5,0-0.6-0.1c-0.2-0.1-0.3-0.1-0.5-0.2c-0.1-0.1-0.2-0.2-0.3-0.3
			C151.9,29.4,151.9,29.3,151.9,29.2z"/>
	</g>
</g>
</svg>
