<svg width="32" height="30" viewBox="0 0 32 30" fill="none" xmlns="http://www.w3.org/2000/svg">
<g clip-path="url(#clip0_1_402)">
<path d="M31.3627 7.73164C31.1817 7.09341 30.8252 6.51092 30.3287 6.04246C29.8322 5.574 29.2132 5.23602 28.5336 5.06232C26.0317 4.43164 16.0317 4.43164 16.0317 4.43164C16.0317 4.43164 6.03174 4.43164 3.52992 5.06232C2.85031 5.23602 2.23128 5.574 1.73479 6.04246C1.23829 6.51092 0.881746 7.09341 0.700829 7.73164C0.0317384 10.0873 0.0317383 14.9998 0.0317383 14.9998C0.0317383 14.9998 0.0317384 19.9123 0.700829 22.268C0.881746 22.9062 1.23829 23.4887 1.73479 23.9572C2.23128 24.4256 2.85031 24.7636 3.52992 24.9373C6.03174 25.568 16.0317 25.568 16.0317 25.568C16.0317 25.568 26.0317 25.568 28.5336 24.9373C29.2132 24.7636 29.8322 24.4256 30.3287 23.9572C30.8252 23.4887 31.1817 22.9062 31.3627 22.268C32.0317 19.9123 32.0317 14.9998 32.0317 14.9998C32.0317 14.9998 32.0317 10.0873 31.3627 7.73164Z" fill="#FF0302"/>
<path d="M12.759 19.4607V10.5391L21.1227 14.9999L12.759 19.4607Z" fill="#FEFEFE"/>
</g>
<defs>
<clipPath id="clip0_1_402">
<rect width="32" height="30" fill="white"/>
</clipPath>
</defs>
</svg>
