<svg xmlns="http://www.w3.org/2000/svg" width="48.378" height="44.899" viewBox="0 0 48.378 44.899">
  <g id="coding" transform="translate(0 -18.5)">
    <path id="Path_677" data-name="Path 677" d="M203.818,177.236h21.925a.718.718,0,0,0,0-1.436H203.818a.718.718,0,1,0,0,1.436Z" transform="translate(-183.906 -142.434)" fill="#97aecf"/>
    <path id="Path_678" data-name="Path 678" d="M203.818,232.236h21.925a.718.718,0,0,0,0-1.436H203.818a.718.718,0,0,0,0,1.436Z" transform="translate(-183.906 -192.236)" fill="#97aecf"/>
    <path id="Path_679" data-name="Path 679" d="M184.586,286h-8.468a.709.709,0,1,0,0,1.418h8.468a.709.709,0,1,0,0-1.418Z" transform="translate(-158.824 -242.22)" fill="#97aecf"/>
    <path id="Path_680" data-name="Path 680" d="M78,286.709a.71.71,0,0,0,.718.709h5.434a.709.709,0,1,0,0-1.418H78.709A.708.708,0,0,0,78,286.709Z" transform="translate(-70.629 -242.22)" fill="#97aecf"/>
    <path id="Path_681" data-name="Path 681" d="M67.866,171a.716.716,0,0,0,.718-.709.724.724,0,0,0-.718-.718c-.4,0-.869-.2-.869-1.153v-1a1.943,1.943,0,0,0-.4-1.266,1.9,1.9,0,0,0,.4-1.257v-1c0-.955.473-1.153.869-1.153a.718.718,0,1,0,0-1.436,2.322,2.322,0,0,0-2.306,2.58v1c0,.378-.066.4-.4.52a2.311,2.311,0,0,0-.227.095.716.716,0,0,0-.35.945.745.745,0,0,0,.293.321c.019.009.217.094.284.123.331.123.4.142.4.52v1A2.315,2.315,0,0,0,67.866,171Z" transform="translate(-58.425 -129.305)" fill="#97aecf"/>
    <path id="Path_682" data-name="Path 682" d="M133.188,167.4c0,.955-.473,1.153-.869,1.153a.718.718,0,0,0-.718.718.71.71,0,0,0,.718.709,2.322,2.322,0,0,0,2.306-2.58v-1c0-.378.066-.4.4-.52.076-.028.142-.057.217-.085a.139.139,0,0,1,.038-.019.775.775,0,0,0,.321-.331.713.713,0,0,0-.35-.945,2.306,2.306,0,0,0-.227-.095c-.331-.123-.4-.142-.4-.52v-1a2.312,2.312,0,0,0-2.306-2.58.718.718,0,1,0,0,1.436c.4,0,.869.2.869,1.153v1a1.943,1.943,0,0,0,.4,1.266,1.9,1.9,0,0,0-.4,1.257v.983Z" transform="translate(-119.163 -128.399)" fill="#97aecf"/>
    <path id="Path_683" data-name="Path 683" d="M95.022,341h-17.3a.709.709,0,1,0,0,1.418h17.3a.709.709,0,1,0,0-1.418Z" transform="translate(-69.723 -292.022)" fill="#97aecf"/>
    <path id="Path_684" data-name="Path 684" d="M94.022,396h-17.3a.709.709,0,1,0,0,1.418h17.3a.709.709,0,1,0,0-1.418Z" transform="translate(-68.818 -341.824)" fill="#97aecf"/>
    <path id="Path_685" data-name="Path 685" d="M411.23,54.161A2.23,2.23,0,1,0,409,51.93,2.234,2.234,0,0,0,411.23,54.161Zm0-3.024a.8.8,0,1,1-.8.8A.8.8,0,0,1,411.23,51.136Z" transform="translate(-370.347 -28.251)" fill="#97aecf"/>
    <path id="Path_686" data-name="Path 686" d="M343.03,54.161a2.23,2.23,0,1,0-2.23-2.23A2.234,2.234,0,0,0,343.03,54.161Zm0-3.024a.8.8,0,1,1-.8.8A.8.8,0,0,1,343.03,51.136Z" transform="translate(-308.592 -28.251)" fill="#97aecf"/>
    <path id="Path_687" data-name="Path 687" d="M274.93,54.161a2.23,2.23,0,1,0-2.23-2.23A2.234,2.234,0,0,0,274.93,54.161Zm0-3.024a.8.8,0,1,1-.8.8A.8.8,0,0,1,274.93,51.136Z" transform="translate(-246.928 -28.251)" fill="#97aecf"/>
    <path id="Path_688" data-name="Path 688" d="M42.877,18.5H5.51A5.516,5.516,0,0,0,0,24.01V57.89A5.522,5.522,0,0,0,5.51,63.4H42.868a5.509,5.509,0,0,0,5.51-5.51V24.01a5.5,5.5,0,0,0-5.5-5.51Zm0,43.463H5.51a4.09,4.09,0,0,1-4.083-4.083V28.99h10.49a.718.718,0,1,0,0-1.436H1.427V24.01A4.09,4.09,0,0,1,5.51,19.927H42.868A4.09,4.09,0,0,1,46.95,24.01v3.563H15.2a.718.718,0,1,0,0,1.436H46.96V57.9A4.086,4.086,0,0,1,42.877,61.963Z" fill="#97aecf"/>
    <path id="Path_689" data-name="Path 689" d="M307.805,279.142h-.189a3.712,3.712,0,0,0-.17-.406l.132-.132a1.451,1.451,0,0,0,.425-1.03,1.43,1.43,0,0,0-.425-1.021l-1.38-1.38a1.435,1.435,0,0,0-1.03-.425,1.451,1.451,0,0,0-1.03.425l-.132.132c-.132-.057-.265-.113-.406-.17v-.189a1.454,1.454,0,0,0-1.455-1.446h-1.956a1.454,1.454,0,0,0-1.455,1.446v.227c-.123.047-.246.1-.369.161l-.17-.17a1.435,1.435,0,0,0-1.03-.425h0a1.43,1.43,0,0,0-1.021.425l-1.38,1.38a1.43,1.43,0,0,0-.425,1.021,1.451,1.451,0,0,0,.425,1.03l.208.208c-.047.113-.095.217-.132.331h-.293a1.452,1.452,0,0,0-1.446,1.446v1.956a1.446,1.446,0,0,0,1.446,1.446h.34c.038.1.085.2.123.3l-.236.236a1.449,1.449,0,0,0,0,2.051l1.38,1.38a1.43,1.43,0,0,0,1.021.425h0a1.451,1.451,0,0,0,1.03-.425l.236-.236c.1.047.2.085.3.123v.331a1.448,1.448,0,0,0,1.455,1.446h1.966a1.454,1.454,0,0,0,1.455-1.446v-.293a3.431,3.431,0,0,0,.331-.132l.208.208a1.46,1.46,0,0,0,2.06,0l1.38-1.38a1.43,1.43,0,0,0,.425-1.021,1.414,1.414,0,0,0-.425-1.021l-.17-.161c.057-.123.113-.246.161-.369h.227a1.454,1.454,0,0,0,1.455-1.446V280.6a1.476,1.476,0,0,0-1.465-1.455Zm.019,3.4a.02.02,0,0,1-.019.019h-.737a.709.709,0,0,0-.68.51,5.149,5.149,0,0,1-.463,1.077.714.714,0,0,0,.113.86l.529.529c.009.009.009.028,0,.028l-1.38,1.389h-.028l-.567-.558a.714.714,0,0,0-.841-.123,5.9,5.9,0,0,1-1.058.425.709.709,0,0,0-.52.69v.813a.02.02,0,0,1-.019.019H300.2a.02.02,0,0,1-.019-.019v-.86a.709.709,0,0,0-.51-.68,5.3,5.3,0,0,1-1.021-.425.726.726,0,0,0-.34-.085.708.708,0,0,0-.5.208l-.6.6a.033.033,0,0,1-.019.009h0c-.009,0-.009,0-.009-.009l-1.38-1.38c-.009-.009-.009-.028,0-.028l.6-.6a.7.7,0,0,0,.123-.841,5.065,5.065,0,0,1-.425-1.021.717.717,0,0,0-.68-.51h-.841a.02.02,0,0,1-.019-.019v-1.956a.02.02,0,0,1,.019-.019h.813a.709.709,0,0,0,.69-.52,5.546,5.546,0,0,1,.425-1.049.718.718,0,0,0-.123-.841l-.567-.567a.033.033,0,0,1-.009-.019c0-.009,0-.009.009-.009l1.389-1.38h.009c.009,0,.009,0,.019.009l.529.529a.7.7,0,0,0,.851.113,5.368,5.368,0,0,1,1.077-.463.717.717,0,0,0,.51-.68v-.737a.02.02,0,0,1,.019-.019h1.947a.02.02,0,0,1,.019.019v.709a.717.717,0,0,0,.52.69,5.415,5.415,0,0,1,1.115.454.718.718,0,0,0,.851-.123l.491-.491h.028l1.389,1.389v.009c0,.009,0,.009-.009.019l-.491.491a.716.716,0,0,0-.123.851,5.207,5.207,0,0,1,.454,1.115.72.72,0,0,0,.69.52h.709a.02.02,0,0,1,.019.019v1.918Z" transform="translate(-265.4 -230.901)" fill="#97aecf"/>
    <path id="Path_690" data-name="Path 690" d="M342.833,319.4a3.733,3.733,0,1,0,3.733,3.733A3.735,3.735,0,0,0,342.833,319.4Zm0,6.039a2.306,2.306,0,1,1,2.306-2.306A2.3,2.3,0,0,1,342.833,325.439Z" transform="translate(-307.053 -272.463)" fill="#97aecf"/>
  </g>
</svg>
