<svg width="25" height="26" viewBox="0 0 25 26" fill="none" xmlns="http://www.w3.org/2000/svg">
    <g clip-path="url(#ruwz2d6dka)">
        <path d="M24.889 13c0-6.873-5.572-12.444-12.445-12.444C5.572.556 0 6.127 0 13c0 6.211 4.55 11.36 10.5 12.293v-8.696H7.34V13h3.16v-2.742c0-3.118 1.858-4.841 4.7-4.841 1.362 0 2.786.243 2.786.243v3.062h-1.57c-1.545 0-2.027.96-2.027 1.945V13h3.451l-.552 3.597h-2.9v8.696c5.95-.933 10.5-6.082 10.5-12.293z" fill="#1877F2"/>
        <path d="M17.289 16.597 17.84 13H14.39v-2.333c0-.984.482-1.945 2.028-1.945h1.57V5.66s-1.425-.243-2.786-.243c-2.843 0-4.7 1.723-4.7 4.841V13H7.34v3.597h3.16v8.696c1.288.202 2.6.202 3.888 0v-8.696h2.9z" fill="#fff"/>
    </g>
    <defs>
        <clipPath id="ruwz2d6dka">
            <path fill="#fff" transform="translate(0 .556)" d="M0 0h24.889v24.889H0z"/>
        </clipPath>
    </defs>
</svg>
