<?xml version="1.0" encoding="utf-8"?>
<!-- Generator: Adobe Illustrator 23.0.1, SVG Export Plug-In . SVG Version: 6.00 Build 0)  -->
<svg version="1.1" id="Layer_1" xmlns="http://www.w3.org/2000/svg" xmlns:xlink="http://www.w3.org/1999/xlink" x="0px" y="0px"
	 viewBox="0 0 32 32" style="enable-background:new 0 0 32 32;" xml:space="preserve">
<style type="text/css">
	.st0{fill:#0576AE;}
	.st1{fill:#93BB3E;}
	.st2{fill:#B21E3D;}
	.st3{fill:#EDB01F;}
	.st4{fill:#79C5E5;}
	.st5{fill:#FFFFFF;}
</style>
<g>
	<polygon class="st0" points="4.4,17.8 0,9.8 4.4,1.8 8.9,9.8 	"/>
	<polygon class="st1" points="15.5,17.8 11.1,9.8 15.5,1.8 20.1,9.8 	"/>
	<polygon class="st2" points="10.4,29.8 6,21.8 10.4,13.7 14.9,21.8 	"/>
	<polygon class="st3" points="21.6,29.8 17,21.8 21.6,13.7 26,21.8 	"/>
	<polygon class="st4" points="27.5,17.8 23.1,9.8 27.5,1.8 32,9.8 	"/>
	<path class="st5" d="M4.4,8.1H2.9l0.3,3.1l1.3,0.4l1.3-0.4l0.3-3.1C6.1,8.1,4.4,8.1,4.4,8.1z M5.4,9h-1H3.9v0.5h0.5h0.9l-0.1,1.3
		L4.4,11l-0.8-0.3v-0.4H4v0.1l0.4,0.3l0.4-0.2V10H4.4H3.5L3.4,8.6h1h1V9z"/>
	<g>
		<g>
			<g>
				<path class="st5" d="M14.1,8.2l0.3,3l1.2,0.3l1.2-0.3l0.3-3H14.1z M16.5,9.1v0.3l-0.2,1.2l-0.8,0.2l0,0l-0.8-0.2l-0.1-0.6H15
					v0.3l0.4,0.1l0,0l0.4-0.1L16,9.9h-1.3V9.6H16V9.2h-1.4V8.9h0.9h0.9V9.1z"/>
			</g>
		</g>
	</g>
	<g>
		<g>
			<path class="st5" d="M11.2,20c0.1,0,0.2,0,0.2,0.1l0.8,1.3c0,0.1,0,0.2,0,0.2l-0.8,1.3c0,0.1-0.1,0.1-0.2,0.1H9.6
				c-0.1,0-0.2,0-0.2-0.1l-0.8-1.3c0-0.1,0-0.2,0-0.2l0.8-1.3C9.4,20,9.5,20,9.6,20H11.2 M11.2,19.7H9.6c-0.2,0-0.3,0.1-0.5,0.3
				l-0.8,1.4c-0.1,0.2-0.1,0.3,0,0.6l0.8,1.3c0.1,0.2,0.3,0.3,0.5,0.3h1.6c0.2,0,0.3-0.1,0.5-0.3l0.8-1.3c0.1-0.2,0.1-0.3,0-0.6
				l-0.8-1.4C11.6,19.8,11.4,19.7,11.2,19.7L11.2,19.7z"/>
			<g>
				<path class="st5" d="M9.8,22.3c-0.2,0-0.3,0-0.3-0.1c-0.1-0.1-0.1-0.2-0.2-0.3h0.3c0,0.1,0,0.1,0.1,0.2
					C9.6,22.1,9.7,22.2,9.8,22.3c0.1-0.1,0.1-0.1,0.2-0.2c0,0,0.1-0.1,0.1-0.2v-0.7H9.8V21h0.6v0.9c0,0.2,0,0.3-0.1,0.3
					C10,22.3,9.9,22.3,9.8,22.3z"/>
				<path class="st5" d="M11.5,21.9c0,0.2-0.1,0.3-0.2,0.3c-0.1,0.1-0.3,0.1-0.4,0.1s-0.3,0-0.4-0.1c-0.1-0.1-0.2-0.2-0.2-0.3
					l0.3-0.1c0,0.1,0.1,0.1,0.1,0.2c0.1,0,0.2,0.1,0.3,0.1c0.2,0,0.3-0.1,0.3-0.2v-0.1l-0.1-0.1c0,0-0.1,0-0.3-0.1
					c-0.1,0-0.2-0.1-0.2-0.1s-0.1,0-0.1-0.1l-0.1-0.1c0,0,0-0.1-0.1-0.1c0,0,0-0.1,0-0.2c0-0.1,0.1-0.3,0.2-0.3s0.3-0.1,0.4-0.1
					s0.3,0,0.3,0.1c0.1,0.1,0.2,0.2,0.2,0.3h-0.3c0-0.1-0.1-0.1-0.1-0.2c-0.1,0-0.1-0.1-0.2-0.1c-0.2,0-0.3,0.1-0.3,0.2v0.1
					c0,0,0.1,0,0.1,0.1c0,0,0.1,0,0.3,0.1c0.2,0,0.3,0.1,0.3,0.1c0.1,0,0.1,0.1,0.2,0.1l0.1,0.1C11.5,21.8,11.5,21.8,11.5,21.9z"/>
			</g>
		</g>
	</g>
	<g>
		<path class="st5" d="M26.7,9.8c0-0.1,0-0.3-0.3-0.3h-0.3l-0.1,0.6h0.3C26.6,10.2,26.7,9.9,26.7,9.8z"/>
		<path class="st5" d="M29.3,10.2c-0.1,0.1-0.3,0.2-0.4,0.2h-0.3l-0.2,0.4h-0.3l0.3-1.4h0.7c0.1,0,0.2,0,0.2,0.1
			c-0.3-0.8-0.9-1.3-1.8-1.3c-1,0-1.8,0.8-1.8,1.8c0,0.2,0,0.3,0.1,0.5l0.2-1.1h0.7c0.3,0,0.4,0.3,0.4,0.5c0,0.2-0.2,0.6-0.6,0.6
			h-0.3L26,10.8h-0.1c0.3,0.6,0.9,0.9,1.6,0.9C28.4,11.7,29.2,11.1,29.3,10.2c0-0.1,0-0.1,0-0.2C29.3,10.1,29.3,10.2,29.3,10.2z
			 M27.7,10.4c0,0,0.1-0.6,0.2-0.7c0-0.2-0.1-0.2-0.3-0.2c-0.1,0-0.2,0-0.2,0l-0.2,0.8H27l0.3-1.5h0.3l-0.1,0.4c0.1,0,0.3,0,0.4,0
			c0.2,0,0.3,0.1,0.3,0.3s-0.2,0.8-0.2,0.8H27.7z"/>
		<path class="st5" d="M28.7,9.5l-0.1,0.6h0.3c0.3,0,0.3-0.3,0.3-0.3s0-0.3-0.3-0.3H28.7z"/>
	</g>
	<g>
		<g>
			<g>
				<path class="st5" d="M21.6,21.9l-0.5,1.3c0.2,0,0.3,0.1,0.4,0.1s0.3,0,0.5-0.1l0,0L21.6,21.9z"/>
				<path class="st5" d="M20,21.8c0,0.6,0.3,1.2,0.8,1.4l-0.8-2C20.1,21.3,20,21.6,20,21.8z"/>
				<path class="st5" d="M22.6,21.7c0-0.2-0.1-0.3-0.2-0.4c-0.1-0.2-0.2-0.3-0.2-0.3c0-0.2,0.1-0.3,0.3-0.3l0,0
					c-0.3-0.3-0.7-0.4-1-0.4c-0.5,0-1,0.3-1.3,0.7h0.1c0.2,0,0.4,0,0.4,0c0.1,0,0.1,0.1,0,0.2c0,0-0.1,0-0.2,0l0.6,1.7l0.3-1
					l-0.3-0.7c-0.1,0-0.2,0-0.2,0c-0.1,0-0.1-0.2,0-0.2c0,0,0.3,0,0.4,0c0.2,0,0.4,0,0.4,0c0.1,0,0.1,0.1,0,0.2c0,0-0.1,0-0.2,0
					l0.6,1.7l0.2-0.5C22.6,22,22.6,21.8,22.6,21.7z"/>
				<path class="st5" d="M22.9,21.1c0,0.1,0,0.1,0,0.2c0,0.2,0,0.3-0.1,0.6l-0.5,1.3c0.4-0.3,0.8-0.8,0.8-1.3
					C23.1,21.5,23,21.3,22.9,21.1z"/>
				<path class="st5" d="M21.6,19.8c-1.1,0-1.9,0.8-1.9,1.9s0.8,1.9,1.9,1.9c1.1,0,1.9-0.8,1.9-1.9C23.5,20.7,22.6,19.8,21.6,19.8z
					 M21.6,23.5c-0.9,0-1.7-0.8-1.7-1.7s0.8-1.7,1.7-1.7c0.9,0,1.7,0.8,1.7,1.7S22.5,23.5,21.6,23.5z"/>
			</g>
		</g>
	</g>
</g>
</svg>
