<svg width="25" height="26" viewBox="0 0 25 26" fill="none" xmlns="http://www.w3.org/2000/svg">
    <g clip-path="url(#yd3fcsuv7a)">
        <path d="M23.163.556H1.949A1.837 1.837 0 0 0 .11 2.393v21.214a1.837 1.837 0 0 0 1.838 1.838h21.214A1.837 1.837 0 0 0 25 23.607V2.393A1.838 1.838 0 0 0 23.163.556zM7.53 21.758H3.788V9.872H7.53v11.886zM5.656 8.225a2.148 2.148 0 1 1 2.16-2.147 2.117 2.117 0 0 1-2.16 2.147zm15.666 13.543h-3.74v-6.493c0-1.915-.814-2.507-1.865-2.507-1.11 0-2.199.837-2.199 2.555v6.445H9.777V9.88h3.598v1.647h.048c.362-.73 1.627-1.98 3.557-1.98 2.088 0 4.344 1.239 4.344 4.869l-.002 7.352z" fill="#0D6BC9"/>
    </g>
    <defs>
        <clipPath id="yd3fcsuv7a">
            <path fill="#fff" transform="translate(.111 .556)" d="M0 0h24.889v24.889H0z"/>
        </clipPath>
    </defs>
</svg>
