<svg width="26" height="26" viewBox="0 0 26 26" fill="none" xmlns="http://www.w3.org/2000/svg">
    <g clip-path="url(#xyt0o4c18a)">
        <path d="M8.383 23.112c9.392 0 14.529-7.781 14.529-14.53 0-.22 0-.44-.015-.66a10.39 10.39 0 0 0 2.548-2.643c-.932.414-1.921.684-2.933.804a5.123 5.123 0 0 0 2.245-2.825 10.23 10.23 0 0 1-3.243 1.24 5.111 5.111 0 0 0-8.702 4.657A14.498 14.498 0 0 1 2.288 3.82a5.11 5.11 0 0 0 1.58 6.816 5.063 5.063 0 0 1-2.317-.639v.065a5.108 5.108 0 0 0 4.097 5.006 5.098 5.098 0 0 1-2.306.087 5.113 5.113 0 0 0 4.77 3.546 10.246 10.246 0 0 1-7.556 2.117 14.458 14.458 0 0 0 7.827 2.29" fill="#1DA1F2"/>
    </g>
    <defs>
        <clipPath id="xyt0o4c18a">
            <path fill="#fff" transform="translate(.556 .556)" d="M0 0h24.889v24.889H0z"/>
        </clipPath>
    </defs>
</svg>
