<svg width="40" height="40" viewBox="0 0 40 40" fill="none" xmlns="http://www.w3.org/2000/svg">
    <path d="M29.367 17.917a1.284 1.284 0 0 1-1.284-1.284c0-.616-.616-1.9-1.65-3.016-1.016-1.084-2.133-1.717-3.066-1.717a1.284 1.284 0 0 1-1.284-1.283c0-.7.584-1.284 1.284-1.284 1.666 0 3.416.9 4.95 2.517 1.433 1.517 2.35 3.4 2.35 4.767 0 .716-.584 1.3-1.3 1.3zM35.383 17.917a1.284 1.284 0 0 1-1.283-1.284c0-5.916-4.817-10.716-10.717-10.716A1.284 1.284 0 0 1 22.1 4.633c0-.7.567-1.3 1.267-1.3 7.333 0 13.3 5.967 13.3 13.3 0 .7-.584 1.284-1.284 1.284zM18.417 24.917 15.333 28c-.65.65-1.683.65-2.35.017-.183-.183-.366-.35-.55-.534a47.35 47.35 0 0 1-4.65-5.45c-1.366-1.9-2.466-3.8-3.266-5.683-.784-1.9-1.184-3.717-1.184-5.45 0-1.133.2-2.216.6-3.216.4-1.017 1.034-1.95 1.917-2.784 1.067-1.05 2.233-1.567 3.467-1.567.466 0 .933.1 1.35.3.433.2.816.5 1.116.934l3.867 5.45c.3.417.517.8.667 1.167.15.35.233.7.233 1.016 0 .4-.117.8-.35 1.184-.217.383-.533.783-.933 1.183L14 15.883a.892.892 0 0 0-.267.667c0 .133.017.25.05.383.05.134.1.234.134.334.3.55.816 1.267 1.55 2.133.75.867 1.55 1.75 2.416 2.634.167.166.35.333.517.5a1.67 1.67 0 0 1 .017 2.383zM36.617 30.55c0 .467-.084.95-.25 1.417-.05.133-.1.266-.167.4-.283.6-.65 1.166-1.133 1.7-.817.9-1.717 1.55-2.734 1.966-.016 0-.033.017-.05.017a8.42 8.42 0 0 1-3.2.617c-1.7 0-3.516-.4-5.433-1.217-1.917-.817-3.833-1.917-5.733-3.3-.65-.483-1.3-.967-1.917-1.483l5.45-5.45c.467.35.883.616 1.233.8.084.033.184.083.3.133.134.05.267.067.417.067.283 0 .5-.1.683-.284l1.267-1.25c.417-.416.817-.733 1.2-.933a2.22 2.22 0 0 1 1.183-.35c.317 0 .65.067 1.017.217.367.15.75.366 1.167.65l5.516 3.916c.434.3.734.65.917 1.067.167.417.267.833.267 1.3z" fill="#00D983"/>
</svg>
